  0
SECTION
  2
HEADER
  9
$ACADVER
  1
AC1024
  9
$ACADMAINTVER
 70
     6
  9
$DWGCODEPAGE
  3
UNDEFINED
  9
$INSBASE
 10
0.0
 20
0.0
 30
0.0
  9
$EXTMIN
 10
1.000000000000000E+20
 20
1.000000000000000E+20
 30
1.000000000000000E+20
  9
$EXTMAX
 10
-1.000000000000000E+20
 20
-1.000000000000000E+20
 30
-1.000000000000000E+20
  9
$LIMMIN
 10
0.0
 20
0.0
  9
$LIMMAX
 10
12.0
 20
9.0
  9
$ORTHOMODE
 70
     0
  9
$REGENMODE
 70
     1
  9
$FILLMODE
 70
     1
  9
$QTEXTMODE
 70
     0
  9
$MIRRTEXT
 70
     1
  9
$LTSCALE
 40
1.0
  9
$ATTMODE
 70
     1
  9
$TEXTSIZE
 40
0.2
  9
$TRACEWID
 40
0.05
  9
$TEXTSTYLE
  7
Standard
  9
$CLAYER
  8
0
  9
$CELTYPE
  6
ByLayer
  9
$CECOLOR
 62
   256
  9
$CELTSCALE
 40
1.0
  9
$DISPSILH
 70
     0
  9
$DIMSCALE
 40
1.0
  9
$DIMASZ
 40
0.18
  9
$DIMEXO
 40
0.0625
  9
$DIMDLI
 40
0.38
  9
$DIMRND
 40
0.0
  9
$DIMDLE
 40
0.0
  9
$DIMEXE
 40
0.18
  9
$DIMTP
 40
0.0
  9
$DIMTM
 40
0.0
  9
$DIMTXT
 40
0.18
  9
$DIMCEN
 40
0.09
  9
$DIMTSZ
 40
0.0
  9
$DIMTOL
 70
     0
  9
$DIMLIM
 70
     0
  9
$DIMTIH
 70
     1
  9
$DIMTOH
 70
     1
  9
$DIMSE1
 70
     0
  9
$DIMSE2
 70
     0
  9
$DIMTAD
 70
     0
  9
$DIMZIN
 70
     0
  9
$DIMBLK
  1

  9
$DIMASO
 70
     1
  9
$DIMSHO
 70
     1
  9
$DIMPOST
  1

  9
$DIMAPOST
  1

  9
$DIMALT
 70
     0
  9
$DIMALTD
 70
     2
  9
$DIMALTF
 40
25.4
  9
$DIMLFAC
 40
1.0
  9
$DIMTOFL
 70
     0
  9
$DIMTVP
 40
0.0
  9
$DIMTIX
 70
     0
  9
$DIMSOXD
 70
     0
  9
$DIMSAH
 70
     0
  9
$DIMBLK1
  1

  9
$DIMBLK2
  1

  9
$DIMSTYLE
  2
Standard
  9
$DIMCLRD
 70
     0
  9
$DIMCLRE
 70
     0
  9
$DIMCLRT
 70
     0
  9
$DIMTFAC
 40
1.0
  9
$DIMGAP
 40
0.09
  9
$DIMJUST
 70
     0
  9
$DIMSD1
 70
     0
  9
$DIMSD2
 70
     0
  9
$DIMTOLJ
 70
     1
  9
$DIMTZIN
 70
     0
  9
$DIMALTZ
 70
     0
  9
$DIMALTTZ
 70
     0
  9
$DIMUPT
 70
     0
  9
$DIMDEC
 70
     4
  9
$DIMTDEC
 70
     4
  9
$DIMALTU
 70
     2
  9
$DIMALTTD
 70
     2
  9
$DIMTXSTY
  7
Standard
  9
$DIMAUNIT
 70
     0
  9
$DIMADEC
 70
     0
  9
$DIMALTRND
 40
0.0
  9
$DIMAZIN
 70
     0
  9
$DIMDSEP
 70
    46
  9
$DIMATFIT
 70
     3
  9
$DIMFRAC
 70
     0
  9
$DIMLDRBLK
  1

  9
$DIMLUNIT
 70
     2
  9
$DIMLWD
 70
    -2
  9
$DIMLWE
 70
    -2
  9
$DIMTMOVE
 70
     0
  9
$DIMFXL
 40
1.0
  9
$DIMFXLON
 70
     0
  9
$DIMJOGANG
 40
0.7853981633974483
  9
$DIMTFILL
 70
     0
  9
$DIMTFILLCLR
 70
     0
  9
$DIMARCSYM
 70
     0
  9
$DIMLTYPE
  6

  9
$DIMLTEX1
  6

  9
$DIMLTEX2
  6

  9
$DIMTXTDIRECTION
 70
     0
  9
$LUNITS
 70
     2
  9
$LUPREC
 70
     4
  9
$SKETCHINC
 40
0.1
  9
$FILLETRAD
 40
0.5
  9
$AUNITS
 70
     0
  9
$AUPREC
 70
     0
  9
$MENU
  1
.
  9
$ELEVATION
 40
0.0
  9
$PELEVATION
 40
0.0
  9
$THICKNESS
 40
0.0
  9
$LIMCHECK
 70
     0
  9
$CHAMFERA
 40
0.5
  9
$CHAMFERB
 40
0.5
  9
$CHAMFERC
 40
1.0
  9
$CHAMFERD
 40
0.0
  9
$SKPOLY
 70
     0
  9
$TDCREATE
 40
2457704.559687488
  9
$TDUCREATE
 40
2457704.893020833
  9
$TDUPDATE
 40
2457704.559687488
  9
$TDUUPDATE
 40
2457704.893020833
  9
$TDINDWG
 40
0.0000000116
  9
$TDUSRTIMER
 40
0.0000000116
  9
$USRTIMER
 70
     1
  9
$ANGBASE
 50
0.0
  9
$ANGDIR
 70
     0
  9
$PDMODE
 70
     0
  9
$PDSIZE
 40
0.0
  9
$PLINEWID
 40
0.0
  9
$SPLFRAME
 70
     0
  9
$SPLINETYPE
 70
     6
  9
$SPLINESEGS
 70
     8
  9
$HANDSEED
  5
B4
  9
$SURFTAB1
 70
     6
  9
$SURFTAB2
 70
     6
  9
$SURFTYPE
 70
     6
  9
$SURFU
 70
     6
  9
$SURFV
 70
     6
  9
$UCSBASE
  2

  9
$UCSNAME
  2

  9
$UCSORG
 10
0.0
 20
0.0
 30
0.0
  9
$UCSXDIR
 10
1.0
 20
0.0
 30
0.0
  9
$UCSYDIR
 10
0.0
 20
1.0
 30
0.0
  9
$UCSORTHOREF
  2

  9
$UCSORTHOVIEW
 70
     0
  9
$UCSORGTOP
 10
0.0
 20
0.0
 30
0.0
  9
$UCSORGBOTTOM
 10
0.0
 20
0.0
 30
0.0
  9
$UCSORGLEFT
 10
0.0
 20
0.0
 30
0.0
  9
$UCSORGRIGHT
 10
0.0
 20
0.0
 30
0.0
  9
$UCSORGFRONT
 10
0.0
 20
0.0
 30
0.0
  9
$UCSORGBACK
 10
0.0
 20
0.0
 30
0.0
  9
$PUCSBASE
  2

  9
$PUCSNAME
  2

  9
$PUCSORG
 10
0.0
 20
0.0
 30
0.0
  9
$PUCSXDIR
 10
1.0
 20
0.0
 30
0.0
  9
$PUCSYDIR
 10
0.0
 20
1.0
 30
0.0
  9
$PUCSORTHOREF
  2

  9
$PUCSORTHOVIEW
 70
     0
  9
$PUCSORGTOP
 10
0.0
 20
0.0
 30
0.0
  9
$PUCSORGBOTTOM
 10
0.0
 20
0.0
 30
0.0
  9
$PUCSORGLEFT
 10
0.0
 20
0.0
 30
0.0
  9
$PUCSORGRIGHT
 10
0.0
 20
0.0
 30
0.0
  9
$PUCSORGFRONT
 10
0.0
 20
0.0
 30
0.0
  9
$PUCSORGBACK
 10
0.0
 20
0.0
 30
0.0
  9
$USERI1
 70
     0
  9
$USERI2
 70
     0
  9
$USERI3
 70
     0
  9
$USERI4
 70
     0
  9
$USERI5
 70
     0
  9
$USERR1
 40
0.0
  9
$USERR2
 40
0.0
  9
$USERR3
 40
0.0
  9
$USERR4
 40
0.0
  9
$USERR5
 40
0.0
  9
$WORLDVIEW
 70
     1
  9
$SHADEDGE
 70
     3
  9
$SHADEDIF
 70
    70
  9
$TILEMODE
 70
     1
  9
$MAXACTVP
 70
    64
  9
$PINSBASE
 10
0.0
 20
0.0
 30
0.0
  9
$PLIMCHECK
 70
     0
  9
$PEXTMIN
 10
1.000000000000000E+20
 20
1.000000000000000E+20
 30
1.000000000000000E+20
  9
$PEXTMAX
 10
-1.000000000000000E+20
 20
-1.000000000000000E+20
 30
-1.000000000000000E+20
  9
$PLIMMIN
 10
0.0
 20
0.0
  9
$PLIMMAX
 10
12.0
 20
9.0
  9
$UNITMODE
 70
     0
  9
$VISRETAIN
 70
     1
  9
$PLINEGEN
 70
     0
  9
$PSLTSCALE
 70
     1
  9
$TREEDEPTH
 70
  3020
  9
$CMLSTYLE
  2
Standard
  9
$CMLJUST
 70
     0
  9
$CMLSCALE
 40
1.0
  9
$PROXYGRAPHICS
 70
     1
  9
$MEASUREMENT
 70
     0
  9
$CELWEIGHT
370
    -1
  9
$ENDCAPS
280
     0
  9
$JOINSTYLE
280
     0
  9
$LWDISPLAY
290
     1
  9
$INSUNITS
 70
     1
  9
$HYPERLINKBASE
  1

  9
$STYLESHEET
  1

  9
$XEDIT
290
     1
  9
$CEPSNTYPE
380
     0
  9
$PSTYLEMODE
290
     1
  9
$FINGERPRINTGUID
  2
{2348C4CE-965C-8D76-1B8F-307B61D5CDAD}
  9
$VERSIONGUID
  2
{FAEB1C32-E019-11D5-929B-00C0DF256EC4}
  9
$EXTNAMES
290
     1
  9
$PSVPSCALE
 40
0.0
  9
$OLESTARTUP
290
     0
  9
$SORTENTS
280
   127
  9
$INDEXCTL
280
     0
  9
$HIDETEXT
280
     1
  9
$XCLIPFRAME
280
     2
  9
$HALOGAP
280
     0
  9
$OBSCOLOR
 70
   257
  9
$OBSLTYPE
280
     0
  9
$INTERSECTIONDISPLAY
280
     0
  9
$INTERSECTIONCOLOR
 70
   257
  9
$DIMASSOC
280
     2
  9
$PROJECTNAME
  1

  9
$CAMERADISPLAY
290
     0
  9
$LENSLENGTH
 40
50.0
  9
$CAMERAHEIGHT
 40
0.0
  9
$STEPSPERSEC
 40
2.0
  9
$STEPSIZE
 40
6.0
  9
$3DDWFPREC
 40
2.0
  9
$PSOLWIDTH
 40
0.25
  9
$PSOLHEIGHT
 40
4.0
  9
$LOFTANG1
 40
1.570796326794897
  9
$LOFTANG2
 40
1.570796326794897
  9
$LOFTMAG1
 40
0.0
  9
$LOFTMAG2
 40
0.0
  9
$LOFTPARAM
 70
     7
  9
$LOFTNORMALS
280
     1
  9
$LATITUDE
 40
37.795
  9
$LONGITUDE
 40
-122.394
  9
$NORTHDIRECTION
 40
0.0
  9
$TIMEZONE
 70
 -8000
  9
$LIGHTGLYPHDISPLAY
280
     1
  9
$TILEMODELIGHTSYNCH
280
     1
  9
$CMATERIAL
347
3C
  9
$SOLIDHIST
280
     1
  9
$SHOWHIST
280
     1
  9
$DWFFRAME
280
     2
  9
$DGNFRAME
280
     2
  9
$REALWORLDSCALE
290
     1
  9
$INTERFERECOLOR
 62
   256
  9
$CSHADOW
280
     0
  9
$SHADOWPLANELOCATION
 40
0.0
  0
ENDSEC
  0
SECTION
  2
CLASSES
  0
CLASS
  1
ACDBDICTIONARYWDFLT
  2
AcDbDictionaryWithDefault
  3
ObjectDBX Classes
 90
        0
 91
        4
280
     0
281
     0
  0
CLASS
  1
VISUALSTYLE
  2
AcDbVisualStyle
  3
ObjectDBX Classes
 90
     4095
 91
        4
280
     0
281
     0
  0
CLASS
  1
MATERIAL
  2
AcDbMaterial
  3
ObjectDBX Classes
 90
     1153
 91
        4
280
     0
281
     0
  0
CLASS
  1
SUN
  2
AcDbSun
  3
SCENEOE
 90
     1024
 91
        4
280
     0
281
     0
  0
ENDSEC
  0
SECTION
  2
TABLES
  0
TABLE
  2
VPORT
  5
8
330
0
100
AcDbSymbolTable
 70
     1
  0
VPORT
  5
29
330
8
100
AcDbSymbolTableRecord
100
AcDbViewportTableRecord
  2
*Active
 70
     0
 10
0.0
 20
0.0
 11
1.0
 21
1.0
 12
0.0
 22
0.0
 13
0.0
 23
0.0
 14
0.5
 24
0.5
 15
0.5
 25
0.5
 16
0.0
 26
0.0
 36
1.0
 17
6.5
 27
-6.5
 37
0.0
 40
13.0
 41
1.0
 42
50.0
 43
0.0
 44
0.0
 50
0.0
 51
0.0
 71
     0
 72
   100
 73
     1
 74
     3
 75
     0
 76
     0
 77
     0
 78
     0
281
     0
 65
     1
110
0.0
120
0.0
130
0.0
111
1.0
121
0.0
131
0.0
112
0.0
122
1.0
132
0.0
 79
     0
146
0.0
 60
     3
 61
     5
292
     1
282
     1
141
0.0
142
0.0
 63
   250
361
3F
  0
ENDTAB
  0
TABLE
  2
LTYPE
  5
5
330
0
100
AcDbSymbolTable
 70
     1
  0
LTYPE
  5
14
330
5
100
AcDbSymbolTableRecord
100
AcDbLinetypeTableRecord
  2
ByBlock
 70
     0
  3

 72
    65
 73
     0
 40
0.0
  0
LTYPE
  5
15
330
5
100
AcDbSymbolTableRecord
100
AcDbLinetypeTableRecord
  2
ByLayer
 70
     0
  3

 72
    65
 73
     0
 40
0.0
  0
LTYPE
  5
16
330
5
100
AcDbSymbolTableRecord
100
AcDbLinetypeTableRecord
  2
Continuous
 70
     0
  3
Solid line
 72
    65
 73
     0
 40
0.0
  0
ENDTAB
  0
TABLE
  2
LAYER
  5
2
330
0
100
AcDbSymbolTable
 70
     2
  0
LAYER
  5
10
330
2
100
AcDbSymbolTableRecord
100
AcDbLayerTableRecord
  2
0
 70
     0
 62
     7
  6
Continuous
370
    -3
390
F
347
3E
  0
LAYER
  5
40
330
2
100
AcDbSymbolTableRecord
100
AcDbLayerTableRecord
  2
Layer 1
 70
     0
 62
     7
  6
Continuous
370
    -3
390
F
347
3E
  0
ENDTAB
  0
TABLE
  2
STYLE
  5
3
330
0
100
AcDbSymbolTable
 70
     1
  0
STYLE
  5
11
330
3
100
AcDbSymbolTableRecord
100
AcDbTextStyleTableRecord
  2
Standard
 70
     0
 40
0.0
 41
1.0
 50
0.0
 71
     0
 42
0.2
  3
txt
  4

  0
ENDTAB
  0
TABLE
  2
VIEW
  5
6
330
0
100
AcDbSymbolTable
 70
     0
  0
ENDTAB
  0
TABLE
  2
UCS
  5
7
330
0
100
AcDbSymbolTable
 70
     0
  0
ENDTAB
  0
TABLE
  2
APPID
  5
9
330
0
100
AcDbSymbolTable
 70
     1
  0
APPID
  5
12
330
9
100
AcDbSymbolTableRecord
100
AcDbRegAppTableRecord
  2
ACAD
 70
     0
  0
ENDTAB
  0
TABLE
  2
DIMSTYLE
  5
A
330
0
100
AcDbSymbolTable
 70
     1
100
AcDbDimStyleTable
  0
DIMSTYLE
105
27
330
A
100
AcDbSymbolTableRecord
100
AcDbDimStyleTableRecord
  2
Standard
 70
     0
178
     0
340
11
  0
ENDTAB
  0
TABLE
  2
BLOCK_RECORD
  5
1
330
0
100
AcDbSymbolTable
 70
     9
  0
BLOCK_RECORD
  5
1F
330
1
100
AcDbSymbolTableRecord
100
AcDbBlockTableRecord
  2
*Model_Space
340
22
 70
     0
280
     1
281
     0
  0
BLOCK_RECORD
  5
1B
330
1
100
AcDbSymbolTableRecord
100
AcDbBlockTableRecord
  2
*Paper_Space
340
1E
 70
     0
280
     1
281
     0
  0
BLOCK_RECORD
  5
23
330
1
100
AcDbSymbolTableRecord
100
AcDbBlockTableRecord
  2
*Paper_Space0
340
26
 70
     0
280
     1
281
     0
  0
BLOCK_RECORD
  5
41
330
1
100
AcDbSymbolTableRecord
100
AcDbBlockTableRecord
  2
block 2
340
0
102
{BLKREFS
331
42
102
}
 70
     0
280
     1
281
     0
  0
BLOCK_RECORD
  5
53
330
1
100
AcDbSymbolTableRecord
100
AcDbBlockTableRecord
  2
block 3
340
0
102
{BLKREFS
331
54
102
}
 70
     0
280
     1
281
     0
  0
BLOCK_RECORD
  5
64
330
1
100
AcDbSymbolTableRecord
100
AcDbBlockTableRecord
  2
block 4
340
0
102
{BLKREFS
331
65
102
}
 70
     0
280
     1
281
     0
  0
BLOCK_RECORD
  5
68
330
1
100
AcDbSymbolTableRecord
100
AcDbBlockTableRecord
  2
block 5
340
0
102
{BLKREFS
331
69
102
}
 70
     0
280
     1
281
     0
  0
BLOCK_RECORD
  5
6C
330
1
100
AcDbSymbolTableRecord
100
AcDbBlockTableRecord
  2
block 6
340
0
102
{BLKREFS
331
6D
102
}
 70
     0
280
     1
281
     0
  0
BLOCK_RECORD
  5
85
330
1
100
AcDbSymbolTableRecord
100
AcDbBlockTableRecord
  2
block 7
340
0
102
{BLKREFS
331
86
102
}
 70
     0
280
     1
281
     0
  0
BLOCK_RECORD
  5
89
330
1
100
AcDbSymbolTableRecord
100
AcDbBlockTableRecord
  2
block 8
340
0
102
{BLKREFS
331
8A
102
}
 70
     0
280
     1
281
     0
  0
BLOCK_RECORD
  5
8D
330
1
100
AcDbSymbolTableRecord
100
AcDbBlockTableRecord
  2
block 9
340
0
102
{BLKREFS
331
8E
102
}
 70
     0
280
     1
281
     0
  0
ENDTAB
  0
ENDSEC
  0
SECTION
  2
BLOCKS
  0
BLOCK
  5
20
330
1F
100
AcDbEntity
  8
0
100
AcDbBlockBegin
  2
*Model_Space
 70
     0
 10
0.0
 20
0.0
 30
0.0
  3
*Model_Space
  1

  0
ENDBLK
  5
21
330
1F
100
AcDbEntity
  8
0
100
AcDbBlockEnd
  0
BLOCK
  5
1C
330
1B
100
AcDbEntity
 67
     1
  8
0
100
AcDbBlockBegin
  2
*Paper_Space
 70
     0
 10
0.0
 20
0.0
 30
0.0
  3
*Paper_Space
  1

  0
ENDBLK
  5
1D
330
1B
100
AcDbEntity
 67
     1
  8
0
100
AcDbBlockEnd
  0
BLOCK
  5
24
330
23
100
AcDbEntity
  8
0
100
AcDbBlockBegin
  2
*Paper_Space0
 70
     0
 10
0.0
 20
0.0
 30
0.0
  3
*Paper_Space0
  1

  0
ENDBLK
  5
25
330
23
100
AcDbEntity
  8
0
100
AcDbBlockEnd
  0
BLOCK
  5
43
330
41
100
AcDbEntity
  8
0
100
AcDbBlockBegin
  2
block 2
 70
     0
 10
0.0
 20
0.0
 30
0.0
  3
block 2
  1

  0
SPLINE
  5
45
330
41
100
AcDbEntity
  8
Layer 1
 62
   179
420
  2236191
370
     5
100
AcDbSpline
210
0.0
220
0.0
230
1.0
 70
    11
 71
     3
 72
    17
 73
    13
 74
     0
 42
0.0000000001
 43
0.0000000001
 12
1.0
 22
0.0
 32
0.0
 13
1.0
 23
0.0
 33
0.0
 40
0.0
 40
0.0
 40
0.0
 40
0.0
 40
1.0
 40
1.0
 40
1.0
 40
2.0
 40
2.0
 40
2.0
 40
3.0
 40
3.0
 40
3.0
 40
4.0
 40
4.0
 40
4.0
 40
4.0
 10
2.215188584408907
 20
-12.2692945255697
 30
0.0
 10
2.253848516894903
 20
-12.26929452557144
 30
0.0
 10
2.285188584407504
 20
-12.30063459308685
 30
0.0
 10
2.285188584405735
 20
-12.33929452557284
 30
0.0
 10
2.285188584404017
 20
-12.37795445805884
 30
0.0
 10
2.253848516888613
 20
-12.40929452557144
 30
0.0
 10
2.215188584402616
 20
-12.40929452556972
 30
0.0
 10
2.176528651916619
 20
-12.40929452556798
 30
0.0
 10
2.145188584404019
 20
-12.37795445805257
 30
0.0
 10
2.145188584405749
 20
-12.33929452556658
 30
0.0
 10
2.145188584407479
 20
-12.30063459308058
 30
0.0
 10
2.176528651922909
 20
-12.26929452556798
 30
0.0
 10
2.215188584408907
 20
-12.2692945255697
 30
0.0
  0
SPLINE
  5
46
330
41
100
AcDbEntity
  8
Layer 1
 62
   179
420
  2236191
370
     5
100
AcDbSpline
210
0.0
220
0.0
230
1.0
 70
    11
 71
     3
 72
    17
 73
    13
 74
     0
 42
0.0000000001
 43
0.0000000001
 12
1.0
 22
0.0
 32
0.0
 13
1.0
 23
0.0
 33
0.0
 40
0.0
 40
0.0
 40
0.0
 40
0.0
 40
1.0
 40
1.0
 40
1.0
 40
2.0
 40
2.0
 40
2.0
 40
3.0
 40
3.0
 40
3.0
 40
4.0
 40
4.0
 40
4.0
 40
4.0
 10
2.215188584927899
 20
-0.7092945255697032
 30
0.0
 10
2.253848517413897
 20
-0.7092945255714463
 30
0.0
 10
2.285188584926497
 20
-0.7406345930868509
 30
0.0
 10
2.285188584924754
 20
-0.779294525572848
 30
0.0
 10
2.285188584923036
 20
-0.817954458058845
 30
0.0
 10
2.253848517407606
 20
-0.8492945255714706
 30
0.0
 10
2.215188584921596
 20
-0.8492945255697274
 30
0.0
 10
2.176528652435612
 20
-0.8492945255679842
 30
0.0
 10
2.145188584923011
 20
-0.8179544580525544
 30
0.0
 10
2.145188584924755
 20
-0.7792945255665573
 30
0.0
 10
2.145188584926485
 20
-0.7406345930805602
 30
0.0
 10
2.176528652441903
 20
-0.7092945255679599
 30
0.0
 10
2.215188584927899
 20
-0.7092945255697032
 30
0.0
  0
SPLINE
  5
47
330
41
100
AcDbEntity
  8
Layer 1
 62
   179
420
  2236191
370
     5
100
AcDbSpline
210
0.0
220
0.0
230
1.0
 70
    11
 71
     3
 72
    17
 73
    13
 74
     0
 42
0.0000000001
 43
0.0000000001
 12
1.0
 22
0.0
 32
0.0
 13
1.0
 23
0.0
 33
0.0
 40
0.0
 40
0.0
 40
0.0
 40
0.0
 40
1.0
 40
1.0
 40
1.0
 40
2.0
 40
2.0
 40
2.0
 40
3.0
 40
3.0
 40
3.0
 40
4.0
 40
4.0
 40
4.0
 40
4.0
 10
10.77584858440888
 20
-12.26929452595404
 30
0.0
 10
10.81450851689485
 20
-12.26929452595578
 30
0.0
 10
10.8458485844075
 20
-12.30063459347121
 30
0.0
 10
10.84584858440583
 20
-12.33929452595721
 30
0.0
 10
10.84584858440401
 20
-12.3779544584432
 30
0.0
 10
10.81450851688861
 20
-12.4092945259558
 30
0.0
 10
10.77584858440264
 20
-12.40929452595406
 30
0.0
 10
10.73718865191667
 20
-12.40929452595232
 30
0.0
 10
10.70584858440401
 20
-12.37795445843689
 30
0.0
 10
10.70584858440583
 20
-12.33929452595089
 30
0.0
 10
10.7058485844075
 20
-12.30063459346489
 30
0.0
 10
10.73718865192291
 20
-12.26929452595229
 30
0.0
 10
10.77584858440888
 20
-12.26929452595404
 30
0.0
  0
SPLINE
  5
48
330
41
100
AcDbEntity
  8
Layer 1
 62
   179
420
  2236191
370
     5
100
AcDbSpline
210
0.0
220
0.0
230
1.0
 70
    11
 71
     3
 72
    17
 73
    13
 74
     0
 42
0.0000000001
 43
0.0000000001
 12
1.0
 22
0.0
 32
0.0
 13
1.0
 23
0.0
 33
0.0
 40
0.0
 40
0.0
 40
0.0
 40
0.0
 40
1.0
 40
1.0
 40
1.0
 40
2.0
 40
2.0
 40
2.0
 40
3.0
 40
3.0
 40
3.0
 40
4.0
 40
4.0
 40
4.0
 40
4.0
 10
10.77584858492792
 20
-0.7092945259540404
 30
0.0
 10
10.81450851741389
 20
-0.7092945259557837
 30
0.0
 10
10.84584858492652
 20
-0.7406345934711882
 30
0.0
 10
10.84584858492473
 20
-0.7792945259571853
 30
0.0
 10
10.84584858492306
 20
-0.8179544584431824
 30
0.0
 10
10.81450851740763
 20
-0.8492945259558079
 30
0.0
 10
10.77584858492166
 20
-0.8492945259540647
 30
0.0
 10
10.73718865243556
 20
-0.8492945259523215
 30
0.0
 10
10.70584858492306
 20
-0.8179544584369169
 30
0.0
 10
10.70584858492473
 20
-0.7792945259509199
 30
0.0
 10
10.70584858492652
 20
-0.7406345934649228
 30
0.0
 10
10.73718865244195
 20
-0.7092945259522973
 30
0.0
 10
10.77584858492792
 20
-0.7092945259540404
 30
0.0
  0
SPLINE
  5
49
330
41
100
AcDbEntity
  8
Layer 1
 62
   179
420
  2236191
370
     5
100
AcDbSpline
210
0.0
220
0.0
230
1.0
 70
    11
 71
     3
 72
    17
 73
    13
 74
     0
 42
0.0000000001
 43
0.0000000001
 12
1.0
 22
0.0
 32
0.0
 13
1.0
 23
0.0
 33
0.0
 40
0.0
 40
0.0
 40
0.0
 40
0.0
 40
1.0
 40
1.0
 40
1.0
 40
2.0
 40
2.0
 40
2.0
 40
3.0
 40
3.0
 40
3.0
 40
4.0
 40
4.0
 40
4.0
 40
4.0
 10
2.215188584456503
 20
-11.2086345255697
 30
0.0
 10
2.2538485169425
 20
-11.20863452557142
 30
0.0
 10
2.285188584455101
 20
-11.23997459308685
 30
0.0
 10
2.285188584453383
 20
-11.27863452557285
 30
0.0
 10
2.285188584451639
 20
-11.31729445805884
 30
0.0
 10
2.253848516936235
 20
-11.34863452557144
 30
0.0
 10
2.215188584450238
 20
-11.34863452556973
 30
0.0
 10
2.176528651964241
 20
-11.34863452556798
 30
0.0
 10
2.145188584451641
 20
-11.31729445805258
 30
0.0
 10
2.145188584453359
 20
-11.27863452556658
 30
0.0
 10
2.145188584455127
 20
-11.23997459308058
 30
0.0
 10
2.176528651970506
 20
-11.20863452556796
 30
0.0
 10
2.215188584456503
 20
-11.2086345255697
 30
0.0
  0
SPLINE
  5
4A
330
41
100
AcDbEntity
  8
Layer 1
 62
   179
420
  2236191
370
     5
100
AcDbSpline
210
0.0
220
0.0
230
1.0
 70
    11
 71
     3
 72
    17
 73
    13
 74
     0
 42
0.0000000001
 43
0.0000000001
 12
1.0
 22
0.0
 32
0.0
 13
1.0
 23
0.0
 33
0.0
 40
0.0
 40
0.0
 40
0.0
 40
0.0
 40
1.0
 40
1.0
 40
1.0
 40
2.0
 40
2.0
 40
2.0
 40
3.0
 40
3.0
 40
3.0
 40
4.0
 40
4.0
 40
4.0
 40
4.0
 10
2.215188584880277
 20
-1.769954525569713
 30
0.0
 10
2.253848517366274
 20
-1.769954525571443
 30
0.0
 10
2.285188584878874
 20
-1.801294593086848
 30
0.0
 10
2.285188584877131
 20
-1.839954525572845
 30
0.0
 10
2.285188584875388
 20
-1.878614458058842
 30
0.0
 10
2.253848517360009
 20
-1.909954525571468
 30
0.0
 10
2.215188584874025
 20
-1.909954525569724
 30
0.0
 10
2.176528652388015
 20
-1.909954525567981
 30
0.0
 10
2.145188584875427
 20
-1.878614458052551
 30
0.0
 10
2.145188584877133
 20
-1.839954525566554
 30
0.0
 10
2.145188584878876
 20
-1.801294593080557
 30
0.0
 10
2.17652865239428
 20
-1.769954525567957
 30
0.0
 10
2.215188584880277
 20
-1.769954525569713
 30
0.0
  0
SPLINE
  5
4B
330
41
100
AcDbEntity
  8
Layer 1
 62
   179
420
  2236191
370
     5
100
AcDbSpline
210
0.0
220
0.0
230
1.0
 70
    11
 71
     3
 72
    17
 73
    13
 74
     0
 42
0.0000000001
 43
0.0000000001
 12
1.0
 22
0.0
 32
0.0
 13
1.0
 23
0.0
 33
0.0
 40
0.0
 40
0.0
 40
0.0
 40
0.0
 40
1.0
 40
1.0
 40
1.0
 40
2.0
 40
2.0
 40
2.0
 40
3.0
 40
3.0
 40
3.0
 40
4.0
 40
4.0
 40
4.0
 40
4.0
 10
10.77584858445655
 20
-11.20863452595404
 30
0.0
 10
10.8145085169425
 20
-11.20863452595578
 30
0.0
 10
10.84584858445512
 20
-11.23997459347121
 30
0.0
 10
10.84584858445333
 20
-11.27863452595721
 30
0.0
 10
10.84584858445166
 20
-11.31729445844321
 30
0.0
 10
10.81450851693623
 20
-11.34863452595581
 30
0.0
 10
10.77584858445029
 20
-11.34863452595406
 30
0.0
 10
10.73718865196429
 20
-11.34863452595232
 30
0.0
 10
10.70584858445166
 20
-11.31729445843689
 30
0.0
 10
10.70584858445333
 20
-11.27863452595089
 30
0.0
 10
10.70584858445512
 20
-11.2399745934649
 30
0.0
 10
10.73718865197055
 20
-11.2086345259523
 30
0.0
 10
10.77584858445655
 20
-11.20863452595404
 30
0.0
  0
SPLINE
  5
4C
330
41
100
AcDbEntity
  8
Layer 1
 62
   179
420
  2236191
370
     5
100
AcDbSpline
210
0.0
220
0.0
230
1.0
 70
    11
 71
     3
 72
    17
 73
    13
 74
     0
 42
0.0000000001
 43
0.0000000001
 12
1.0
 22
0.0
 32
0.0
 13
1.0
 23
0.0
 33
0.0
 40
0.0
 40
0.0
 40
0.0
 40
0.0
 40
1.0
 40
1.0
 40
1.0
 40
2.0
 40
2.0
 40
2.0
 40
3.0
 40
3.0
 40
3.0
 40
4.0
 40
4.0
 40
4.0
 40
4.0
 10
10.77584858488027
 20
-1.769954525954037
 30
0.0
 10
10.81450851736625
 20
-1.769954525955781
 30
0.0
 10
10.84584858487887
 20
-1.801294593471185
 30
0.0
 10
10.8458485848772
 20
-1.839954525957182
 30
0.0
 10
10.84584858487541
 20
-1.878614458443179
 30
0.0
 10
10.81450851736001
 20
-1.909954525955805
 30
0.0
 10
10.77584858487401
 20
-1.909954525954062
 30
0.0
 10
10.73718865238806
 20
-1.909954525952319
 30
0.0
 10
10.70584858487541
 20
-1.878614458436914
 30
0.0
 10
10.70584858487708
 20
-1.839954525950917
 30
0.0
 10
10.7058485848789
 20
-1.80129459346492
 30
0.0
 10
10.7371886523943
 20
-1.769954525952294
 30
0.0
 10
10.77584858488027
 20
-1.769954525954037
 30
0.0
  0
SPLINE
  5
4D
330
41
100
AcDbEntity
  8
Layer 1
 62
   179
420
  2236191
370
     5
100
AcDbSpline
210
0.0
220
0.0
230
1.0
 70
    11
 71
     3
 72
    23
 73
    19
 74
     0
 42
0.0000000001
 43
0.0000000001
 12
1.0
 22
0.0
 32
0.0
 13
1.0
 23
0.0
 33
0.0
 40
0.0
 40
0.0
 40
0.0
 40
0.0
 40
1.0
 40
1.0
 40
1.0
 40
2.0
 40
2.0
 40
2.0
 40
3.0
 40
3.0
 40
3.0
 40
4.0
 40
4.0
 40
4.0
 40
5.0
 40
5.0
 40
5.0
 40
6.0
 40
6.0
 40
6.0
 40
6.0
 10
11.4955185847729
 20
-4.160689831568056
 30
0.0
 10
11.4955185847729
 20
-4.160689831568056
 30
0.0
 10
11.49551858473708
 20
-4.95789922040467
 30
0.0
 10
11.49551858473708
 20
-4.95789922040467
 30
0.0
 10
11.49551858473471
 20
-5.013898230513228
 30
0.0
 10
11.52350083155152
 20
-5.059294525987625
 30
0.0
 10
11.55801858473263
 20
-5.059294525989167
 30
0.0
 10
11.59253633791359
 20
-5.059294525990708
 30
0.0
 10
11.62051858473471
 20
-5.013898230518836
 30
0.0
 10
11.62051858473708
 20
-4.957899220410278
 30
0.0
 10
11.62051858473708
 20
-4.957899220410278
 30
0.0
 10
11.6205185847729
 20
-4.160689831573665
 30
0.0
 10
11.6205185847729
 20
-4.160689831573665
 30
0.0
 10
11.62051858477556
 20
-4.104690821465106
 30
0.0
 10
11.59253633795846
 20
-4.059294525990721
 30
0.0
 10
11.5580185847775
 20
-4.059294525989167
 30
0.0
 10
11.52350083159639
 20
-4.059294525987626
 30
0.0
 10
11.49551858477556
 20
-4.104690821459497
 30
0.0
 10
11.4955185847729
 20
-4.160689831568056
 30
0.0
  0
SPLINE
  5
4E
330
41
100
AcDbEntity
  8
Layer 1
 62
   179
420
  2236191
370
     5
100
AcDbSpline
210
0.0
220
0.0
230
1.0
 70
    11
 71
     3
 72
    23
 73
    19
 74
     0
 42
0.0000000001
 43
0.0000000001
 12
1.0
 22
0.0
 32
0.0
 13
1.0
 23
0.0
 33
0.0
 40
0.0
 40
0.0
 40
0.0
 40
0.0
 40
1.0
 40
1.0
 40
1.0
 40
2.0
 40
2.0
 40
2.0
 40
3.0
 40
3.0
 40
3.0
 40
4.0
 40
4.0
 40
4.0
 40
5.0
 40
5.0
 40
5.0
 40
6.0
 40
6.0
 40
6.0
 40
6.0
 10
11.49551858459333
 20
-8.160689831568055
 30
0.0
 10
11.49551858459333
 20
-8.160689831568055
 30
0.0
 10
11.49551858455751
 20
-8.95789922040467
 30
0.0
 10
11.49551858455751
 20
-8.95789922040467
 30
0.0
 10
11.495518584555
 20
-9.013898230513227
 30
0.0
 10
11.52350083137195
 20
-9.059294525987626
 30
0.0
 10
11.55801858455306
 20
-9.059294525989166
 30
0.0
 10
11.59253633773402
 20
-9.059294525990708
 30
0.0
 10
11.620518584555
 20
-9.013898230518835
 30
0.0
 10
11.62051858455751
 20
-8.957899220410278
 30
0.0
 10
11.62051858455751
 20
-8.957899220410278
 30
0.0
 10
11.62051858459333
 20
-8.160689831573665
 30
0.0
 10
11.62051858459333
 20
-8.160689831573665
 30
0.0
 10
11.62051858459583
 20
-8.104690821465105
 30
0.0
 10
11.59253633777889
 20
-8.059294525990708
 30
0.0
 10
11.5580185845979
 20
-8.059294525989166
 30
0.0
 10
11.52350083141694
 20
-8.059294525987626
 30
0.0
 10
11.49551858459583
 20
-8.104690821459497
 30
0.0
 10
11.49551858459333
 20
-8.160689831568055
 30
0.0
  0
SPLINE
  5
4F
330
41
100
AcDbEntity
  8
Layer 1
 62
   179
420
  2236191
370
     5
100
AcDbSpline
210
0.0
220
0.0
230
1.0
 70
    11
 71
     3
 72
    23
 73
    19
 74
     0
 42
0.0000000001
 43
0.0000000001
 12
1.0
 22
0.0
 32
0.0
 13
1.0
 23
0.0
 33
0.0
 40
0.0
 40
0.0
 40
0.0
 40
0.0
 40
1.0
 40
1.0
 40
1.0
 40
2.0
 40
2.0
 40
2.0
 40
3.0
 40
3.0
 40
3.0
 40
4.0
 40
4.0
 40
4.0
 40
5.0
 40
5.0
 40
5.0
 40
6.0
 40
6.0
 40
6.0
 40
6.0
 10
9.495518584593329
 20
-8.160689831478269
 30
0.0
 10
9.495518584593329
 20
-8.160689831478269
 30
0.0
 10
9.495518584557505
 20
-8.957899220314882
 30
0.0
 10
9.495518584557505
 20
-8.957899220314882
 30
0.0
 10
9.495518584555004
 20
-9.01389823042344
 30
0.0
 10
9.52350083137195
 20
-9.059294525897839
 30
0.0
 10
9.558018584553059
 20
-9.059294525899379
 30
0.0
 10
9.59253633773402
 20
-9.05929452590092
 30
0.0
 10
9.620518584555004
 20
-9.01389823042905
 30
0.0
 10
9.620518584557505
 20
-8.95789922032049
 30
0.0
 10
9.620518584557505
 20
-8.95789922032049
 30
0.0
 10
9.620518584593329
 20
-8.160689831483877
 30
0.0
 10
9.620518584593329
 20
-8.160689831483877
 30
0.0
 10
9.62051858459583
 20
-8.104690821375318
 30
0.0
 10
9.592536337778887
 20
-8.05929452590092
 30
0.0
 10
9.558018584597903
 20
-8.059294525899379
 30
0.0
 10
9.523500831416943
 20
-8.059294525897839
 30
0.0
 10
9.49551858459583
 20
-8.10469082136971
 30
0.0
 10
9.495518584593329
 20
-8.160689831478269
 30
0.0
  0
SPLINE
  5
50
330
41
100
AcDbEntity
  8
Layer 1
 62
   179
420
  2236191
370
     5
100
AcDbSpline
210
0.0
220
0.0
230
1.0
 70
    11
 71
     3
 72
    23
 73
    19
 74
     0
 42
0.0000000001
 43
0.0000000001
 12
1.0
 22
0.0
 32
0.0
 13
1.0
 23
0.0
 33
0.0
 40
0.0
 40
0.0
 40
0.0
 40
0.0
 40
1.0
 40
1.0
 40
1.0
 40
2.0
 40
2.0
 40
2.0
 40
3.0
 40
3.0
 40
3.0
 40
4.0
 40
4.0
 40
4.0
 40
5.0
 40
5.0
 40
5.0
 40
6.0
 40
6.0
 40
6.0
 40
6.0
 10
9.495518584772904
 20
-4.160689831478268
 30
0.0
 10
9.495518584772904
 20
-4.160689831478268
 30
0.0
 10
9.49551858473708
 20
-4.957899220314882
 30
0.0
 10
9.49551858473708
 20
-4.957899220314882
 30
0.0
 10
9.495518584734706
 20
-5.013898230423441
 30
0.0
 10
9.523500831551523
 20
-5.059294525897839
 30
0.0
 10
9.558018584732634
 20
-5.05929452589938
 30
0.0
 10
9.592536337913593
 20
-5.059294525900921
 30
0.0
 10
9.620518584734706
 20
-5.013898230429049
 30
0.0
 10
9.62051858473708
 20
-4.957899220320491
 30
0.0
 10
9.62051858473708
 20
-4.957899220320491
 30
0.0
 10
9.620518584772904
 20
-4.160689831483877
 30
0.0
 10
9.620518584772904
 20
-4.160689831483877
 30
0.0
 10
9.620518584775557
 20
-4.104690821375319
 30
0.0
 10
9.592536337958462
 20
-4.059294525900921
 30
0.0
 10
9.558018584777502
 20
-4.05929452589938
 30
0.0
 10
9.523500831596392
 20
-4.059294525897851
 30
0.0
 10
9.495518584775557
 20
-4.10469082136971
 30
0.0
 10
9.495518584772904
 20
-4.160689831478268
 30
0.0
  0
SPLINE
  5
51
330
41
100
AcDbEntity
  8
Layer 1
 62
   179
420
  2236191
370
     5
100
AcDbSpline
210
0.0
220
0.0
230
1.0
 70
    11
 71
     3
 72
    23
 73
    19
 74
     0
 42
0.0000000001
 43
0.0000000001
 12
1.0
 22
0.0
 32
0.0
 13
1.0
 23
0.0
 33
0.0
 40
0.0
 40
0.0
 40
0.0
 40
0.0
 40
1.0
 40
1.0
 40
1.0
 40
2.0
 40
2.0
 40
2.0
 40
3.0
 40
3.0
 40
3.0
 40
4.0
 40
4.0
 40
4.0
 40
5.0
 40
5.0
 40
5.0
 40
6.0
 40
6.0
 40
6.0
 40
6.0
 10
9.49551858468347
 20
-6.153745387033823
 30
0.0
 10
9.49551858468347
 20
-6.153745387033823
 30
0.0
 10
9.495518584647646
 20
-6.950954775870438
 30
0.0
 10
9.495518584647646
 20
-6.950954775870438
 30
0.0
 10
9.49551858464512
 20
-7.006953785978996
 30
0.0
 10
9.523500831462089
 20
-7.052350081453394
 30
0.0
 10
9.55801858464305
 20
-7.052350081454935
 30
0.0
 10
9.592536337824159
 20
-7.052350081456476
 30
0.0
 10
9.62051858464512
 20
-7.006953785984605
 30
0.0
 10
9.620518584647646
 20
-6.950954775876046
 30
0.0
 10
9.620518584647646
 20
-6.950954775876046
 30
0.0
 10
9.62051858468347
 20
-6.153745387039432
 30
0.0
 10
9.62051858468347
 20
-6.153745387039432
 30
0.0
 10
9.620518584685971
 20
-6.097746376930874
 30
0.0
 10
9.592536337869028
 20
-6.052350081456476
 30
0.0
 10
9.558018584688044
 20
-6.052350081454935
 30
0.0
 10
9.523500831506933
 20
-6.052350081453394
 30
0.0
 10
9.495518584685971
 20
-6.097746376925266
 30
0.0
 10
9.49551858468347
 20
-6.153745387033823
 30
0.0
  0
SPLINE
  5
52
330
41
100
AcDbEntity
  8
Layer 1
 62
   179
420
  2236191
370
     5
100
AcDbSpline
210
0.0
220
0.0
230
1.0
 70
    11
 71
     3
 72
    23
 73
    19
 74
     0
 42
0.0000000001
 43
0.0000000001
 12
1.0
 22
0.0
 32
0.0
 13
1.0
 23
0.0
 33
0.0
 40
0.0
 40
0.0
 40
0.0
 40
0.0
 40
1.0
 40
1.0
 40
1.0
 40
2.0
 40
2.0
 40
2.0
 40
3.0
 40
3.0
 40
3.0
 40
4.0
 40
4.0
 40
4.0
 40
5.0
 40
5.0
 40
5.0
 40
6.0
 40
6.0
 40
6.0
 40
6.0
 10
11.49551858468319
 20
-6.160689831568056
 30
0.0
 10
11.49551858468319
 20
-6.160689831568056
 30
0.0
 10
11.49551858464734
 20
-6.95789922040467
 30
0.0
 10
11.49551858464734
 20
-6.95789922040467
 30
0.0
 10
11.49551858464487
 20
-7.013898230513227
 30
0.0
 10
11.52350083146179
 20
-7.059294525987625
 30
0.0
 10
11.55801858464277
 20
-7.059294525989166
 30
0.0
 10
11.59253633782388
 20
-7.059294525990708
 30
0.0
 10
11.62051858464487
 20
-7.013898230518836
 30
0.0
 10
11.62051858464734
 20
-6.957899220410278
 30
0.0
 10
11.62051858464734
 20
-6.957899220410278
 30
0.0
 10
11.62051858468319
 20
-6.160689831573664
 30
0.0
 10
11.62051858468319
 20
-6.160689831573664
 30
0.0
 10
11.62051858468569
 20
-6.104690821465106
 30
0.0
 10
11.59253633786875
 20
-6.059294525990708
 30
0.0
 10
11.55801858468777
 20
-6.059294525989167
 30
0.0
 10
11.52350083150665
 20
-6.059294525987625
 30
0.0
 10
11.49551858468569
 20
-6.104690821459497
 30
0.0
 10
11.49551858468319
 20
-6.160689831568056
 30
0.0
  0
INSERT
  5
54
330
41
100
AcDbEntity
  8
Layer 1
100
AcDbBlockReference
  2
block 3
 10
0.0
 20
0.0
 30
0.0
  0
SPLINE
  5
5B
330
41
100
AcDbEntity
  8
Layer 1
 62
   179
420
  2236191
370
     5
100
AcDbSpline
210
0.0
220
0.0
230
1.0
 70
    11
 71
     3
 72
    23
 73
    19
 74
     0
 42
0.0000000001
 43
0.0000000001
 12
1.0
 22
0.0
 32
0.0
 13
1.0
 23
0.0
 33
0.0
 40
0.0
 40
0.0
 40
0.0
 40
0.0
 40
1.0
 40
1.0
 40
1.0
 40
2.0
 40
2.0
 40
2.0
 40
3.0
 40
3.0
 40
3.0
 40
4.0
 40
4.0
 40
4.0
 40
5.0
 40
5.0
 40
5.0
 40
6.0
 40
6.0
 40
6.0
 40
6.0
 10
10.2707672842386
 20
-9.781285232327946
 30
0.0
 10
10.27076728423165
 20
-9.937191488921977
 30
0.0
 10
10.39626483909193
 20
-10.06357859747168
 30
0.0
 10
10.55107377661903
 20
-10.06357859747865
 30
0.0
 10
10.55107377661903
 20
-10.06357859747865
 30
0.0
 10
11.3858899367982
 20
-10.06357859751612
 30
0.0
 10
11.3858899367982
 20
-10.06357859751612
 30
0.0
 10
11.54069887432542
 20
-10.06357859752307
 30
0.0
 10
11.66619642919697
 20
-9.937191488984631
 30
0.0
 10
11.66619642920389
 20
-9.7812852323906
 30
0.0
 10
11.66619642921096
 20
-9.625378975796567
 30
0.0
 10
11.54069887435068
 20
-9.498991867246861
 30
0.0
 10
11.38588993682346
 20
-9.498991867239889
 30
0.0
 10
11.38588993682346
 20
-9.498991867239889
 30
0.0
 10
10.55107377664444
 20
-9.498991867202397
 30
0.0
 10
10.55107377664444
 20
-9.498991867202397
 30
0.0
 10
10.39626483911722
 20
-9.498991867195475
 30
0.0
 10
10.27076728424569
 20
-9.625378975733913
 30
0.0
 10
10.2707672842386
 20
-9.781285232327946
 30
0.0
  0
SPLINE
  5
5C
330
41
100
AcDbEntity
  8
Layer 1
 62
   179
420
  2236191
370
     5
100
AcDbSpline
210
0.0
220
0.0
230
1.0
 70
    11
 71
     3
 72
    23
 73
    19
 74
     0
 42
0.0000000001
 43
0.0000000001
 12
1.0
 22
0.0
 32
0.0
 13
1.0
 23
0.0
 33
0.0
 40
0.0
 40
0.0
 40
0.0
 40
0.0
 40
1.0
 40
1.0
 40
1.0
 40
2.0
 40
2.0
 40
2.0
 40
3.0
 40
3.0
 40
3.0
 40
4.0
 40
4.0
 40
4.0
 40
5.0
 40
5.0
 40
5.0
 40
6.0
 40
6.0
 40
6.0
 40
6.0
 10
3.657556208221801
 20
-6.552350020434081
 30
0.0
 10
3.713807709000978
 20
-6.552350020441584
 30
0.0
 10
3.759408602069723
 20
-6.462623448450889
 30
0.0
 10
3.759408602077226
 20
-6.351940214075334
 30
0.0
 10
3.759408602077226
 20
-6.351940214075334
 30
0.0
 10
3.759408602117635
 20
-5.755074463340659
 30
0.0
 10
3.759408602117635
 20
-5.755074463340659
 30
0.0
 10
3.759408602125126
 20
-5.644391228965105
 30
0.0
 10
3.713807709068457
 20
-5.554664656962258
 30
0.0
 10
3.657556208289432
 20
-5.554664656954754
 30
0.0
 10
3.60130470751028
 20
-5.554664656947251
 30
0.0
 10
3.55570381444151
 20
-5.644391228937971
 30
0.0
 10
3.555703814434032
 20
-5.755074463313551
 30
0.0
 10
3.555703814434032
 20
-5.755074463313551
 30
0.0
 10
3.555703814393622
 20
-6.351940214048176
 30
0.0
 10
3.555703814393622
 20
-6.351940214048176
 30
0.0
 10
3.555703814386106
 20
-6.462623448423756
 30
0.0
 10
3.601304707442624
 20
-6.552350020426602
 30
0.0
 10
3.657556208221801
 20
-6.552350020434081
 30
0.0
  0
SPLINE
  5
5D
330
41
100
AcDbEntity
  8
Layer 1
 62
   179
420
  2236191
370
     5
100
AcDbSpline
210
0.0
220
0.0
230
1.0
 70
    11
 71
     3
 72
    23
 73
    19
 74
     0
 42
0.0000000001
 43
0.0000000001
 12
1.0
 22
0.0
 32
0.0
 13
1.0
 23
0.0
 33
0.0
 40
0.0
 40
0.0
 40
0.0
 40
0.0
 40
1.0
 40
1.0
 40
1.0
 40
2.0
 40
2.0
 40
2.0
 40
3.0
 40
3.0
 40
3.0
 40
4.0
 40
4.0
 40
4.0
 40
5.0
 40
5.0
 40
5.0
 40
6.0
 40
6.0
 40
6.0
 40
6.0
 10
3.65755620828736
 20
-5.092681193861558
 30
0.0
 10
3.713807709066511
 20
-5.092681193869035
 30
0.0
 10
3.759408602135282
 20
-5.00295462187834
 30
0.0
 10
3.75940860214276
 20
-4.892271387502786
 30
0.0
 10
3.75940860214276
 20
-4.892271387502786
 30
0.0
 10
3.759408602183182
 20
-4.295405636768111
 30
0.0
 10
3.759408602183182
 20
-4.295405636768111
 30
0.0
 10
3.759408602190685
 20
-4.184722402392556
 30
0.0
 10
3.713807709134016
 20
-4.094995830389709
 30
0.0
 10
3.657556208354865
 20
-4.094995830382206
 30
0.0
 10
3.601304707575688
 20
-4.094995830374702
 30
0.0
 10
3.555703814507069
 20
-4.184722402365423
 30
0.0
 10
3.555703814499566
 20
-4.295405636741003
 30
0.0
 10
3.555703814499566
 20
-4.295405636741003
 30
0.0
 10
3.555703814459169
 20
-4.892271387475628
 30
0.0
 10
3.555703814459169
 20
-4.892271387475628
 30
0.0
 10
3.555703814451514
 20
-5.002954621851207
 30
0.0
 10
3.601304707508183
 20
-5.092681193854029
 30
0.0
 10
3.65755620828736
 20
-5.092681193861558
 30
0.0
  0
SPLINE
  5
5E
330
41
100
AcDbEntity
  8
Layer 1
 62
   179
420
  2236191
370
     5
100
AcDbSpline
210
0.0
220
0.0
230
1.0
 70
    11
 71
     3
 72
    23
 73
    19
 74
     0
 42
0.0000000001
 43
0.0000000001
 12
1.0
 22
0.0
 32
0.0
 13
1.0
 23
0.0
 33
0.0
 40
0.0
 40
0.0
 40
0.0
 40
0.0
 40
1.0
 40
1.0
 40
1.0
 40
2.0
 40
2.0
 40
2.0
 40
3.0
 40
3.0
 40
3.0
 40
4.0
 40
4.0
 40
4.0
 40
5.0
 40
5.0
 40
5.0
 40
6.0
 40
6.0
 40
6.0
 40
6.0
 10
5.222370436645279
 20
-3.705822030768988
 30
0.0
 10
5.222370436634302
 20
-3.949620000491172
 30
0.0
 10
5.444709095018323
 20
-4.147257485585164
 30
0.0
 10
5.718977478285397
 20
-4.14725748559748
 30
0.0
 10
5.718977478285397
 20
-4.14725748559748
 30
0.0
 10
7.197985617187643
 20
-4.147257485663886
 30
0.0
 10
7.197985617187643
 20
-4.147257485663886
 30
0.0
 10
7.472254000454718
 20
-4.147257485676189
 30
0.0
 10
7.694592658856512
 20
-3.949620000602168
 30
0.0
 10
7.694592658867501
 20
-3.705822030879984
 30
0.0
 10
7.69459265887834
 20
-3.462024061157775
 30
0.0
 10
7.472254000494305
 20
-3.264386576063771
 30
0.0
 10
7.197985617227206
 20
-3.264386576051467
 30
0.0
 10
7.197985617227206
 20
-3.264386576051467
 30
0.0
 10
5.718977478324986
 20
-3.264386575985074
 30
0.0
 10
5.718977478324986
 20
-3.264386575985074
 30
0.0
 10
5.444709095057911
 20
-3.264386575972746
 30
0.0
 10
5.222370436656117
 20
-3.462024061046779
 30
0.0
 10
5.222370436645279
 20
-3.705822030768988
 30
0.0
  0
SPLINE
  5
5F
330
41
100
AcDbEntity
  8
Layer 1
 62
   179
420
  2236191
370
     5
100
AcDbSpline
210
0.0
220
0.0
230
1.0
 70
    11
 71
     3
 72
    23
 73
    19
 74
     0
 42
0.0000000001
 43
0.0000000001
 12
1.0
 22
0.0
 32
0.0
 13
1.0
 23
0.0
 33
0.0
 40
0.0
 40
0.0
 40
0.0
 40
0.0
 40
1.0
 40
1.0
 40
1.0
 40
2.0
 40
2.0
 40
2.0
 40
3.0
 40
3.0
 40
3.0
 40
4.0
 40
4.0
 40
4.0
 40
5.0
 40
5.0
 40
5.0
 40
6.0
 40
6.0
 40
6.0
 40
6.0
 10
2.360518584629441
 20
-6.27538097216878
 30
0.0
 10
2.567625280864301
 20
-6.275380972187374
 30
0.0
 10
2.735518584644574
 20
-6.107487668437266
 30
0.0
 10
2.735518584663042
 20
-5.900380972202456
 30
0.0
 10
2.735518584663042
 20
-5.900380972202456
 30
0.0
 10
2.735518584763339
 20
-4.783546119771901
 30
0.0
 10
2.735518584763339
 20
-4.783546119771901
 30
0.0
 10
2.735518584781933
 20
-4.57643942353708
 30
0.0
 10
2.567625281031799
 20
-4.408546119756819
 30
0.0
 10
2.360518584797041
 20
-4.408546119738225
 30
0.0
 10
2.153411888562257
 20
-4.408546119719643
 30
0.0
 10
1.985518584781984
 20
-4.576439423469751
 30
0.0
 10
1.98551858476339
 20
-4.783546119704548
 30
0.0
 10
1.98551858476339
 20
-4.783546119704548
 30
0.0
 10
1.985518584663118
 20
-5.900380972135104
 30
0.0
 10
1.985518584663118
 20
-5.900380972135104
 30
0.0
 10
1.985518584644524
 20
-6.107487668369913
 30
0.0
 10
2.153411888394632
 20
-6.275380972150211
 30
0.0
 10
2.360518584629441
 20
-6.27538097216878
 30
0.0
  0
SPLINE
  5
60
330
41
100
AcDbEntity
  8
Layer 1
 62
   179
420
  2236191
370
     5
100
AcDbSpline
210
0.0
220
0.0
230
1.0
 70
    11
 71
     3
 72
    23
 73
    19
 74
     0
 42
0.0000000001
 43
0.0000000001
 12
1.0
 22
0.0
 32
0.0
 13
1.0
 23
0.0
 33
0.0
 40
0.0
 40
0.0
 40
0.0
 40
0.0
 40
1.0
 40
1.0
 40
1.0
 40
2.0
 40
2.0
 40
2.0
 40
3.0
 40
3.0
 40
3.0
 40
4.0
 40
4.0
 40
4.0
 40
5.0
 40
5.0
 40
5.0
 40
6.0
 40
6.0
 40
6.0
 40
6.0
 10
10.42893601079681
 20
-7.492711951507393
 30
0.0
 10
10.63604270703152
 20
-7.492711951525987
 30
0.0
 10
10.80393601081179
 20
-7.324818647775878
 30
0.0
 10
10.80393601083041
 20
-7.117711951541069
 30
0.0
 10
10.80393601083041
 20
-7.117711951541069
 30
0.0
 10
10.80393601093068
 20
-6.000877099110489
 30
0.0
 10
10.80393601093068
 20
-6.000877099110489
 30
0.0
 10
10.8039360109493
 20
-5.79377040287568
 30
0.0
 10
10.63604270719917
 20
-5.625877099095431
 30
0.0
 10
10.42893601096431
 20
-5.625877099076837
 30
0.0
 10
10.22182931472958
 20
-5.625877099058243
 30
0.0
 10
10.0539360109493
 20
-5.793770402808351
 30
0.0
 10
10.05393601093068
 20
-6.00087709904316
 30
0.0
 10
10.05393601093068
 20
-6.00087709904316
 30
0.0
 10
10.05393601083041
 20
-7.117711951473691
 30
0.0
 10
10.05393601083041
 20
-7.117711951473691
 30
0.0
 10
10.05393601081179
 20
-7.3248186477085
 30
0.0
 10
10.22182931456192
 20
-7.492711951488799
 30
0.0
 10
10.42893601079681
 20
-7.492711951507393
 30
0.0
  0
SPLINE
  5
61
330
41
100
AcDbEntity
  8
Layer 1
 62
   179
420
  2236191
370
     5
100
AcDbSpline
210
0.0
220
0.0
230
1.0
 70
    11
 71
     3
 72
    17
 73
    13
 74
     0
 42
0.0000000001
 43
0.0000000001
 12
1.0
 22
0.0
 32
0.0
 13
1.0
 23
0.0
 33
0.0
 40
0.0
 40
0.0
 40
0.0
 40
0.0
 40
1.0
 40
1.0
 40
1.0
 40
2.0
 40
2.0
 40
2.0
 40
3.0
 40
3.0
 40
3.0
 40
4.0
 40
4.0
 40
4.0
 40
4.0
 10
10.70584858961277
 20
-2.43079825007894
 30
0.0
 10
10.83563550581569
 20
-2.430798250084775
 30
0.0
 10
10.94084858960804
 20
-2.5360113338865
 30
0.0
 10
10.94084858960221
 20
-2.665798250089501
 30
0.0
 10
10.94084858959637
 20
-2.795585166292502
 30
0.0
 10
10.83563550579457
 20
-2.900798250084777
 30
0.0
 10
10.70584858959167
 20
-2.900798250078942
 30
0.0
 10
10.5760616733886
 20
-2.900798250073118
 30
0.0
 10
10.47084858959637
 20
-2.795585166271394
 30
0.0
 10
10.47084858960223
 20
-2.665798250068393
 30
0.0
 10
10.47084858960804
 20
-2.536011333865392
 30
0.0
 10
10.57606167340971
 20
-2.430798250073116
 30
0.0
 10
10.70584858961277
 20
-2.43079825007894
 30
0.0
  0
SPLINE
  5
62
330
41
100
AcDbEntity
  8
Layer 1
 62
   179
420
  2236191
370
     5
100
AcDbSpline
210
0.0
220
0.0
230
1.0
 70
    11
 71
     3
 72
    41
 73
    37
 74
     0
 42
0.0000000001
 43
0.0000000001
 12
1.0
 22
0.0
 32
0.0
 13
1.0
 23
0.0
 33
0.0
 40
0.0
 40
0.0
 40
0.0
 40
0.0
 40
1.0
 40
1.0
 40
1.0
 40
2.0
 40
2.0
 40
2.0
 40
3.0
 40
3.0
 40
3.0
 40
4.0
 40
4.0
 40
4.0
 40
5.0
 40
5.0
 40
5.0
 40
6.0
 40
6.0
 40
6.0
 40
7.0
 40
7.0
 40
7.0
 40
8.0
 40
8.0
 40
8.0
 40
9.0
 40
9.0
 40
9.0
 40
10.0
 40
10.0
 40
10.0
 40
11.0
 40
11.0
 40
11.0
 40
12.0
 40
12.0
 40
12.0
 40
12.0
 10
4.24551858445875
 20
-11.16024474815056
 30
0.0
 10
4.24551858445875
 20
-11.16024474815056
 30
0.0
 10
4.245518584431112
 20
-11.77429452551483
 30
0.0
 10
4.245518584431112
 20
-11.77429452551483
 30
0.0
 10
4.245518584431112
 20
-11.77429452551483
 30
0.0
 10
4.2455185844036
 20
-12.3883443028791
 30
0.0
 10
4.2455185844036
 20
-12.3883443028791
 30
0.0
 10
4.2455185844036
 20
-12.3883443028791
 30
0.0
 10
4.245518584395819
 20
-12.55929452551484
 30
0.0
 10
4.245518584395819
 20
-12.55929452551484
 30
0.0
 10
4.245518584395819
 20
-12.55929452551484
 30
0.0
 10
4.468046038266796
 20
-12.55929452552482
 30
0.0
 10
4.468046038266796
 20
-12.55929452552482
 30
0.0
 10
4.468046038266796
 20
-12.55929452552482
 30
0.0
 10
8.522991130524991
 20
-12.55929452570687
 30
0.0
 10
8.522991130524991
 20
-12.55929452570687
 30
0.0
 10
8.522991130524991
 20
-12.55929452570687
 30
0.0
 10
8.745518584395818
 20
-12.55929452571685
 30
0.0
 10
8.745518584395818
 20
-12.55929452571685
 30
0.0
 10
8.745518584395818
 20
-12.55929452571685
 30
0.0
 10
8.7455185844036
 20
-12.38834430308111
 30
0.0
 10
8.7455185844036
 20
-12.38834430308111
 30
0.0
 10
8.7455185844036
 20
-12.38834430308111
 30
0.0
 10
8.745518584431112
 20
-11.77429452571684
 30
0.0
 10
8.745518584431112
 20
-11.77429452571684
 30
0.0
 10
8.745518584431112
 20
-11.77429452571684
 30
0.0
 10
8.74551858445875
 20
-11.1602447483526
 30
0.0
 10
8.74551858445875
 20
-11.1602447483526
 30
0.0
 10
8.745518584462918
 20
-11.06622247370206
 30
0.0
 10
8.645380777491255
 20
-10.98929452571237
 30
0.0
 10
8.522991130595402
 20
-10.98929452570688
 30
0.0
 10
8.522991130595402
 20
-10.98929452570688
 30
0.0
 10
4.468046038337219
 20
-10.98929452552483
 30
0.0
 10
4.468046038337219
 20
-10.98929452552483
 30
0.0
 10
4.345656391441531
 20
-10.98929452551933
 30
0.0
 10
4.245518584462919
 20
-11.06622247350002
 30
0.0
 10
4.24551858445875
 20
-11.16024474815056
 30
0.0
  0
SPLINE
  5
63
330
41
100
AcDbEntity
  8
Layer 1
 62
   179
420
  2236191
370
     5
100
AcDbSpline
210
0.0
220
0.0
230
1.0
 70
    11
 71
     3
 72
    41
 73
    37
 74
     0
 42
0.0000000001
 43
0.0000000001
 12
1.0
 22
0.0
 32
0.0
 13
1.0
 23
0.0
 33
0.0
 40
0.0
 40
0.0
 40
0.0
 40
0.0
 40
1.0
 40
1.0
 40
1.0
 40
2.0
 40
2.0
 40
2.0
 40
3.0
 40
3.0
 40
3.0
 40
4.0
 40
4.0
 40
4.0
 40
5.0
 40
5.0
 40
5.0
 40
6.0
 40
6.0
 40
6.0
 40
7.0
 40
7.0
 40
7.0
 40
8.0
 40
8.0
 40
8.0
 40
9.0
 40
9.0
 40
9.0
 40
10.0
 40
10.0
 40
10.0
 40
11.0
 40
11.0
 40
11.0
 40
12.0
 40
12.0
 40
12.0
 40
12.0
 10
4.245518584926938
 20
-0.7302447484404789
 30
0.0
 10
4.245518584926938
 20
-0.7302447484404789
 30
0.0
 10
4.245518584910542
 20
-1.095888570021745
 30
0.0
 10
4.245518584910542
 20
-1.095888570021745
 30
0.0
 10
4.245518584910542
 20
-1.095888570021745
 30
0.0
 10
4.245518584871787
 20
-1.958344303168979
 30
0.0
 10
4.245518584871787
 20
-1.958344303168979
 30
0.0
 10
4.245518584867644
 20
-2.052366577819536
 30
0.0
 10
4.345656391839308
 20
-2.129294525809226
 30
0.0
 10
4.468046038734997
 20
-2.129294525814708
 30
0.0
 10
4.468046038734997
 20
-2.129294525814708
 30
0.0
 10
8.52299113099318
 20
-2.129294525996796
 30
0.0
 10
8.52299113099318
 20
-2.129294525996796
 30
0.0
 10
8.645380777889033
 20
-2.129294526002266
 30
0.0
 10
8.745518584867643
 20
-2.05236657802157
 30
0.0
 10
8.745518584871787
 20
-1.958344303371026
 30
0.0
 10
8.745518584871787
 20
-1.958344303371026
 30
0.0
 10
8.745518584910542
 20
-1.09588857022378
 30
0.0
 10
8.745518584910542
 20
-1.09588857022378
 30
0.0
 10
8.745518584910542
 20
-1.09588857022378
 30
0.0
 10
8.745518584926938
 20
-0.7302447486425131
 30
0.0
 10
8.745518584926938
 20
-0.7302447486425131
 30
0.0
 10
8.745518584926938
 20
-0.7302447486425131
 30
0.0
 10
8.745518584934567
 20
-0.559294526006776
 30
0.0
 10
8.745518584934567
 20
-0.559294526006776
 30
0.0
 10
8.745518584934567
 20
-0.559294526006776
 30
0.0
 10
8.52299113106374
 20
-0.5592945259967969
 30
0.0
 10
8.52299113106374
 20
-0.5592945259967969
 30
0.0
 10
8.52299113106374
 20
-0.5592945259967969
 30
0.0
 10
4.468046038805546
 20
-0.559294525814721
 30
0.0
 10
4.468046038805546
 20
-0.559294525814721
 30
0.0
 10
4.468046038805546
 20
-0.559294525814721
 30
0.0
 10
4.24551858493458
 20
-0.5592945258047418
 30
0.0
 10
4.24551858493458
 20
-0.5592945258047418
 30
0.0
 10
4.24551858493458
 20
-0.5592945258047418
 30
0.0
 10
4.245518584926938
 20
-0.7302447484404789
 30
0.0
 10
4.245518584926938
 20
-0.7302447484404789
 30
0.0
  0
INSERT
  5
65
330
41
100
AcDbEntity
  8
Layer 1
100
AcDbBlockReference
  2
block 4
 10
0.0
 20
0.0
 30
0.0
  0
POLYLINE
  5
74
330
41
100
AcDbEntity
  8
Layer 1
 62
   179
420
  2236191
370
     5
100
AcDb2dPolyline
 66
     1
 10
0.0
 20
0.0
 30
0.0
  0
VERTEX
  5
75
330
74
100
AcDbEntity
  8
Layer 1
 62
   179
420
  2236191
370
     5
100
AcDbVertex
100
AcDb2dVertex
 10
0.9955185843958689
 20
-12.55929452551494
 30
0.0
  0
VERTEX
  5
76
330
74
100
AcDbEntity
  8
Layer 1
 62
   179
420
  2236191
370
     5
100
AcDbVertex
100
AcDb2dVertex
 10
0.9955185849346435
 20
-0.5592945255149414
 30
0.0
  0
SEQEND
  5
77
330
74
100
AcDbEntity
  8
Layer 1
 62
   179
420
  2236191
370
     5
  0
POLYLINE
  5
78
330
41
100
AcDbEntity
  8
Layer 1
 62
   179
420
  2236191
370
     5
100
AcDb2dPolyline
 66
     1
 10
0.0
 20
0.0
 30
0.0
  0
VERTEX
  5
79
330
78
100
AcDbEntity
  8
Layer 1
 62
   179
420
  2236191
370
     5
100
AcDbVertex
100
AcDb2dVertex
 10
0.9955185849346435
 20
-0.5592945255149414
 30
0.0
  0
VERTEX
  5
7A
330
78
100
AcDbEntity
  8
Layer 1
 62
   179
420
  2236191
370
     5
100
AcDbVertex
100
AcDb2dVertex
 10
11.99551858493457
 20
-0.5592945260088223
 30
0.0
  0
SEQEND
  5
7B
330
78
100
AcDbEntity
  8
Layer 1
 62
   179
420
  2236191
370
     5
  0
POLYLINE
  5
7C
330
41
100
AcDbEntity
  8
Layer 1
 62
   179
420
  2236191
370
     5
100
AcDb2dPolyline
 66
     1
 10
0.0
 20
0.0
 30
0.0
  0
VERTEX
  5
7D
330
7C
100
AcDbEntity
  8
Layer 1
 62
   179
420
  2236191
370
     5
100
AcDbVertex
100
AcDb2dVertex
 10
11.99551858493457
 20
-0.5592945260088223
 30
0.0
  0
VERTEX
  5
7E
330
7C
100
AcDbEntity
  8
Layer 1
 62
   179
420
  2236191
370
     5
100
AcDbVertex
100
AcDb2dVertex
 10
11.99551858439582
 20
-12.5592945260088
 30
0.0
  0
SEQEND
  5
7F
330
7C
100
AcDbEntity
  8
Layer 1
 62
   179
420
  2236191
370
     5
  0
POLYLINE
  5
80
330
41
100
AcDbEntity
  8
Layer 1
 62
   179
420
  2236191
370
     5
100
AcDb2dPolyline
 66
     1
 10
0.0
 20
0.0
 30
0.0
  0
VERTEX
  5
81
330
80
100
AcDbEntity
  8
Layer 1
 62
   179
420
  2236191
370
     5
100
AcDbVertex
100
AcDb2dVertex
 10
11.99551858439582
 20
-12.5592945260088
 30
0.0
  0
VERTEX
  5
82
330
80
100
AcDbEntity
  8
Layer 1
 62
   179
420
  2236191
370
     5
100
AcDbVertex
100
AcDb2dVertex
 10
0.9955185843958689
 20
-12.55929452551494
 30
0.0
  0
SEQEND
  5
83
330
80
100
AcDbEntity
  8
Layer 1
 62
   179
420
  2236191
370
     5
  0
SPLINE
  5
84
330
41
100
AcDbEntity
  8
Layer 1
 62
   179
420
  2236191
370
     5
100
AcDbSpline
210
0.0
220
0.0
230
1.0
 70
    11
 71
     3
 72
    17
 73
    13
 74
     0
 42
0.0000000001
 43
0.0000000001
 12
1.0
 22
0.0
 32
0.0
 13
1.0
 23
0.0
 33
0.0
 40
0.0
 40
0.0
 40
0.0
 40
0.0
 40
1.0
 40
1.0
 40
1.0
 40
2.0
 40
2.0
 40
2.0
 40
3.0
 40
3.0
 40
3.0
 40
4.0
 40
4.0
 40
4.0
 40
4.0
 10
9.412185260742918
 20
-10.23803271689791
 30
0.0
 10
9.48011628496834
 20
-10.23803271690094
 30
0.0
 10
9.535185260740414
 20
-10.29310169267801
 30
0.0
 10
9.535185260737357
 20
-10.36103271690341
 30
0.0
 10
9.5351852607343
 20
-10.42896374112881
 30
0.0
 10
9.480116284957223
 20
-10.48403271690093
 30
0.0
 10
9.41218526073193
 20
-10.4840327168979
 30
0.0
 10
9.344254236506533
 20
-10.48403271689484
 30
0.0
 10
9.289185260734307
 20
-10.42896374111777
 30
0.0
 10
9.289185260737364
 20
-10.36103271689237
 30
0.0
 10
9.289185260740421
 20
-10.29310169266697
 30
0.0
 10
9.344254236517498
 20
-10.23803271689485
 30
0.0
 10
9.412185260742918
 20
-10.23803271689791
 30
0.0
  0
INSERT
  5
86
330
41
100
AcDbEntity
  8
Layer 1
100
AcDbBlockReference
  2
block 7
 10
0.0
 20
0.0
 30
0.0
  0
SPLINE
  5
96
330
41
100
AcDbEntity
  8
Layer 1
 62
   179
420
  2236191
370
     5
100
AcDbSpline
210
0.0
220
0.0
230
1.0
 70
    11
 71
     3
 72
    17
 73
    13
 74
     0
 42
0.0000000001
 43
0.0000000001
 12
1.0
 22
0.0
 32
0.0
 13
1.0
 23
0.0
 33
0.0
 40
0.0
 40
0.0
 40
0.0
 40
0.0
 40
1.0
 40
1.0
 40
1.0
 40
2.0
 40
2.0
 40
2.0
 40
3.0
 40
3.0
 40
3.0
 40
4.0
 40
4.0
 40
4.0
 40
4.0
 10
9.41218524888624
 20
-2.638405630421011
 30
0.0
 10
9.480116273111662
 20
-2.638405630424068
 30
0.0
 10
9.535185248883737
 20
-2.693474606201157
 30
0.0
 10
9.53518524888068
 20
-2.761405630426541
 30
0.0
 10
9.535185248877623
 20
-2.829336654651949
 30
0.0
 10
9.480116273100545
 20
-2.884405630424074
 30
0.0
 10
9.412185248875124
 20
-2.884405630421004
 30
0.0
 10
9.344254224649855
 20
-2.88440563041796
 30
0.0
 10
9.28918524887763
 20
-2.829336654640883
 30
0.0
 10
9.289185248880838
 20
-2.761405630415488
 30
0.0
 10
9.289185248883742
 20
-2.693474606190092
 30
0.0
 10
9.34425422466082
 20
-2.638405630417967
 30
0.0
 10
9.41218524888624
 20
-2.638405630421011
 30
0.0
  0
SPLINE
  5
97
330
41
100
AcDbEntity
  8
Layer 1
 62
   179
420
  2236191
370
     5
100
AcDbSpline
210
0.0
220
0.0
230
1.0
 70
     8
 71
     3
 72
     8
 73
     4
 74
     0
 42
0.0000000001
 43
0.0000000001
 12
1.0
 22
0.0
 32
0.0
 13
1.0
 23
0.0
 33
0.0
 40
0.0
 40
0.0
 40
0.0
 40
0.0
 40
1.0
 40
1.0
 40
1.0
 40
1.0
 10
0.995518584408905
 20
-12.26929452551495
 30
0.0
 10
0.9955185843965257
 20
-12.54485008107051
 30
0.0
 10
1.240888954765852
 20
-12.5685537847777
 30
0.0
 10
1.324840736541091
 20
-12.568553784789
 30
0.0
  0
SPLINE
  5
98
330
41
100
AcDbEntity
  8
Layer 1
 62
   179
420
  2236191
370
     5
100
AcDbSpline
210
0.0
220
0.0
230
1.0
 70
     8
 71
     3
 72
     8
 73
     4
 74
     0
 42
0.0000000001
 43
0.0000000001
 12
1.0
 22
0.0
 32
0.0
 13
1.0
 23
0.0
 33
0.0
 40
0.0
 40
0.0
 40
0.0
 40
0.0
 40
1.0
 40
1.0
 40
1.0
 40
1.0
 10
1.294777844194591
 20
-0.5446334494555585
 30
0.0
 10
1.019222288639033
 20
-0.5446334494431792
 30
0.0
 10
0.9955185849318139
 20
-0.7900038198125053
 30
0.0
 10
0.9955185849204957
 20
-0.8739556015877445
 30
0.0
  0
SPLINE
  5
99
330
41
100
AcDbEntity
  8
Layer 1
 62
   179
420
  2236191
370
     5
100
AcDbSpline
210
0.0
220
0.0
230
1.0
 70
     8
 71
     3
 72
     8
 73
     4
 74
     0
 42
0.0000000001
 43
0.0000000001
 12
1.0
 22
0.0
 32
0.0
 13
1.0
 23
0.0
 33
0.0
 40
0.0
 40
0.0
 40
0.0
 40
0.0
 40
1.0
 40
1.0
 40
1.0
 40
1.0
 10
11.99551858492125
 20
-0.8589241556532619
 30
0.0
 10
11.99551858495834
 20
-0.5833686000976791
 30
0.0
 10
11.75014821459111
 20
-0.5596648963684806
 30
0.0
 10
11.66619643281582
 20
-0.5596648963495833
 30
0.0
  0
SPLINE
  5
9A
330
41
100
AcDbEntity
  8
Layer 1
 62
   179
420
  2236191
370
     5
100
AcDbSpline
210
0.0
220
0.0
230
1.0
 70
     8
 71
     3
 72
     8
 73
     4
 74
     0
 42
0.0000000001
 43
0.0000000001
 12
1.0
 22
0.0
 32
0.0
 13
1.0
 23
0.0
 33
0.0
 40
0.0
 40
0.0
 40
0.0
 40
0.0
 40
1.0
 40
1.0
 40
1.0
 40
1.0
 10
11.6962593251218
 20
-12.55929452599538
 30
0.0
 10
11.97181488067736
 20
-12.55929452602011
 30
0.0
 10
11.99551858439554
 20
-12.31392415565185
 30
0.0
 10
11.9955185844107
 20
-12.22997237387661
 30
0.0
  0
SPLINE
  5
9B
330
41
100
AcDbEntity
  8
Layer 1
 62
   179
420
  2236191
370
     5
100
AcDbSpline
210
0.0
220
0.0
230
1.0
 70
    11
 71
     3
 72
    17
 73
    13
 74
     0
 42
0.0000000001
 43
0.0000000001
 12
1.0
 22
0.0
 32
0.0
 13
1.0
 23
0.0
 33
0.0
 40
0.0
 40
0.0
 40
0.0
 40
0.0
 40
1.0
 40
1.0
 40
1.0
 40
2.0
 40
2.0
 40
2.0
 40
3.0
 40
3.0
 40
3.0
 40
4.0
 40
4.0
 40
4.0
 40
4.0
 10
9.334645096579859
 20
-9.38902338151719
 30
0.0
 10
9.54432299289096
 20
-9.292779920606991
 30
0.0
 10
9.747495821453741
 20
-9.501105676507171
 30
0.0
 10
9.641078844336258
 20
-9.710915914188918
 30
0.0
 10
9.622887914503456
 20
-9.74678089941267
 30
0.0
 10
9.591466273822762
 20
-9.778747982895538
 30
0.0
 10
9.547827177511786
 20
-9.798778600017537
 30
0.0
 10
9.338149281200836
 20
-9.895022060927632
 30
0.0
 10
9.134976452638057
 20
-9.686696305027555
 30
0.0
 10
9.241393429755412
 20
-9.476886067345806
 30
0.0
 10
9.259584359588189
 20
-9.44102108212208
 30
0.0
 10
9.29100600026901
 20
-9.409053998639212
 30
0.0
 10
9.334645096579859
 20
-9.38902338151719
 30
0.0
  0
SPLINE
  5
9C
330
41
100
AcDbEntity
  8
Layer 1
 62
   179
420
  2236191
370
     5
100
AcDbSpline
210
0.0
220
0.0
230
1.0
 70
    11
 71
     3
 72
    23
 73
    19
 74
     0
 42
0.0000000001
 43
0.0000000001
 12
1.0
 22
0.0
 32
0.0
 13
1.0
 23
0.0
 33
0.0
 40
0.0
 40
0.0
 40
0.0
 40
0.0
 40
1.0
 40
1.0
 40
1.0
 40
2.0
 40
2.0
 40
2.0
 40
3.0
 40
3.0
 40
3.0
 40
4.0
 40
4.0
 40
4.0
 40
5.0
 40
5.0
 40
5.0
 40
6.0
 40
6.0
 40
6.0
 40
6.0
 10
11.4955185847914
 20
-3.352414255559754
 30
0.0
 10
11.58373123522609
 20
-3.352414255566676
 30
0.0
 10
11.65524178310208
 20
-3.298862235116505
 30
0.0
 10
11.65524178310903
 20
-3.232802530622216
 30
0.0
 10
11.65524178310903
 20
-3.232802530622216
 30
0.0
 10
11.65524178314639
 20
-2.87657174879938
 30
0.0
 10
11.65524178314639
 20
-2.87657174879938
 30
0.0
 10
11.65524178315331
 20
-2.810512044305066
 30
0.0
 10
11.5837312352886
 20
-2.756960023843678
 30
0.0
 10
11.49551858485375
 20
-2.756960023836768
 30
0.0
 10
11.40730593441903
 20
-2.756960023829846
 30
0.0
 10
11.33579538654304
 20
-2.810512044280004
 30
0.0
 10
11.33579538653609
 20
-2.876571748774293
 30
0.0
 10
11.33579538653609
 20
-2.876571748774293
 30
0.0
 10
11.33579538649875
 20
-3.23280253059713
 30
0.0
 10
11.33579538649875
 20
-3.23280253059713
 30
0.0
 10
11.33579538649181
 20
-3.298862235091418
 30
0.0
 10
11.40730593435665
 20
-3.352414255552844
 30
0.0
 10
11.4955185847914
 20
-3.352414255559754
 30
0.0
  0
SPLINE
  5
9D
330
41
100
AcDbEntity
  8
Layer 1
 62
   179
420
  2236191
370
     5
100
AcDbSpline
210
0.0
220
0.0
230
1.0
 70
     8
 71
     3
 72
    14
 73
    10
 74
     0
 42
0.0000000001
 43
0.0000000001
 12
1.0
 22
0.0
 32
0.0
 13
1.0
 23
0.0
 33
0.0
 40
0.0
 40
0.0
 40
0.0
 40
0.0
 40
1.0
 40
1.0
 40
1.0
 40
2.0
 40
2.0
 40
2.0
 40
3.0
 40
3.0
 40
3.0
 40
3.0
 10
11.9955185847775
 20
-4.059294526008809
 30
0.0
 10
11.96100083159639
 20
-4.059294526007256
 30
0.0
 10
11.93301858477556
 20
-4.10469082147914
 30
0.0
 10
11.9330185847729
 20
-4.160689831587698
 30
0.0
 10
11.9330185847729
 20
-4.160689831587698
 30
0.0
 10
11.93301858473708
 20
-4.9578992204243
 30
0.0
 10
11.93301858473708
 20
-4.9578992204243
 30
0.0
 10
11.93301858473471
 20
-5.013898230532883
 30
0.0
 10
11.96100083155152
 20
-5.059294526007256
 30
0.0
 10
11.99551858473263
 20
-5.059294526008797
 30
0.0
  0
SPLINE
  5
9E
330
41
100
AcDbEntity
  8
Layer 1
 62
   179
420
  2236191
370
     5
100
AcDbSpline
210
0.0
220
0.0
230
1.0
 70
     8
 71
     3
 72
    14
 73
    10
 74
     0
 42
0.0000000001
 43
0.0000000001
 12
1.0
 22
0.0
 32
0.0
 13
1.0
 23
0.0
 33
0.0
 40
0.0
 40
0.0
 40
0.0
 40
0.0
 40
1.0
 40
1.0
 40
1.0
 40
2.0
 40
2.0
 40
2.0
 40
3.0
 40
3.0
 40
3.0
 40
3.0
 10
11.9955185845979
 20
-8.059294526008797
 30
0.0
 10
11.96100083141694
 20
-8.059294526007255
 30
0.0
 10
11.93301858459583
 20
-8.104690821479153
 30
0.0
 10
11.93301858459333
 20
-8.160689831587685
 30
0.0
 10
11.93301858459333
 20
-8.160689831587685
 30
0.0
 10
11.93301858455751
 20
-8.957899220424299
 30
0.0
 10
11.93301858455751
 20
-8.957899220424299
 30
0.0
 10
11.933018584555
 20
-9.013898230532883
 30
0.0
 10
11.96100083137195
 20
-9.059294526007255
 30
0.0
 10
11.99551858455306
 20
-9.059294526008797
 30
0.0
  0
SPLINE
  5
9F
330
41
100
AcDbEntity
  8
Layer 1
 62
   179
420
  2236191
370
     5
100
AcDbSpline
210
0.0
220
0.0
230
1.0
 70
     8
 71
     3
 72
    14
 73
    10
 74
     0
 42
0.0000000001
 43
0.0000000001
 12
1.0
 22
0.0
 32
0.0
 13
1.0
 23
0.0
 33
0.0
 40
0.0
 40
0.0
 40
0.0
 40
0.0
 40
1.0
 40
1.0
 40
1.0
 40
2.0
 40
2.0
 40
2.0
 40
3.0
 40
3.0
 40
3.0
 40
3.0
 10
11.99551858468777
 20
-6.059294526008797
 30
0.0
 10
11.96100083150665
 20
-6.059294526007256
 30
0.0
 10
11.93301858468569
 20
-6.104690821479153
 30
0.0
 10
11.93301858468319
 20
-6.160689831587685
 30
0.0
 10
11.93301858468319
 20
-6.160689831587685
 30
0.0
 10
11.93301858464734
 20
-6.9578992204243
 30
0.0
 10
11.93301858464734
 20
-6.9578992204243
 30
0.0
 10
11.93301858464487
 20
-7.013898230532883
 30
0.0
 10
11.96100083146179
 20
-7.059294526007256
 30
0.0
 10
11.99551858464277
 20
-7.059294526008797
 30
0.0
  0
SPLINE
  5
A0
330
41
100
AcDbEntity
  8
Layer 1
 62
   179
420
  2236191
370
     5
100
AcDbSpline
210
0.0
220
0.0
230
1.0
 70
    11
 71
     3
 72
    17
 73
    13
 74
     0
 42
0.0000000001
 43
0.0000000001
 12
1.0
 22
0.0
 32
0.0
 13
1.0
 23
0.0
 33
0.0
 40
0.0
 40
0.0
 40
0.0
 40
0.0
 40
1.0
 40
1.0
 40
1.0
 40
2.0
 40
2.0
 40
2.0
 40
3.0
 40
3.0
 40
3.0
 40
4.0
 40
4.0
 40
4.0
 40
4.0
 10
2.016352015395114
 20
-2.447627817477205
 30
0.0
 10
2.055011947881111
 20
-2.447627817478949
 30
0.0
 10
2.086352015393737
 20
-2.478967884994366
 30
0.0
 10
2.086352015391993
 20
-2.517627817480363
 30
0.0
 10
2.08635201539025
 20
-2.55628774996636
 30
0.0
 10
2.05501194787482
 20
-2.58762781747896
 30
0.0
 10
2.016352015388823
 20
-2.58762781747723
 30
0.0
 10
1.977692082902826
 20
-2.587627817475486
 30
0.0
 10
1.946352015390226
 20
-2.556287749960069
 30
0.0
 10
1.946352015391944
 20
-2.517627817474072
 30
0.0
 10
1.946352015393687
 20
-2.478967884988088
 30
0.0
 10
1.977692082909142
 20
-2.447627817475462
 30
0.0
 10
2.016352015395114
 20
-2.447627817477205
 30
0.0
  0
SPLINE
  5
A1
330
41
100
AcDbEntity
  8
Layer 1
 62
   179
420
  2236191
370
     5
100
AcDbSpline
210
0.0
220
0.0
230
1.0
 70
    11
 71
     3
 72
    17
 73
    13
 74
     0
 42
0.0000000001
 43
0.0000000001
 12
1.0
 22
0.0
 32
0.0
 13
1.0
 23
0.0
 33
0.0
 40
0.0
 40
0.0
 40
0.0
 40
0.0
 40
1.0
 40
1.0
 40
1.0
 40
2.0
 40
2.0
 40
2.0
 40
3.0
 40
3.0
 40
3.0
 40
4.0
 40
4.0
 40
4.0
 40
4.0
 10
2.016352015368157
 20
-3.047627817477216
 30
0.0
 10
2.055011947854155
 20
-3.047627817478946
 30
0.0
 10
2.086352015366805
 20
-3.078967884994376
 30
0.0
 10
2.086352015365037
 20
-3.117627817480373
 30
0.0
 10
2.086352015363319
 20
-3.15628774996637
 30
0.0
 10
2.055011947847889
 20
-3.18762781747897
 30
0.0
 10
2.016352015361892
 20
-3.18762781747724
 30
0.0
 10
1.977692082875895
 20
-3.187627817475497
 30
0.0
 10
1.946352015363295
 20
-3.156287749960079
 30
0.0
 10
1.946352015365013
 20
-3.117627817474082
 30
0.0
 10
1.946352015366756
 20
-3.078967884988085
 30
0.0
 10
1.977692082882186
 20
-3.047627817475473
 30
0.0
 10
2.016352015368157
 20
-3.047627817477216
 30
0.0
  0
SPLINE
  5
A2
330
41
100
AcDbEntity
  8
Layer 1
 62
   179
420
  2236191
370
     5
100
AcDbSpline
210
0.0
220
0.0
230
1.0
 70
    11
 71
     3
 72
    11
 73
     7
 74
     0
 42
0.0000000001
 43
0.0000000001
 12
1.0
 22
0.0
 32
0.0
 13
1.0
 23
0.0
 33
0.0
 40
0.0
 40
0.0
 40
0.0
 40
0.0
 40
1.0
 40
1.0
 40
1.0
 40
2.0
 40
2.0
 40
2.0
 40
2.0
 10
4.964589058672218
 20
-6.40814159266501
 30
0.0
 10
5.043519092178611
 20
-6.515178673358857
 30
0.0
 10
4.926374944798757
 20
-6.6361736912523
 30
0.0
 10
4.822744420740819
 20
-6.554649196652083
 30
0.0
 10
4.743814387232356
 20
-6.447612115957301
 30
0.0
 10
4.860958534613752
 20
-6.326617098062317
 30
0.0
 10
4.964589058672218
 20
-6.40814159266501
 30
0.0
  0
SPLINE
  5
A3
330
41
100
AcDbEntity
  8
Layer 1
 62
   179
420
  2236191
370
     5
100
AcDbSpline
210
0.0
220
0.0
230
1.0
 70
    11
 71
     3
 72
    11
 73
     7
 74
     0
 42
0.0000000001
 43
0.0000000001
 12
1.0
 22
0.0
 32
0.0
 13
1.0
 23
0.0
 33
0.0
 40
0.0
 40
0.0
 40
0.0
 40
0.0
 40
1.0
 40
1.0
 40
1.0
 40
2.0
 40
2.0
 40
2.0
 40
2.0
 10
6.400700162892639
 20
-6.408141605476683
 30
0.0
 10
6.479630196402215
 20
-6.515178686171516
 30
0.0
 10
6.362486049020415
 20
-6.63617370406703
 30
0.0
 10
6.258855524961795
 20
-6.554649209464211
 30
0.0
 10
6.179925491455681
 20
-6.447612128770515
 30
0.0
 10
6.297069638834854
 20
-6.326617110877426
 30
0.0
 10
6.400700162892639
 20
-6.408141605476683
 30
0.0
  0
SPLINE
  5
A4
330
41
100
AcDbEntity
  8
Layer 1
 62
   179
420
  2236191
370
     5
100
AcDbSpline
210
0.0
220
0.0
230
1.0
 70
    11
 71
     3
 72
    17
 73
    13
 74
     0
 42
0.0000000001
 43
0.0000000001
 12
1.0
 22
0.0
 32
0.0
 13
1.0
 23
0.0
 33
0.0
 40
0.0
 40
0.0
 40
0.0
 40
0.0
 40
1.0
 40
1.0
 40
1.0
 40
2.0
 40
2.0
 40
2.0
 40
3.0
 40
3.0
 40
3.0
 40
4.0
 40
4.0
 40
4.0
 40
4.0
 10
4.967859783566508
 20
-7.731299049450197
 30
0.0
 10
5.019926713784849
 20
-7.827492432207666
 30
0.0
 10
4.925166977446653
 20
-7.925509113103266
 30
0.0
 10
4.832031836755959
 20
-7.872017886787817
 30
0.0
 10
4.822106394987082
 20
-7.86631730966936
 30
0.0
 10
4.809297537844865
 20
-7.85309566580981
 30
0.0
 10
4.803849059765702
 20
-7.843029630820157
 30
0.0
 10
4.751782129946807
 20
-7.746836248055009
 30
0.0
 10
4.846541866489714
 20
-7.648819567361316
 30
0.0
 10
4.939677007178059
 20
-7.702310794100135
 30
0.0
 10
4.94960244870971
 20
-7.708011371127441
 30
0.0
 10
4.962411305574151
 20
-7.721233014699187
 30
0.0
 10
4.967859783566508
 20
-7.731299049450197
 30
0.0
  0
SPLINE
  5
A5
330
41
100
AcDbEntity
  8
Layer 1
 62
   179
420
  2236191
370
     5
100
AcDbSpline
210
0.0
220
0.0
230
1.0
 70
    11
 71
     3
 72
    17
 73
    13
 74
     0
 42
0.0000000001
 43
0.0000000001
 12
1.0
 22
0.0
 32
0.0
 13
1.0
 23
0.0
 33
0.0
 40
0.0
 40
0.0
 40
0.0
 40
0.0
 40
1.0
 40
1.0
 40
1.0
 40
2.0
 40
2.0
 40
2.0
 40
3.0
 40
3.0
 40
3.0
 40
4.0
 40
4.0
 40
4.0
 40
4.0
 10
6.411783227354312
 20
-7.731299036166395
 30
0.0
 10
6.463850157174015
 20
-7.827492418931771
 30
0.0
 10
6.369090420630831
 20
-7.92550909962607
 30
0.0
 10
6.275955279942107
 20
-7.872017872886974
 30
0.0
 10
6.266029838410683
 20
-7.866317295859668
 30
0.0
 10
6.253220981546241
 20
-7.853095652288048
 30
0.0
 10
6.24777250355401
 20
-7.843029617537139
 30
0.0
 10
6.195705573335545
 20
-7.746836234779821
 30
0.0
 10
6.290465309673183
 20
-7.648819553884348
 30
0.0
 10
6.383600450363751
 20
-7.702310780198963
 30
0.0
 10
6.39352589213278
 20
-7.708011357317345
 30
0.0
 10
6.406334749274997
 20
-7.721233001176769
 30
0.0
 10
6.411783227354312
 20
-7.731299036166395
 30
0.0
  0
SPLINE
  5
A6
330
41
100
AcDbEntity
  8
Layer 1
 62
   179
420
  2236191
370
     5
100
AcDbSpline
210
0.0
220
0.0
230
1.0
 70
    11
 71
     3
 72
    11
 73
     7
 74
     0
 42
0.0000000001
 43
0.0000000001
 12
1.0
 22
0.0
 32
0.0
 13
1.0
 23
0.0
 33
0.0
 40
0.0
 40
0.0
 40
0.0
 40
0.0
 40
1.0
 40
1.0
 40
1.0
 40
2.0
 40
2.0
 40
2.0
 40
2.0
 10
5.684657831305558
 20
-6.419679462468669
 30
0.0
 10
5.763587864811925
 20
-6.526716543162491
 30
0.0
 10
5.646443717432223
 20
-6.647711561055959
 30
0.0
 10
5.542813193374159
 20
-6.566187066455742
 30
0.0
 10
5.463883159865696
 20
-6.459149985760935
 30
0.0
 10
5.581027307247066
 20
-6.338154967865976
 30
0.0
 10
5.684657831305558
 20
-6.419679462468669
 30
0.0
  0
SPLINE
  5
A7
330
41
100
AcDbEntity
  8
Layer 1
 62
   179
420
  2236191
370
     5
100
AcDbSpline
210
0.0
220
0.0
230
1.0
 70
    11
 71
     3
 72
    11
 73
     7
 74
     0
 42
0.0000000001
 43
0.0000000001
 12
1.0
 22
0.0
 32
0.0
 13
1.0
 23
0.0
 33
0.0
 40
0.0
 40
0.0
 40
0.0
 40
0.0
 40
1.0
 40
1.0
 40
1.0
 40
2.0
 40
2.0
 40
2.0
 40
2.0
 10
7.120768935526105
 20
-6.419679475280317
 30
0.0
 10
7.199698969035555
 20
-6.526716555975175
 30
0.0
 10
7.082554821653881
 20
-6.647711573870689
 30
0.0
 10
6.978924297595135
 20
-6.566187079267845
 30
0.0
 10
6.899994264089021
 20
-6.459149998574174
 30
0.0
 10
7.017138411468194
 20
-6.33815498068106
 30
0.0
 10
7.120768935526105
 20
-6.419679475280317
 30
0.0
  0
SPLINE
  5
A8
330
41
100
AcDbEntity
  8
Layer 1
 62
   179
420
  2236191
370
     5
100
AcDbSpline
210
0.0
220
0.0
230
1.0
 70
    11
 71
     3
 72
    17
 73
    13
 74
     0
 42
0.0000000001
 43
0.0000000001
 12
1.0
 22
0.0
 32
0.0
 13
1.0
 23
0.0
 33
0.0
 40
0.0
 40
0.0
 40
0.0
 40
0.0
 40
1.0
 40
1.0
 40
1.0
 40
2.0
 40
2.0
 40
2.0
 40
3.0
 40
3.0
 40
3.0
 40
4.0
 40
4.0
 40
4.0
 40
4.0
 10
5.687928556199848
 20
-7.742836919253856
 30
0.0
 10
5.739995486418315
 20
-7.839030302011325
 30
0.0
 10
5.645235750080119
 20
-7.937046982906925
 30
0.0
 10
5.55210060938945
 20
-7.883555756591477
 30
0.0
 10
5.542175167620422
 20
-7.877855179473019
 30
0.0
 10
5.52936631047818
 20
-7.864633535613469
 30
0.0
 10
5.523917832399016
 20
-7.854567500623816
 30
0.0
 10
5.471850902580147
 20
-7.758374117858668
 30
0.0
 10
5.566610639123054
 20
-7.660357437164976
 30
0.0
 10
5.659745779811374
 20
-7.713848663903794
 30
0.0
 10
5.66967122134305
 20
-7.7195492409311
 30
0.0
 10
5.682480078207491
 20
-7.732770884502846
 30
0.0
 10
5.687928556199848
 20
-7.742836919253856
 30
0.0
  0
SPLINE
  5
A9
330
41
100
AcDbEntity
  8
Layer 1
 62
   179
420
  2236191
370
     5
100
AcDbSpline
210
0.0
220
0.0
230
1.0
 70
    11
 71
     3
 72
    17
 73
    13
 74
     0
 42
0.0000000001
 43
0.0000000001
 12
1.0
 22
0.0
 32
0.0
 13
1.0
 23
0.0
 33
0.0
 40
0.0
 40
0.0
 40
0.0
 40
0.0
 40
1.0
 40
1.0
 40
1.0
 40
2.0
 40
2.0
 40
2.0
 40
3.0
 40
3.0
 40
3.0
 40
4.0
 40
4.0
 40
4.0
 40
4.0
 10
7.131851999987626
 20
-7.742836905970054
 30
0.0
 10
7.183918929807355
 20
-7.83903028873543
 30
0.0
 10
7.08915919326417
 20
-7.93704696942973
 30
0.0
 10
6.996024052575422
 20
-7.883555742690608
 30
0.0
 10
6.986098611044023
 20
-7.877855165663327
 30
0.0
 10
6.973289754179581
 20
-7.864633522091708
 30
0.0
 10
6.96784127618735
 20
-7.854567487340798
 30
0.0
 10
6.915774345968885
 20
-7.758374104583481
 30
0.0
 10
7.010534082306523
 20
-7.660357423688007
 30
0.0
 10
7.103669222997091
 20
-7.713848650002622
 30
0.0
 10
7.113594664766095
 20
-7.719549227120979
 30
0.0
 10
7.126403521908337
 20
-7.732770870980428
 30
0.0
 10
7.131851999987626
 20
-7.742836905970054
 30
0.0
  0
SPLINE
  5
AA
330
41
100
AcDbEntity
  8
Layer 1
 62
   179
420
  2236191
370
     5
100
AcDbSpline
210
0.0
220
0.0
230
1.0
 70
    11
 71
     3
 72
    11
 73
     7
 74
     0
 42
0.0000000001
 43
0.0000000001
 12
1.0
 22
0.0
 32
0.0
 13
1.0
 23
0.0
 33
0.0
 40
0.0
 40
0.0
 40
0.0
 40
0.0
 40
1.0
 40
1.0
 40
1.0
 40
2.0
 40
2.0
 40
2.0
 40
2.0
 10
7.821085470628607
 20
-6.408141605540449
 30
0.0
 10
7.900015504138056
 20
-6.515178686235306
 30
0.0
 10
7.782871356756383
 20
-6.636173704130796
 30
0.0
 10
7.679240832697764
 20
-6.554649209527977
 30
0.0
 10
7.600310799191523
 20
-6.447612128834306
 30
0.0
 10
7.717454946570696
 20
-6.326617110941192
 30
0.0
 10
7.821085470628607
 20
-6.408141605540449
 30
0.0
  0
SPLINE
  5
AB
330
41
100
AcDbEntity
  8
Layer 1
 62
   179
420
  2236191
370
     5
100
AcDbSpline
210
0.0
220
0.0
230
1.0
 70
    11
 71
     3
 72
    17
 73
    13
 74
     0
 42
0.0000000001
 43
0.0000000001
 12
1.0
 22
0.0
 32
0.0
 13
1.0
 23
0.0
 33
0.0
 40
0.0
 40
0.0
 40
0.0
 40
0.0
 40
1.0
 40
1.0
 40
1.0
 40
2.0
 40
2.0
 40
2.0
 40
3.0
 40
3.0
 40
3.0
 40
4.0
 40
4.0
 40
4.0
 40
4.0
 10
7.832168535090128
 20
-7.731299036230186
 30
0.0
 10
7.884235464909984
 20
-7.827492418995537
 30
0.0
 10
7.789475728366672
 20
-7.925509099689836
 30
0.0
 10
7.69634058767805
 20
-7.87201787295074
 30
0.0
 10
7.686415146146524
 20
-7.866317295923459
 30
0.0
 10
7.673606289282083
 20
-7.853095652351814
 30
0.0
 10
7.668157811289852
 20
-7.843029617600905
 30
0.0
 10
7.616090881071386
 20
-7.746836234843587
 30
0.0
 10
7.710850617409025
 20
-7.648819553948114
 30
0.0
 10
7.803985758099568
 20
-7.702310780262728
 30
0.0
 10
7.813911199868597
 20
-7.708011357381135
 30
0.0
 10
7.826720057010814
 20
-7.721233001240535
 30
0.0
 10
7.832168535090128
 20
-7.731299036230186
 30
0.0
  0
SPLINE
  5
AC
330
41
100
AcDbEntity
  8
Layer 1
 62
   179
420
  2236191
370
     5
100
AcDbSpline
210
0.0
220
0.0
230
1.0
 70
    11
 71
     3
 72
    23
 73
    19
 74
     0
 42
0.0000000001
 43
0.0000000001
 12
1.0
 22
0.0
 32
0.0
 13
1.0
 23
0.0
 33
0.0
 40
0.0
 40
0.0
 40
0.0
 40
0.0
 40
1.0
 40
1.0
 40
1.0
 40
2.0
 40
2.0
 40
2.0
 40
3.0
 40
3.0
 40
3.0
 40
4.0
 40
4.0
 40
4.0
 40
5.0
 40
5.0
 40
5.0
 40
6.0
 40
6.0
 40
6.0
 40
6.0
 10
1.912688561214483
 20
-11.0577541571421
 30
0.0
 10
2.086658186040116
 20
-11.05775415715723
 30
0.0
 10
2.227688561205696
 20
-10.92576290825195
 30
0.0
 10
2.227688561220829
 20
-10.76294360050014
 30
0.0
 10
2.227688561220829
 20
-10.76294360050014
 30
0.0
 10
2.227688561302355
 20
-9.884931055025971
 30
0.0
 10
2.227688561302355
 20
-9.884931055025971
 30
0.0
 10
2.227688561317462
 20
-9.722111747274134
 30
0.0
 10
2.086658186176388
 20
-9.590120498344351
 30
0.0
 10
1.912688561350807
 20
-9.590120498329243
 30
0.0
 10
1.738718936525199
 20
-9.59012049831411
 30
0.0
 10
1.597688561359569
 20
-9.722111747219389
 30
0.0
 10
1.597688561344487
 20
-9.884931054971224
 30
0.0
 10
1.597688561344487
 20
-9.884931054971224
 30
0.0
 10
1.597688561262935
 20
-10.76294360044534
 30
0.0
 10
1.597688561262935
 20
-10.76294360044534
 30
0.0
 10
1.597688561247828
 20
-10.92576290819718
 30
0.0
 10
1.738718936388876
 20
-11.05775415712699
 30
0.0
 10
1.912688561214483
 20
-11.0577541571421
 30
0.0
  0
SPLINE
  5
AD
330
41
100
AcDbEntity
  8
Layer 1
 62
   179
420
  2236191
370
     5
100
AcDbSpline
210
0.0
220
0.0
230
1.0
 70
    11
 71
     3
 72
    23
 73
    19
 74
     0
 42
0.0000000001
 43
0.0000000001
 12
1.0
 22
0.0
 32
0.0
 13
1.0
 23
0.0
 33
0.0
 40
0.0
 40
0.0
 40
0.0
 40
0.0
 40
1.0
 40
1.0
 40
1.0
 40
2.0
 40
2.0
 40
2.0
 40
3.0
 40
3.0
 40
3.0
 40
4.0
 40
4.0
 40
4.0
 40
5.0
 40
5.0
 40
5.0
 40
6.0
 40
6.0
 40
6.0
 40
6.0
 10
1.910188693753526
 20
-8.993581287267741
 30
0.0
 10
2.084158318579158
 20
-8.993581287282192
 30
0.0
 10
2.225188693744182
 20
-8.873872108789353
 30
0.0
 10
2.225188693758632
 20
-8.726203488820298
 30
0.0
 10
2.225188693758632
 20
-8.726203488820298
 30
0.0
 10
2.225188693836496
 20
-7.929891904549625
 30
0.0
 10
2.225188693836496
 20
-7.929891904549625
 30
0.0
 10
2.225188693850921
 20
-7.782223284580545
 30
0.0
 10
2.084158318709317
 20
-7.662514106064337
 30
0.0
 10
1.910188693883684
 20
-7.662514106049886
 30
0.0
 10
1.736219069058102
 20
-7.662514106035435
 30
0.0
 10
1.595188693893028
 20
-7.782223284528274
 30
0.0
 10
1.595188693878602
 20
-7.929891904497354
 30
0.0
 10
1.595188693878602
 20
-7.929891904497354
 30
0.0
 10
1.595188693800739
 20
-8.726203488767952
 30
0.0
 10
1.595188693800739
 20
-8.726203488767952
 30
0.0
 10
1.595188693786314
 20
-8.873872108737057
 30
0.0
 10
1.736219068927918
 20
-8.99358128725329
 30
0.0
 10
1.910188693753526
 20
-8.993581287267741
 30
0.0
  0
SPLINE
  5
AE
330
41
100
AcDbEntity
  8
Layer 1
 62
   179
420
  2236191
370
     5
100
AcDbSpline
210
0.0
220
0.0
230
1.0
 70
    11
 71
     3
 72
    26
 73
    22
 74
     0
 42
0.0000000001
 43
0.0000000001
 12
1.0
 22
0.0
 32
0.0
 13
1.0
 23
0.0
 33
0.0
 40
0.0
 40
0.0
 40
0.0
 40
0.0
 40
1.0
 40
1.0
 40
1.0
 40
2.0
 40
2.0
 40
2.0
 40
3.0
 40
3.0
 40
3.0
 40
4.0
 40
4.0
 40
4.0
 40
5.0
 40
5.0
 40
5.0
 40
6.0
 40
6.0
 40
6.0
 40
7.0
 40
7.0
 40
7.0
 40
7.0
 10
4.731426781536533
 20
-10.14149192694137
 30
0.0
 10
4.731426781525695
 20
-10.38183989514881
 30
0.0
 10
4.926265411345538
 20
-10.57668022040714
 30
0.0
 10
5.166611684131945
 20
-10.57668022041793
 30
0.0
 10
5.166611684131945
 20
-10.57668022041793
 30
0.0
 10
5.166611684131945
 20
-10.57668106812841
 30
0.0
 10
5.166611684131945
 20
-10.57668106812841
 30
0.0
 10
5.166611684131945
 20
-10.57668106812841
 30
0.0
 10
7.597586856386796
 20
-10.57668106823755
 30
0.0
 10
7.597586856386796
 20
-10.57668106823755
 30
0.0
 10
7.837933129173178
 20
-10.57668106824836
 30
0.0
 10
8.032772606720957
 20
-10.38183989529704
 30
0.0
 10
8.032772606731795
 20
-10.14149192708957
 30
0.0
 10
8.032772606742633
 20
-9.901143958882104
 30
0.0
 10
7.837933129212362
 20
-9.706303633623797
 30
0.0
 10
7.597586856425828
 20
-9.70630363361301
 30
0.0
 10
7.597586856425828
 20
-9.70630363361301
 30
0.0
 10
5.166611684171104
 20
-9.70630363350387
 30
0.0
 10
5.166611684171104
 20
-9.70630363350387
 30
0.0
 10
4.926265411384571
 20
-9.706303633493082
 30
0.0
 10
4.731426781547346
 20
-9.901143958733883
 30
0.0
 10
4.731426781536533
 20
-10.14149192694137
 30
0.0
  0
SPLINE
  5
AF
330
41
100
AcDbEntity
  8
Layer 1
 62
   179
420
  2236191
370
     5
100
AcDbSpline
210
0.0
220
0.0
230
1.0
 70
    11
 71
     3
 72
    23
 73
    19
 74
     0
 42
0.0000000001
 43
0.0000000001
 12
1.0
 22
0.0
 32
0.0
 13
1.0
 23
0.0
 33
0.0
 40
0.0
 40
0.0
 40
0.0
 40
0.0
 40
1.0
 40
1.0
 40
1.0
 40
2.0
 40
2.0
 40
2.0
 40
3.0
 40
3.0
 40
3.0
 40
4.0
 40
4.0
 40
4.0
 40
5.0
 40
5.0
 40
5.0
 40
6.0
 40
6.0
 40
6.0
 40
6.0
 10
11.0830185872425
 20
-8.160689831549536
 30
0.0
 10
11.0830185872425
 20
-8.160689831549536
 30
0.0
 10
11.08301858720665
 20
-8.957899220386151
 30
0.0
 10
11.08301858720665
 20
-8.957899220386151
 30
0.0
 10
11.08301858720415
 20
-9.013898230494709
 30
0.0
 10
11.11100083402109
 20
-9.059294525969081
 30
0.0
 10
11.14551858720208
 20
-9.059294525970648
 30
0.0
 10
11.18003634038319
 20
-9.059294525972215
 30
0.0
 10
11.20801858720415
 20
-9.013898230500319
 30
0.0
 10
11.20801858720665
 20
-8.95789922039176
 30
0.0
 10
11.20801858720665
 20
-8.95789922039176
 30
0.0
 10
11.2080185872425
 20
-8.160689831555146
 30
0.0
 10
11.2080185872425
 20
-8.160689831555146
 30
0.0
 10
11.208018587245
 20
-8.104690821446587
 30
0.0
 10
11.18003634042806
 20
-8.059294525972215
 30
0.0
 10
11.14551858724707
 20
-8.059294525970648
 30
0.0
 10
11.11100083406596
 20
-8.059294525969083
 30
0.0
 10
11.083018587245
 20
-8.104690821440979
 30
0.0
 10
11.0830185872425
 20
-8.160689831549536
 30
0.0
  0
SPLINE
  5
B0
330
41
100
AcDbEntity
  8
Layer 1
 62
   179
420
  2236191
370
     5
100
AcDbSpline
210
0.0
220
0.0
230
1.0
 70
    11
 71
     3
 72
    23
 73
    19
 74
     0
 42
0.0000000001
 43
0.0000000001
 12
1.0
 22
0.0
 32
0.0
 13
1.0
 23
0.0
 33
0.0
 40
0.0
 40
0.0
 40
0.0
 40
0.0
 40
1.0
 40
1.0
 40
1.0
 40
2.0
 40
2.0
 40
2.0
 40
3.0
 40
3.0
 40
3.0
 40
4.0
 40
4.0
 40
4.0
 40
5.0
 40
5.0
 40
5.0
 40
6.0
 40
6.0
 40
6.0
 40
6.0
 10
11.08301853964847
 20
-6.160689831549537
 30
0.0
 10
11.08301853964847
 20
-6.160689831549537
 30
0.0
 10
11.08301853961264
 20
-6.957899220386151
 30
0.0
 10
11.08301853961264
 20
-6.957899220386151
 30
0.0
 10
11.08301853961027
 20
-7.01389823049471
 30
0.0
 10
11.11100078642709
 20
-7.059294525969082
 30
0.0
 10
11.1455185396082
 20
-7.059294525970649
 30
0.0
 10
11.18003629278916
 20
-7.059294525972215
 30
0.0
 10
11.20801853961027
 20
-7.013898230500318
 30
0.0
 10
11.20801853961264
 20
-6.957899220391759
 30
0.0
 10
11.20801853961264
 20
-6.957899220391759
 30
0.0
 10
11.20801853964847
 20
-6.160689831555146
 30
0.0
 10
11.20801853964847
 20
-6.160689831555146
 30
0.0
 10
11.20801853965097
 20
-6.104690821446588
 30
0.0
 10
11.18003629283402
 20
-6.059294525972215
 30
0.0
 10
11.14551853965306
 20
-6.059294525970649
 30
0.0
 10
11.11100078647193
 20
-6.059294525969082
 30
0.0
 10
11.08301853965097
 20
-6.104690821440979
 30
0.0
 10
11.08301853964847
 20
-6.160689831549537
 30
0.0
  0
SPLINE
  5
B1
330
41
100
AcDbEntity
  8
Layer 1
 62
   179
420
  2236191
370
     5
100
AcDbSpline
210
0.0
220
0.0
230
1.0
 70
    11
 71
     3
 72
    23
 73
    19
 74
     0
 42
0.0000000001
 43
0.0000000001
 12
1.0
 22
0.0
 32
0.0
 13
1.0
 23
0.0
 33
0.0
 40
0.0
 40
0.0
 40
0.0
 40
0.0
 40
1.0
 40
1.0
 40
1.0
 40
2.0
 40
2.0
 40
2.0
 40
3.0
 40
3.0
 40
3.0
 40
4.0
 40
4.0
 40
4.0
 40
5.0
 40
5.0
 40
5.0
 40
6.0
 40
6.0
 40
6.0
 40
6.0
 10
11.08301858742208
 20
-4.160689831549537
 30
0.0
 10
11.08301858742208
 20
-4.160689831549537
 30
0.0
 10
11.08301858738625
 20
-4.957899220386151
 30
0.0
 10
11.08301858738625
 20
-4.957899220386151
 30
0.0
 10
11.08301858738375
 20
-5.01389823049471
 30
0.0
 10
11.11100083420069
 20
-5.059294525969082
 30
0.0
 10
11.14551858738165
 20
-5.059294525970649
 30
0.0
 10
11.18003634056276
 20
-5.059294525972215
 30
0.0
 10
11.20801858738375
 20
-5.013898230500318
 30
0.0
 10
11.20801858738625
 20
-4.95789922039176
 30
0.0
 10
11.20801858738625
 20
-4.95789922039176
 30
0.0
 10
11.20801858742208
 20
-4.160689831555146
 30
0.0
 10
11.20801858742208
 20
-4.160689831555146
 30
0.0
 10
11.20801858742458
 20
-4.104690821446588
 30
0.0
 10
11.18003634060763
 20
-4.059294525972202
 30
0.0
 10
11.14551858742665
 20
-4.059294525970649
 30
0.0
 10
11.11100083424554
 20
-4.059294525969095
 30
0.0
 10
11.08301858742458
 20
-4.104690821440979
 30
0.0
 10
11.08301858742208
 20
-4.160689831549537
 30
0.0
  0
ENDBLK
  5
44
330
41
100
AcDbEntity
  8
0
100
AcDbBlockEnd
  0
BLOCK
  5
55
330
53
100
AcDbEntity
  8
0
100
AcDbBlockBegin
  2
block 3
 70
     0
 10
0.0
 20
0.0
 30
0.0
  3
block 3
  1

  0
SPLINE
  5
57
330
53
100
AcDbEntity
  8
Layer 1
 62
   179
420
  2236191
370
     5
100
AcDbSpline
210
0.0
220
0.0
230
1.0
 70
    11
 71
     3
 72
    17
 73
    13
 74
     0
 42
0.0000000001
 43
0.0000000001
 12
1.0
 22
0.0
 32
0.0
 13
1.0
 23
0.0
 33
0.0
 40
0.0
 40
0.0
 40
0.0
 40
0.0
 40
1.0
 40
1.0
 40
1.0
 40
2.0
 40
2.0
 40
2.0
 40
3.0
 40
3.0
 40
3.0
 40
4.0
 40
4.0
 40
4.0
 40
4.0
 10
3.217394614347086
 20
-6.819386596421104
 30
0.0
 10
3.256054546833057
 20
-6.819386596422823
 30
0.0
 10
3.287394614345683
 20
-6.850726663938253
 30
0.0
 10
3.287394614343889
 20
-6.88938659642425
 30
0.0
 10
3.287394614342222
 20
-6.928046528910246
 30
0.0
 10
3.256054546826792
 20
-6.959386596422847
 30
0.0
 10
3.21739461434082
 20
-6.959386596421129
 30
0.0
 10
3.178734681854849
 20
-6.959386596419385
 30
0.0
 10
3.147394614342223
 20
-6.928046528903981
 30
0.0
 10
3.14739461434389
 20
-6.889386596417984
 30
0.0
 10
3.147394614345684
 20
-6.850726663931987
 30
0.0
 10
3.178734681861114
 20
-6.819386596419362
 30
0.0
 10
3.217394614347086
 20
-6.819386596421104
 30
0.0
  0
SPLINE
  5
58
330
53
100
AcDbEntity
  8
Layer 1
 62
   179
420
  2236191
370
     5
100
AcDbSpline
210
0.0
220
0.0
230
1.0
 70
    11
 71
     3
 72
    17
 73
    13
 74
     0
 42
0.0000000001
 43
0.0000000001
 12
1.0
 22
0.0
 32
0.0
 13
1.0
 23
0.0
 33
0.0
 40
0.0
 40
0.0
 40
0.0
 40
0.0
 40
1.0
 40
1.0
 40
1.0
 40
2.0
 40
2.0
 40
2.0
 40
3.0
 40
3.0
 40
3.0
 40
4.0
 40
4.0
 40
4.0
 40
4.0
 10
1.310450169904849
 20
-6.76938659633548
 30
0.0
 10
1.349110102390846
 20
-6.769386596337199
 30
0.0
 10
1.380450169903447
 20
-6.800726663852629
 30
0.0
 10
1.380450169901729
 20
-6.839386596338626
 30
0.0
 10
1.380450169899986
 20
-6.878046528824623
 30
0.0
 10
1.349110102384581
 20
-6.909386596337223
 30
0.0
 10
1.310450169898584
 20
-6.909386596335505
 30
0.0
 10
1.271790237412587
 20
-6.909386596333787
 30
0.0
 10
1.240450169899961
 20
-6.878046528818357
 30
0.0
 10
1.240450169901705
 20
-6.839386596332361
 30
0.0
 10
1.240450169903422
 20
-6.800726663846363
 30
0.0
 10
1.271790237418852
 20
-6.769386596333763
 30
0.0
 10
1.310450169904849
 20
-6.76938659633548
 30
0.0
  0
SPLINE
  5
59
330
53
100
AcDbEntity
  8
Layer 1
 62
   179
420
  2236191
370
     5
100
AcDbSpline
210
0.0
220
0.0
230
1.0
 70
    11
 71
     3
 72
    17
 73
    13
 74
     0
 42
0.0000000001
 43
0.0000000001
 12
1.0
 22
0.0
 32
0.0
 13
1.0
 23
0.0
 33
0.0
 40
0.0
 40
0.0
 40
0.0
 40
0.0
 40
1.0
 40
1.0
 40
1.0
 40
2.0
 40
2.0
 40
2.0
 40
3.0
 40
3.0
 40
3.0
 40
4.0
 40
4.0
 40
4.0
 40
4.0
 10
1.310450170037282
 20
-3.819386596335486
 30
0.0
 10
1.349110102523279
 20
-3.819386596337217
 30
0.0
 10
1.380450170035904
 20
-3.850726663852647
 30
0.0
 10
1.380450170034161
 20
-3.889386596338631
 30
0.0
 10
1.380450170032443
 20
-3.928046528824641
 30
0.0
 10
1.349110102517013
 20
-3.959386596337228
 30
0.0
 10
1.310450170031016
 20
-3.95938659633551
 30
0.0
 10
1.271790237545019
 20
-3.95938659633378
 30
0.0
 10
1.240450170032419
 20
-3.92804652881835
 30
0.0
 10
1.240450170034137
 20
-3.889386596332365
 30
0.0
 10
1.24045017003588
 20
-3.850726663846356
 30
0.0
 10
1.271790237551285
 20
-3.819386596333768
 30
0.0
 10
1.310450170037282
 20
-3.819386596335486
 30
0.0
  0
SPLINE
  5
5A
330
53
100
AcDbEntity
  8
Layer 1
 62
   179
420
  2236191
370
     5
100
AcDbSpline
210
0.0
220
0.0
230
1.0
 70
    11
 71
     3
 72
    17
 73
    13
 74
     0
 42
0.0000000001
 43
0.0000000001
 12
1.0
 22
0.0
 32
0.0
 13
1.0
 23
0.0
 33
0.0
 40
0.0
 40
0.0
 40
0.0
 40
0.0
 40
1.0
 40
1.0
 40
1.0
 40
2.0
 40
2.0
 40
2.0
 40
3.0
 40
3.0
 40
3.0
 40
4.0
 40
4.0
 40
4.0
 40
4.0
 10
3.21739461449306
 20
-3.569386596421105
 30
0.0
 10
3.256054546979031
 20
-3.569386596422835
 30
0.0
 10
3.28739461449153
 20
-3.600726663938253
 30
0.0
 10
3.287394614489863
 20
-3.63938659642425
 30
0.0
 10
3.287394614488044
 20
-3.678046528910247
 30
0.0
 10
3.256054546972639
 20
-3.70938659642286
 30
0.0
 10
3.217394614486668
 20
-3.709386596421129
 30
0.0
 10
3.178734682000696
 20
-3.709386596419386
 30
0.0
 10
3.147394614488045
 20
-3.678046528903969
 30
0.0
 10
3.147394614489864
 20
-3.639386596417971
 30
0.0
 10
3.147394614491532
 20
-3.600726663931975
 30
0.0
 10
3.178734682006936
 20
-3.569386596419362
 30
0.0
 10
3.21739461449306
 20
-3.569386596421105
 30
0.0
  0
ENDBLK
  5
56
330
53
100
AcDbEntity
  8
0
100
AcDbBlockEnd
  0
BLOCK
  5
66
330
64
100
AcDbEntity
  8
0
100
AcDbBlockBegin
  2
block 4
 70
     0
 10
0.0
 20
0.0
 30
0.0
  3
block 4
  1

  0
INSERT
  5
69
330
64
100
AcDbEntity
  8
Layer 1
100
AcDbBlockReference
  2
block 5
 10
0.0
 20
0.0
 30
0.0
  0
SPLINE
  5
73
330
64
100
AcDbEntity
  8
Layer 1
 62
   179
420
  2236191
370
     5
100
AcDbSpline
210
0.0
220
0.0
230
1.0
 70
    11
 71
     3
 72
    17
 73
    13
 74
     0
 42
0.0000000001
 43
0.0000000001
 12
1.0
 22
0.0
 32
0.0
 13
1.0
 23
0.0
 33
0.0
 40
0.0
 40
0.0
 40
0.0
 40
0.0
 40
1.0
 40
1.0
 40
1.0
 40
2.0
 40
2.0
 40
2.0
 40
3.0
 40
3.0
 40
3.0
 40
4.0
 40
4.0
 40
4.0
 40
4.0
 10
3.822740907514723
 20
-8.633739282679546
 30
0.0
 10
3.861400840000821
 20
-8.633739282681315
 30
0.0
 10
3.89274090751332
 20
-8.66507935019672
 30
0.0
 10
3.892740907511653
 20
-8.703739282682717
 30
0.0
 10
3.892740907509872
 20
-8.742399215168714
 30
0.0
 10
3.861400839994429
 20
-8.773739282681339
 30
0.0
 10
3.822740907508457
 20
-8.773739282679571
 30
0.0
 10
3.784080975022486
 20
-8.773739282677854
 30
0.0
 10
3.75274090750986
 20
-8.742399215162424
 30
0.0
 10
3.752740907511654
 20
-8.703739282676427
 30
0.0
 10
3.752740907513321
 20
-8.665079350190428
 30
0.0
 10
3.784080975028751
 20
-8.633739282677828
 30
0.0
 10
3.822740907514723
 20
-8.633739282679546
 30
0.0
  0
ENDBLK
  5
67
330
64
100
AcDbEntity
  8
0
100
AcDbBlockEnd
  0
BLOCK
  5
6A
330
68
100
AcDbEntity
  8
0
100
AcDbBlockBegin
  2
block 5
 70
     0
 10
0.0
 20
0.0
 30
0.0
  3
block 5
  1

  0
INSERT
  5
6D
330
68
100
AcDbEntity
  8
Layer 1
100
AcDbBlockReference
  2
block 6
 10
0.0
 20
0.0
 30
0.0
  0
SPLINE
  5
72
330
68
100
AcDbEntity
  8
Layer 1
 62
   179
420
  2236191
370
     5
100
AcDbSpline
210
0.0
220
0.0
230
1.0
 70
    11
 71
     3
 72
    17
 73
    13
 74
     0
 42
0.0000000001
 43
0.0000000001
 12
1.0
 22
0.0
 32
0.0
 13
1.0
 23
0.0
 33
0.0
 40
0.0
 40
0.0
 40
0.0
 40
0.0
 40
1.0
 40
1.0
 40
1.0
 40
2.0
 40
2.0
 40
2.0
 40
3.0
 40
3.0
 40
3.0
 40
4.0
 40
4.0
 40
4.0
 40
4.0
 10
3.822740907748337
 20
-3.433738956616189
 30
0.0
 10
3.861400840234309
 20
-3.433738956617933
 30
0.0
 10
3.892740907746808
 20
-3.46507902413335
 30
0.0
 10
3.89274090774514
 20
-3.503738956619347
 30
0.0
 10
3.892740907743321
 20
-3.542398889105344
 30
0.0
 10
3.861400840227917
 20
-3.573738956617957
 30
0.0
 10
3.822740907741945
 20
-3.573738956616226
 30
0.0
 10
3.784080975255973
 20
-3.573738956614483
 30
0.0
 10
3.752740907743322
 20
-3.542398889099053
 30
0.0
 10
3.752740907745141
 20
-3.503738956613056
 30
0.0
 10
3.752740907746809
 20
-3.465079024127059
 30
0.0
 10
3.784080975262214
 20
-3.433738956614459
 30
0.0
 10
3.822740907748337
 20
-3.433738956616189
 30
0.0
  0
ENDBLK
  5
6B
330
68
100
AcDbEntity
  8
0
100
AcDbBlockEnd
  0
BLOCK
  5
6E
330
6C
100
AcDbEntity
  8
0
100
AcDbBlockBegin
  2
block 6
 70
     0
 10
0.0
 20
0.0
 30
0.0
  3
block 6
  1

  0
SPLINE
  5
70
330
6C
100
AcDbEntity
  8
Layer 1
 62
   179
420
  2236191
370
     5
100
AcDbSpline
210
0.0
220
0.0
230
1.0
 70
    11
 71
     3
 72
    17
 73
    13
 74
     0
 42
0.0000000001
 43
0.0000000001
 12
1.0
 22
0.0
 32
0.0
 13
1.0
 23
0.0
 33
0.0
 40
0.0
 40
0.0
 40
0.0
 40
0.0
 40
1.0
 40
1.0
 40
1.0
 40
2.0
 40
2.0
 40
2.0
 40
3.0
 40
3.0
 40
3.0
 40
4.0
 40
4.0
 40
4.0
 40
4.0
 10
10.02274082270333
 20
-9.533739069063586
 30
0.0
 10
10.0614007551893
 20
-9.533739069065353
 30
0.0
 10
10.09274082270195
 20
-9.565079136580758
 30
0.0
 10
10.09274082270013
 20
-9.603739069066755
 30
0.0
 10
10.09274082269846
 20
-9.642399001552752
 30
0.0
 10
10.06140075518306
 20
-9.673739069065379
 30
0.0
 10
10.02274082269709
 20
-9.67373906906361
 30
0.0
 10
9.984080890211114
 20
-9.673739069061892
 30
0.0
 10
9.952740822698463
 20
-9.642399001546462
 30
0.0
 10
9.95274082270013
 20
-9.603739069060465
 30
0.0
 10
9.95274082270195
 20
-9.565079136574468
 30
0.0
 10
9.984080890217355
 20
-9.533739069061868
 30
0.0
 10
10.02274082270333
 20
-9.533739069063586
 30
0.0
  0
SPLINE
  5
71
330
6C
100
AcDbEntity
  8
Layer 1
 62
   179
420
  2236191
370
     5
100
AcDbSpline
210
0.0
220
0.0
230
1.0
 70
    11
 71
     3
 72
    17
 73
    13
 74
     0
 42
0.0000000001
 43
0.0000000001
 12
1.0
 22
0.0
 32
0.0
 13
1.0
 23
0.0
 33
0.0
 40
0.0
 40
0.0
 40
0.0
 40
0.0
 40
1.0
 40
1.0
 40
1.0
 40
2.0
 40
2.0
 40
2.0
 40
3.0
 40
3.0
 40
3.0
 40
4.0
 40
4.0
 40
4.0
 40
4.0
 10
10.02274082297721
 20
-3.433738899521497
 30
0.0
 10
10.06140075546318
 20
-3.433738899523241
 30
0.0
 10
10.09274082297583
 20
-3.465078967038658
 30
0.0
 10
10.09274082297401
 20
-3.503738899524655
 30
0.0
 10
10.09274082297235
 20
-3.542398832010652
 30
0.0
 10
10.06140075545694
 20
-3.573738899523265
 30
0.0
 10
10.02274082297082
 20
-3.573738899521522
 30
0.0
 10
9.984080890484847
 20
-3.573738899519791
 30
0.0
 10
9.952740822972347
 20
-3.542398832004374
 30
0.0
 10
9.952740822974015
 20
-3.503738899518377
 30
0.0
 10
9.952740822975834
 20
-3.465078967032367
 30
0.0
 10
9.984080890491239
 20
-3.433738899519767
 30
0.0
 10
10.02274082297721
 20
-3.433738899521497
 30
0.0
  0
ENDBLK
  5
6F
330
6C
100
AcDbEntity
  8
0
100
AcDbBlockEnd
  0
BLOCK
  5
87
330
85
100
AcDbEntity
  8
0
100
AcDbBlockBegin
  2
block 7
 70
     0
 10
0.0
 20
0.0
 30
0.0
  3
block 7
  1

  0
INSERT
  5
8A
330
85
100
AcDbEntity
  8
Layer 1
100
AcDbBlockReference
  2
block 8
 10
0.0
 20
0.0
 30
0.0
  0
SPLINE
  5
95
330
85
100
AcDbEntity
  8
Layer 1
 62
   179
420
  2236191
370
     5
100
AcDbSpline
210
0.0
220
0.0
230
1.0
 70
    11
 71
     3
 72
    23
 73
    19
 74
     0
 42
0.0000000001
 43
0.0000000001
 12
1.0
 22
0.0
 32
0.0
 13
1.0
 23
0.0
 33
0.0
 40
0.0
 40
0.0
 40
0.0
 40
0.0
 40
1.0
 40
1.0
 40
1.0
 40
2.0
 40
2.0
 40
2.0
 40
3.0
 40
3.0
 40
3.0
 40
4.0
 40
4.0
 40
4.0
 40
5.0
 40
5.0
 40
5.0
 40
6.0
 40
6.0
 40
6.0
 40
6.0
 10
8.996471109197348
 20
-5.621297594312535
 30
0.0
 10
8.87665963976388
 20
-5.621250823163993
 30
0.0
 10
8.779479576851093
 20
-5.758432914835516
 30
0.0
 10
8.779413473335403
 20
-5.927702216909993
 30
0.0
 10
8.779413473335403
 20
-5.927702216909993
 30
0.0
 10
8.779057006299883
 20
-6.840496730270615
 30
0.0
 10
8.779057006299883
 20
-6.840496730270615
 30
0.0
 10
8.778990902784168
 20
-7.009766032345068
 30
0.0
 10
8.876063790624306
 20
-7.147023955100671
 30
0.0
 10
8.995875260057774
 20
-7.147070726249163
 30
0.0
 10
9.115686729491118
 20
-7.147117497397706
 30
0.0
 10
9.21286679240403
 20
-7.009935405726158
 30
0.0
 10
9.212932895919568
 20
-6.84066610365168
 30
0.0
 10
9.212932895919568
 20
-6.84066610365168
 30
0.0
 10
9.213289362955265
 20
-5.927871590291084
 30
0.0
 10
9.213289362955265
 20
-5.927871590291084
 30
0.0
 10
9.21335546647083
 20
-5.758602288216606
 30
0.0
 10
9.116282578630818
 20
-5.621344365461052
 30
0.0
 10
8.996471109197348
 20
-5.621297594312535
 30
0.0
  0
ENDBLK
  5
88
330
85
100
AcDbEntity
  8
0
100
AcDbBlockEnd
  0
BLOCK
  5
8B
330
89
100
AcDbEntity
  8
0
100
AcDbBlockBegin
  2
block 8
 70
     0
 10
0.0
 20
0.0
 30
0.0
  3
block 8
  1

  0
INSERT
  5
8E
330
89
100
AcDbEntity
  8
Layer 1
100
AcDbBlockReference
  2
block 9
 10
0.0
 20
0.0
 30
0.0
  0
ENDBLK
  5
8C
330
89
100
AcDbEntity
  8
0
100
AcDbBlockEnd
  0
BLOCK
  5
8F
330
8D
100
AcDbEntity
  8
0
100
AcDbBlockBegin
  2
block 9
 70
     0
 10
0.0
 20
0.0
 30
0.0
  3
block 9
  1

  0
SPLINE
  5
91
330
8D
100
AcDbEntity
  8
Layer 1
 62
   179
420
  2236191
370
     5
100
AcDbSpline
210
0.0
220
0.0
230
1.0
 70
    11
 71
     3
 72
    17
 73
    13
 74
     0
 42
0.0000000001
 43
0.0000000001
 12
1.0
 22
0.0
 32
0.0
 13
1.0
 23
0.0
 33
0.0
 40
0.0
 40
0.0
 40
0.0
 40
0.0
 40
1.0
 40
1.0
 40
1.0
 40
2.0
 40
2.0
 40
2.0
 40
3.0
 40
3.0
 40
3.0
 40
4.0
 40
4.0
 40
4.0
 40
4.0
 10
8.609262698966251
 20
-7.619386575470419
 30
0.0
 10
8.647922631452223
 20
-7.619386575472137
 30
0.0
 10
8.67926269896485
 20
-7.650726642987567
 30
0.0
 10
8.679262698963056
 20
-7.689386575473564
 30
0.0
 10
8.679262698961388
 20
-7.728046507959561
 30
0.0
 10
8.647922631445958
 20
-7.759386575472162
 30
0.0
 10
8.609262698959986
 20
-7.759386575470444
 30
0.0
 10
8.570602766473888
 20
-7.7593865754687
 30
0.0
 10
8.53926269896139
 20
-7.728046507953295
 30
0.0
 10
8.539262698963057
 20
-7.689386575467299
 30
0.0
 10
8.539262698964851
 20
-7.650726642981302
 30
0.0
 10
8.570602766480281
 20
-7.619386575468676
 30
0.0
 10
8.609262698966251
 20
-7.619386575470419
 30
0.0
  0
SPLINE
  5
92
330
8D
100
AcDbEntity
  8
Layer 1
 62
   179
420
  2236191
370
     5
100
AcDbSpline
210
0.0
220
0.0
230
1.0
 70
    11
 71
     3
 72
    17
 73
    13
 74
     0
 42
0.0000000001
 43
0.0000000001
 12
1.0
 22
0.0
 32
0.0
 13
1.0
 23
0.0
 33
0.0
 40
0.0
 40
0.0
 40
0.0
 40
0.0
 40
1.0
 40
1.0
 40
1.0
 40
2.0
 40
2.0
 40
2.0
 40
3.0
 40
3.0
 40
3.0
 40
4.0
 40
4.0
 40
4.0
 40
4.0
 10
8.609262699173062
 20
-3.013086575470425
 30
0.0
 10
8.647922631659032
 20
-3.013086575472155
 30
0.0
 10
8.679262699171659
 20
-3.044426642987572
 30
0.0
 10
8.679262699169865
 20
-3.083086575473569
 30
0.0
 10
8.679262699168197
 20
-3.121746507959566
 30
0.0
 10
8.647922631652767
 20
-3.153086575472179
 30
0.0
 10
8.609262699166795
 20
-3.153086575470449
 30
0.0
 10
8.570602766680697
 20
-3.153086575468706
 30
0.0
 10
8.539262699168198
 20
-3.121746507953288
 30
0.0
 10
8.539262699169866
 20
-3.083086575467291
 30
0.0
 10
8.53926269917166
 20
-3.044426642981294
 30
0.0
 10
8.570602766687063
 20
-3.013086575468681
 30
0.0
 10
8.609262699173062
 20
-3.013086575470425
 30
0.0
  0
SPLINE
  5
93
330
8D
100
AcDbEntity
  8
Layer 1
 62
   179
420
  2236191
370
     5
100
AcDbSpline
210
0.0
220
0.0
230
1.0
 70
    11
 71
     3
 72
    17
 73
    13
 74
     0
 42
0.0000000001
 43
0.0000000001
 12
1.0
 22
0.0
 32
0.0
 13
1.0
 23
0.0
 33
0.0
 40
0.0
 40
0.0
 40
0.0
 40
0.0
 40
1.0
 40
1.0
 40
1.0
 40
2.0
 40
2.0
 40
2.0
 40
3.0
 40
3.0
 40
3.0
 40
4.0
 40
4.0
 40
4.0
 40
4.0
 10
4.002962699173041
 20
-3.013086575263615
 30
0.0
 10
4.041622631659012
 20
-3.013086575265346
 30
0.0
 10
4.072962699171663
 20
-3.044426642780776
 30
0.0
 10
4.072962699169844
 20
-3.083086575266773
 30
0.0
 10
4.072962699168203
 20
-3.121746507752782
 30
0.0
 10
4.041622631652773
 20
-3.15308657526537
 30
0.0
 10
4.002962699166675
 20
-3.153086575263639
 30
0.0
 10
3.964302766680678
 20
-3.153086575261896
 30
0.0
 10
3.932962699168178
 20
-3.121746507746479
 30
0.0
 10
3.932962699169845
 20
-3.083086575260482
 30
0.0
 10
3.932962699171513
 20
-3.044426642774485
 30
0.0
 10
3.964302766687069
 20
-3.013086575261872
 30
0.0
 10
4.002962699173041
 20
-3.013086575263615
 30
0.0
  0
SPLINE
  5
94
330
8D
100
AcDbEntity
  8
Layer 1
 62
   179
420
  2236191
370
     5
100
AcDbSpline
210
0.0
220
0.0
230
1.0
 70
    11
 71
     3
 72
    17
 73
    13
 74
     0
 42
0.0000000001
 43
0.0000000001
 12
1.0
 22
0.0
 32
0.0
 13
1.0
 23
0.0
 33
0.0
 40
0.0
 40
0.0
 40
0.0
 40
0.0
 40
1.0
 40
1.0
 40
1.0
 40
2.0
 40
2.0
 40
2.0
 40
3.0
 40
3.0
 40
3.0
 40
4.0
 40
4.0
 40
4.0
 40
4.0
 10
4.002962698966232
 20
-7.619386575263611
 30
0.0
 10
4.041622631452229
 20
-7.619386575265328
 30
0.0
 10
4.072962698964854
 20
-7.650726642780758
 30
0.0
 10
4.072962698963061
 20
-7.689386575266755
 30
0.0
 10
4.072962698961393
 20
-7.728046507752752
 30
0.0
 10
4.041622631445963
 20
-7.759386575265353
 30
0.0
 10
4.002962698959865
 20
-7.759386575263634
 30
0.0
 10
3.964302766473894
 20
-7.759386575261892
 30
0.0
 10
3.932962698961369
 20
-7.728046507746487
 30
0.0
 10
3.932962698963037
 20
-7.68938657526049
 30
0.0
 10
3.932962698964856
 20
-7.650726642774493
 30
0.0
 10
3.964302766480285
 20
-7.619386575261867
 30
0.0
 10
4.002962698966232
 20
-7.619386575263611
 30
0.0
  0
ENDBLK
  5
90
330
8D
100
AcDbEntity
  8
0
100
AcDbBlockEnd
  0
ENDSEC
  0
SECTION
  2
ENTITIES
  0
INSERT
  5
42
330
1F
100
AcDbEntity
  8
Layer 1
100
AcDbBlockReference
  2
block 2
 10
0.0
 20
0.0
 30
0.0
  0
ENDSEC
  0
SECTION
  2
OBJECTS
  0
DICTIONARY
  5
C
330
0
100
AcDbDictionary
281
     1
  3
ACAD_GROUP
350
D
  3
ACAD_LAYOUT
350
1A
  3
ACAD_MATERIAL
350
3B
  3
ACAD_MLEADERSTYLE
350
B3
  3
ACAD_MLINESTYLE
350
17
  3
ACAD_PLOTSETTINGS
350
19
  3
ACAD_PLOTSTYLENAME
350
E
  3
ACAD_TABLESTYLE
350
B2
  3
ACAD_VISUALSTYLE
350
2A
  0
SUN
  5
3F
330
29
100
AcDbSun
 90
        1
290
     0
 63
     7
421
 16777215
 40
1.0
291
     1
 91
  2455826
 92
 54000000
292
     0
 70
     2
 71
   256
280
     1
  0
DICTIONARY
  5
D
102
{ACAD_REACTORS
330
C
102
}
330
C
100
AcDbDictionary
281
     1
  0
DICTIONARY
  5
1A
102
{ACAD_REACTORS
330
C
102
}
330
C
100
AcDbDictionary
281
     1
  3
Layout1
350
1E
  3
Layout2
350
26
  3
Model
350
22
  0
DICTIONARY
  5
3B
102
{ACAD_REACTORS
330
C
102
}
330
C
100
AcDbDictionary
281
     1
  3
ByBlock
350
3D
  3
ByLayer
350
3C
  3
Global
350
3E
  0
DICTIONARY
  5
B3
102
{ACAD_REACTORS
330
C
102
}
330
C
100
AcDbDictionary
281
     1
  0
DICTIONARY
  5
17
102
{ACAD_REACTORS
330
C
102
}
330
C
100
AcDbDictionary
281
     1
  3
Standard
350
18
  0
DICTIONARY
  5
19
102
{ACAD_REACTORS
330
C
102
}
330
C
100
AcDbDictionary
281
     1
  0
ACDBDICTIONARYWDFLT
  5
E
102
{ACAD_REACTORS
330
C
102
}
330
C
100
AcDbDictionary
281
     1
  3
Normal
350
F
100
AcDbDictionaryWithDefault
340
F
  0
DICTIONARY
  5
B2
102
{ACAD_REACTORS
330
C
102
}
330
C
100
AcDbDictionary
281
     1
  0
DICTIONARY
  5
2A
102
{ACAD_REACTORS
330
C
102
}
330
C
100
AcDbDictionary
281
     1
  3
2dWireframe
350
2F
  3
3D Hidden
350
31
  3
3dWireframe
350
30
  3
Basic
350
32
  3
Brighten
350
36
  3
ColorChange
350
3A
  3
Conceptual
350
34
  3
Dim
350
35
  3
Facepattern
350
39
  3
Flat
350
2B
  3
FlatWithEdges
350
2C
  3
Gouraud
350
2D
  3
GouraudWithEdges
350
2E
  3
Linepattern
350
38
  3
Realistic
350
33
  3
Thicken
350
37
  0
LAYOUT
  5
1E
102
{ACAD_REACTORS
330
1A
102
}
330
1A
100
AcDbPlotSettings
  1

  2
none_device
  4

  6

 40
0.0
 41
0.0
 42
0.0
 43
0.0
 44
0.0
 45
0.0
 46
0.0
 47
0.0
 48
0.0
 49
0.0
140
0.0
141
0.0
142
1.0
143
1.0
 70
   688
 72
     0
 73
     0
 74
     5
  7

 75
    16
 76
     0
 77
     2
 78
   300
147
1.0
148
0.0
149
0.0
100
AcDbLayout
  1
Layout1
 70
     1
 71
     1
 10
0.0
 20
0.0
 11
12.0
 21
9.0
 12
0.0
 22
0.0
 32
0.0
 14
1.000000000000000E+20
 24
1.000000000000000E+20
 34
1.000000000000000E+20
 15
-1.000000000000000E+20
 25
-1.000000000000000E+20
 35
-1.000000000000000E+20
146
0.0
 13
0.0
 23
0.0
 33
0.0
 16
1.0
 26
0.0
 36
0.0
 17
0.0
 27
1.0
 37
0.0
 76
     0
330
1B
  0
LAYOUT
  5
26
102
{ACAD_REACTORS
330
1A
102
}
330
1A
100
AcDbPlotSettings
  1

  2
none_device
  4

  6

 40
0.0
 41
0.0
 42
0.0
 43
0.0
 44
0.0
 45
0.0
 46
0.0
 47
0.0
 48
0.0
 49
0.0
140
0.0
141
0.0
142
1.0
143
1.0
 70
   688
 72
     0
 73
     0
 74
     5
  7

 75
    16
 76
     0
 77
     2
 78
   300
147
1.0
148
0.0
149
0.0
100
AcDbLayout
  1
Layout2
 70
     1
 71
     2
 10
0.0
 20
0.0
 11
0.0
 21
0.0
 12
0.0
 22
0.0
 32
0.0
 14
0.0
 24
0.0
 34
0.0
 15
0.0
 25
0.0
 35
0.0
146
0.0
 13
0.0
 23
0.0
 33
0.0
 16
1.0
 26
0.0
 36
0.0
 17
0.0
 27
1.0
 37
0.0
 76
     0
330
23
  0
LAYOUT
  5
22
102
{ACAD_REACTORS
330
1A
102
}
330
1A
100
AcDbPlotSettings
  1

  2
none_device
  4

  6

 40
0.0
 41
0.0
 42
0.0
 43
0.0
 44
0.0
 45
0.0
 46
0.0
 47
0.0
 48
0.0
 49
0.0
140
0.0
141
0.0
142
1.0
143
1.0
 70
  1712
 72
     0
 73
     0
 74
     0
  7

 75
     0
 76
     0
 77
     2
 78
   300
147
1.0
148
0.0
149
0.0
100
AcDbLayout
  1
Model
 70
     1
 71
     0
 10
0.0
 20
0.0
 11
12.0
 21
9.0
 12
0.0
 22
0.0
 32
0.0
 14
1.000000000000000E+20
 24
1.000000000000000E+20
 34
1.000000000000000E+20
 15
-1.000000000000000E+20
 25
-1.000000000000000E+20
 35
-1.000000000000000E+20
146
0.0
 13
0.0
 23
0.0
 33
0.0
 16
1.0
 26
0.0
 36
0.0
 17
0.0
 27
1.0
 37
0.0
 76
     0
330
1F
331
29
  0
MATERIAL
  5
3D
102
{ACAD_REACTORS
330
3B
102
}
330
3B
100
AcDbMaterial
  1
ByBlock
 72
     1
 94
      127
  0
MATERIAL
  5
3C
102
{ACAD_REACTORS
330
3B
102
}
330
3B
100
AcDbMaterial
  1
ByLayer
 72
     1
 94
      127
  0
MATERIAL
  5
3E
102
{ACAD_REACTORS
330
3B
102
}
330
3B
100
AcDbMaterial
  1
Global
 72
     1
 94
      127
  0
MLINESTYLE
  5
18
102
{ACAD_REACTORS
330
17
102
}
330
17
100
AcDbMlineStyle
  2
Standard
 70
     0
  3

 62
   256
 51
90.0
 52
90.0
 71
     2
 49
0.5
 62
   256
  6
BYLAYER
 49
-0.5
 62
   256
  6
BYLAYER
  0
ACDBPLACEHOLDER
  5
F
102
{ACAD_REACTORS
330
E
102
}
330
E
  0
VISUALSTYLE
  5
2F
102
{ACAD_REACTORS
330
2A
102
}
330
2A
100
AcDbVisualStyle
  2
2dWireframe
 70
     4
177
     2
291
     0
 71
     0
176
     1
 72
     2
176
     1
 73
     0
176
     1
 90
        0
176
     1
 40
-0.6
176
     1
 41
-30.0
176
     1
 62
     5
 63
     7
421
 16777215
176
     1
 74
     1
176
     1
 91
        4
176
     1
 64
     7
176
     1
 65
   257
176
     1
 75
     1
176
     1
175
     1
176
     1
 42
1.0
176
     1
 92
        0
176
     1
 66
   257
176
     1
 43
1.0
176
     1
 76
     1
176
     1
 77
     6
176
     1
 78
     2
176
     1
 67
     7
176
     1
 79
     5
176
     1
170
     0
176
     1
171
     0
176
     1
290
     0
176
     1
 93
        1
176
     1
 44
0.0
176
     1
173
     0
176
     1
  0
VISUALSTYLE
  5
31
102
{ACAD_REACTORS
330
2A
102
}
330
2A
100
AcDbVisualStyle
  2
3D Hidden
 70
     6
177
     2
291
     0
 71
     1
176
     1
 72
     2
176
     1
 73
     2
176
     1
 90
        0
176
     1
 40
-0.6
176
     1
 41
-30.0
176
     1
 62
     5
 63
     7
421
 16777215
176
     1
 74
     2
176
     1
 91
        2
176
     1
 64
     7
176
     1
 65
   257
176
     1
 75
     2
176
     1
175
     1
176
     1
 42
40.0
176
     1
 92
        0
176
     1
 66
   257
176
     1
 43
1.0
176
     1
 76
     1
176
     1
 77
     6
176
     1
 78
     2
176
     1
 67
     7
176
     1
 79
     3
176
     1
170
     0
176
     1
171
     0
176
     1
290
     0
176
     1
 93
        1
176
     1
 44
0.0
176
     1
173
     0
176
     1
  0
VISUALSTYLE
  5
30
102
{ACAD_REACTORS
330
2A
102
}
330
2A
100
AcDbVisualStyle
  2
3dWireframe
 70
     5
177
     2
291
     0
 71
     0
176
     1
 72
     2
176
     1
 73
     0
176
     1
 90
        0
176
     1
 40
-0.6
176
     1
 41
-30.0
176
     1
 62
     5
 63
     7
421
 16777215
176
     1
 74
     1
176
     1
 91
        4
176
     1
 64
     7
176
     1
 65
   257
176
     1
 75
     1
176
     1
175
     1
176
     1
 42
1.0
176
     1
 92
        0
176
     1
 66
   257
176
     1
 43
1.0
176
     1
 76
     1
176
     1
 77
     6
176
     1
 78
     2
176
     1
 67
     7
176
     1
 79
     5
176
     1
170
     0
176
     1
171
     0
176
     1
290
     0
176
     1
 93
        1
176
     1
 44
0.0
176
     1
173
     0
176
     1
  0
VISUALSTYLE
  5
32
102
{ACAD_REACTORS
330
2A
102
}
330
2A
100
AcDbVisualStyle
  2
Basic
 70
     7
177
     2
291
     1
 71
     1
176
     1
 72
     0
176
     1
 73
     1
176
     1
 90
        0
176
     1
 40
-0.6
176
     1
 41
-30.0
176
     1
 62
     5
 63
     7
421
 16777215
176
     1
 74
     0
176
     1
 91
        4
176
     1
 64
     7
176
     1
 65
   257
176
     1
 75
     1
176
     1
175
     1
176
     1
 42
1.0
176
     1
 92
        8
176
     1
 66
     7
176
     1
 43
1.0
176
     1
 76
     1
176
     1
 77
     6
176
     1
 78
     2
176
     1
 67
     7
176
     1
 79
     5
176
     1
170
     0
176
     1
171
     0
176
     1
290
     0
176
     1
 93
        1
176
     1
 44
0.0
176
     1
173
     0
176
     1
  0
VISUALSTYLE
  5
36
102
{ACAD_REACTORS
330
2A
102
}
330
2A
100
AcDbVisualStyle
  2
Brighten
 70
    12
177
     2
291
     1
 71
     2
176
     1
 72
     2
176
     1
 73
     0
176
     1
 90
        0
176
     1
 40
-0.6
176
     1
 41
-30.0
176
     1
 62
     5
 63
     7
421
 16777215
176
     1
 74
     1
176
     1
 91
        4
176
     1
 64
     7
176
     1
 65
   257
176
     1
 75
     1
176
     1
175
     1
176
     1
 42
1.0
176
     1
 92
        8
176
     1
 66
     7
176
     1
 43
1.0
176
     1
 76
     1
176
     1
 77
     6
176
     1
 78
     2
176
     1
 67
     7
176
     1
 79
     5
176
     1
170
     0
176
     1
171
     0
176
     1
290
     0
176
     1
 93
        1
176
     1
 44
50.0
176
     1
173
     0
176
     1
  0
VISUALSTYLE
  5
3A
102
{ACAD_REACTORS
330
2A
102
}
330
2A
100
AcDbVisualStyle
  2
ColorChange
 70
    16
177
     2
291
     1
 71
     2
176
     1
 72
     2
176
     1
 73
     3
176
     1
 90
        0
176
     1
 40
-0.6
176
     1
 41
-30.0
176
     1
 62
     5
 63
     8
421
  8421504
176
     1
 74
     1
176
     1
 91
        4
176
     1
 64
     7
176
     1
 65
   257
176
     1
 75
     1
176
     1
175
     1
176
     1
 42
1.0
176
     1
 92
        8
176
     1
 66
     8
424
  8421504
176
     1
 43
1.0
176
     1
 76
     1
176
     1
 77
     6
176
     1
 78
     2
176
     1
 67
     7
176
     1
 79
     5
176
     1
170
     0
176
     1
171
     0
176
     1
290
     0
176
     1
 93
        1
176
     1
 44
0.0
176
     1
173
     0
176
     1
  0
VISUALSTYLE
  5
34
102
{ACAD_REACTORS
330
2A
102
}
330
2A
100
AcDbVisualStyle
  2
Conceptual
 70
     9
177
     2
291
     0
 71
     3
176
     1
 72
     2
176
     1
 73
     0
176
     1
 90
        0
176
     1
 40
-0.6
176
     1
 41
-30.0
176
     1
 62
     5
 63
     7
421
 16777215
176
     1
 74
     2
176
     1
 91
        2
176
     1
 64
     7
176
     1
 65
   257
176
     1
 75
     1
176
     1
175
     1
176
     1
 42
40.0
176
     1
 92
        8
176
     1
 66
     7
176
     1
 43
1.0
176
     1
 76
     1
176
     1
 77
     6
176
     1
 78
     2
176
     1
 67
     7
176
     1
 79
     3
176
     1
170
     0
176
     1
171
     0
176
     1
290
     0
176
     1
 93
        1
176
     1
 44
0.0
176
     1
173
     0
176
     1
  0
VISUALSTYLE
  5
35
102
{ACAD_REACTORS
330
2A
102
}
330
2A
100
AcDbVisualStyle
  2
Dim
 70
    11
177
     2
291
     1
 71
     2
176
     1
 72
     2
176
     1
 73
     0
176
     1
 90
        0
176
     1
 40
-0.6
176
     1
 41
-30.0
176
     1
 62
     5
 63
     7
421
 16777215
176
     1
 74
     1
176
     1
 91
        4
176
     1
 64
     7
176
     1
 65
   257
176
     1
 75
     1
176
     1
175
     1
176
     1
 42
1.0
176
     1
 92
        8
176
     1
 66
     7
176
     1
 43
1.0
176
     1
 76
     1
176
     1
 77
     6
176
     1
 78
     2
176
     1
 67
     7
176
     1
 79
     5
176
     1
170
     0
176
     1
171
     0
176
     1
290
     0
176
     1
 93
        1
176
     1
 44
-50.0
176
     1
173
     0
176
     1
  0
VISUALSTYLE
  5
39
102
{ACAD_REACTORS
330
2A
102
}
330
2A
100
AcDbVisualStyle
  2
Facepattern
 70
    15
177
     2
291
     1
 71
     2
176
     1
 72
     2
176
     1
 73
     0
176
     1
 90
        0
176
     1
 40
-0.6
176
     1
 41
-30.0
176
     1
 62
     5
 63
     7
421
 16777215
176
     1
 74
     1
176
     1
 91
        4
176
     1
 64
     7
176
     1
 65
   257
176
     1
 75
     1
176
     1
175
     1
176
     1
 42
1.0
176
     1
 92
        8
176
     1
 66
     7
176
     1
 43
1.0
176
     1
 76
     1
176
     1
 77
     6
176
     1
 78
     2
176
     1
 67
     7
176
     1
 79
     5
176
     1
170
     0
176
     1
171
     0
176
     1
290
     0
176
     1
 93
        1
176
     1
 44
0.0
176
     1
173
     0
176
     1
  0
VISUALSTYLE
  5
2B
102
{ACAD_REACTORS
330
2A
102
}
330
2A
100
AcDbVisualStyle
  2
Flat
 70
     0
177
     2
291
     1
 71
     2
176
     1
 72
     1
176
     1
 73
     1
176
     1
 90
        2
176
     1
 40
-0.6
176
     1
 41
30.0
176
     1
 62
     5
 63
     7
421
 16777215
176
     1
 74
     0
176
     1
 91
        4
176
     1
 64
     7
176
     1
 65
   257
176
     1
 75
     1
176
     1
175
     1
176
     1
 42
1.0
176
     1
 92
        8
176
     1
 66
     7
176
     1
 43
1.0
176
     1
 76
     1
176
     1
 77
     6
176
     1
 78
     2
176
     1
 67
     7
176
     1
 79
     5
176
     1
170
     0
176
     1
171
     0
176
     1
290
     0
176
     1
 93
       13
176
     1
 44
0.0
176
     1
173
     0
176
     1
  0
VISUALSTYLE
  5
2C
102
{ACAD_REACTORS
330
2A
102
}
330
2A
100
AcDbVisualStyle
  2
FlatWithEdges
 70
     1
177
     2
291
     1
 71
     2
176
     1
 72
     1
176
     1
 73
     1
176
     1
 90
        2
176
     1
 40
-0.6
176
     1
 41
30.0
176
     1
 62
     5
 63
     7
421
 16777215
176
     1
 74
     1
176
     1
 91
        4
176
     1
 64
     7
176
     1
 65
   257
176
     1
 75
     1
176
     1
175
     1
176
     1
 42
1.0
176
     1
 92
        0
176
     1
 66
   257
176
     1
 43
1.0
176
     1
 76
     1
176
     1
 77
     6
176
     1
 78
     2
176
     1
 67
     7
176
     1
 79
     5
176
     1
170
     0
176
     1
171
     0
176
     1
290
     0
176
     1
 93
       13
176
     1
 44
0.0
176
     1
173
     0
176
     1
  0
VISUALSTYLE
  5
2D
102
{ACAD_REACTORS
330
2A
102
}
330
2A
100
AcDbVisualStyle
  2
Gouraud
 70
     2
177
     2
291
     1
 71
     2
176
     1
 72
     2
176
     1
 73
     1
176
     1
 90
        2
176
     1
 40
-0.6
176
     1
 41
30.0
176
     1
 62
     5
 63
     7
421
 16777215
176
     1
 74
     0
176
     1
 91
        4
176
     1
 64
     7
176
     1
 65
   257
176
     1
 75
     1
176
     1
175
     1
176
     1
 42
1.0
176
     1
 92
        0
176
     1
 66
     7
176
     1
 43
1.0
176
     1
 76
     1
176
     1
 77
     6
176
     1
 78
     2
176
     1
 67
     7
176
     1
 79
     5
176
     1
170
     0
176
     1
171
     0
176
     1
290
     0
176
     1
 93
       13
176
     1
 44
0.0
176
     1
173
     0
176
     1
  0
VISUALSTYLE
  5
2E
102
{ACAD_REACTORS
330
2A
102
}
330
2A
100
AcDbVisualStyle
  2
GouraudWithEdges
 70
     3
177
     2
291
     1
 71
     2
176
     1
 72
     2
176
     1
 73
     1
176
     1
 90
        2
176
     1
 40
-0.6
176
     1
 41
30.0
176
     1
 62
     5
 63
     7
421
 16777215
176
     1
 74
     1
176
     1
 91
        4
176
     1
 64
     7
176
     1
 65
   257
176
     1
 75
     1
176
     1
175
     1
176
     1
 42
1.0
176
     1
 92
        0
176
     1
 66
   257
176
     1
 43
1.0
176
     1
 76
     1
176
     1
 77
     6
176
     1
 78
     2
176
     1
 67
     7
176
     1
 79
     5
176
     1
170
     0
176
     1
171
     0
176
     1
290
     0
176
     1
 93
       13
176
     1
 44
0.0
176
     1
173
     0
176
     1
  0
VISUALSTYLE
  5
38
102
{ACAD_REACTORS
330
2A
102
}
330
2A
100
AcDbVisualStyle
  2
Linepattern
 70
    14
177
     2
291
     1
 71
     2
176
     1
 72
     2
176
     1
 73
     0
176
     1
 90
        0
176
     1
 40
-0.6
176
     1
 41
-30.0
176
     1
 62
     5
 63
     7
421
 16777215
176
     1
 74
     1
176
     1
 91
        4
176
     1
 64
     7
176
     1
 65
   257
176
     1
 75
     7
176
     1
175
     7
176
     1
 42
1.0
176
     1
 92
        8
176
     1
 66
     7
176
     1
 43
1.0
176
     1
 76
     1
176
     1
 77
     6
176
     1
 78
     2
176
     1
 67
     7
176
     1
 79
     5
176
     1
170
     0
176
     1
171
     0
176
     1
290
     0
176
     1
 93
        1
176
     1
 44
0.0
176
     1
173
     0
176
     1
  0
VISUALSTYLE
  5
33
102
{ACAD_REACTORS
330
2A
102
}
330
2A
100
AcDbVisualStyle
  2
Realistic
 70
     8
177
     2
291
     0
 71
     2
176
     1
 72
     2
176
     1
 73
     0
176
     1
 90
        0
176
     1
 40
-0.6
176
     1
 41
-30.0
176
     1
 62
     5
 63
     7
421
 16777215
176
     1
 74
     1
176
     1
 91
        0
176
     1
 64
     7
176
     1
 65
   257
176
     1
 75
     1
176
     1
175
     1
176
     1
 42
1.0
176
     1
 92
        8
176
     1
 66
     8
424
  7895160
176
     1
 43
1.0
176
     1
 76
     1
176
     1
 77
     6
176
     1
 78
     2
176
     1
 67
     7
176
     1
 79
     5
176
     1
170
     0
176
     1
171
     0
176
     1
290
     0
176
     1
 93
       13
176
     1
 44
0.0
176
     1
173
     0
176
     1
  0
VISUALSTYLE
  5
37
102
{ACAD_REACTORS
330
2A
102
}
330
2A
100
AcDbVisualStyle
  2
Thicken
 70
    13
177
     2
291
     1
 71
     2
176
     1
 72
     2
176
     1
 73
     0
176
     1
 90
        0
176
     1
 40
-0.6
176
     1
 41
-30.0
176
     1
 62
     5
 63
     7
421
 16777215
176
     1
 74
     1
176
     1
 91
        4
176
     1
 64
     7
176
     1
 65
   257
176
     1
 75
     1
176
     1
175
     1
176
     1
 42
1.0
176
     1
 92
       12
176
     1
 66
     7
176
     1
 43
1.0
176
     1
 76
     1
176
     1
 77
     6
176
     1
 78
     2
176
     1
 67
     7
176
     1
 79
     5
176
     1
170
     0
176
     1
171
     0
176
     1
290
     0
176
     1
 93
        1
176
     1
 44
0.0
176
     1
173
     0
176
     1
  0
ENDSEC
  0
EOF
