<?xml version="1.0" encoding="utf-8"?>
<!-- Generator: Adobe Illustrator 20.0.0, SVG Export Plug-In . SVG Version: 6.00 Build 0)  -->
<svg version="1.1" id="Layer_1" xmlns="http://www.w3.org/2000/svg" xmlns:xlink="http://www.w3.org/1999/xlink" x="0px" y="0px"
	 viewBox="0 0 936 936" style="enable-background:new 0 0 936 936;" xml:space="preserve">
<style type="text/css">
	.st0{fill:none;stroke:#231F20;stroke-width:7.200000e-02;stroke-miterlimit:10;}
</style>
<g>
	<circle class="st0" cx="159.5" cy="888.4" r="5"/>
	<circle class="st0" cx="159.5" cy="56.1" r="5"/>
	<circle class="st0" cx="775.9" cy="888.4" r="5"/>
	<circle class="st0" cx="775.9" cy="56.1" r="5"/>
	<circle class="st0" cx="159.5" cy="812.1" r="5"/>
	<circle class="st0" cx="159.5" cy="132.5" r="5"/>
	<circle class="st0" cx="775.9" cy="812.1" r="5"/>
	<circle class="st0" cx="775.9" cy="132.5" r="5"/>
	<path class="st0" d="M827.7,299.6V357c0,4,2,7.3,4.5,7.3c2.5,0,4.5-3.3,4.5-7.3v-57.4c0-4-2-7.3-4.5-7.3
		C829.7,292.3,827.7,295.5,827.7,299.6z"/>
	<path class="st0" d="M827.7,587.6V645c0,4,2,7.3,4.5,7.3c2.5,0,4.5-3.3,4.5-7.3v-57.4c0-4-2-7.3-4.5-7.3
		C829.7,580.3,827.7,583.5,827.7,587.6z"/>
	<path class="st0" d="M683.7,587.6V645c0,4,2,7.3,4.5,7.3c2.5,0,4.5-3.3,4.5-7.3v-57.4c0-4-2-7.3-4.5-7.3
		C685.7,580.3,683.7,583.5,683.7,587.6z"/>
	<path class="st0" d="M683.7,299.6V357c0,4,2,7.3,4.5,7.3c2.5,0,4.5-3.3,4.5-7.3v-57.4c0-4-2-7.3-4.5-7.3
		C685.7,292.3,683.7,295.5,683.7,299.6z"/>
	<path class="st0" d="M683.7,443.1v57.4c0,4,2,7.3,4.5,7.3c2.5,0,4.5-3.3,4.5-7.3v-57.4c0-4-2-7.3-4.5-7.3
		C685.7,435.8,683.7,439,683.7,443.1z"/>
	<path class="st0" d="M827.7,443.6V501c0,4,2,7.3,4.5,7.3c2.5,0,4.5-3.3,4.5-7.3v-57.4c0-4-2-7.3-4.5-7.3
		C829.7,436.3,827.7,439.5,827.7,443.6z"/>
	<g>
		<circle class="st0" cx="231.7" cy="496" r="5"/>
		<circle class="st0" cx="94.4" cy="492.4" r="5"/>
		<circle class="st0" cx="94.4" cy="280" r="5"/>
		<circle class="st0" cx="231.7" cy="262" r="5"/>
	</g>
	<path class="st0" d="M739.5,704.3c0,11.2,9,20.3,20.2,20.3h60.1c11.1,0,20.2-9.1,20.2-20.3c0-11.2-9-20.3-20.2-20.3h-60.1
		C748.5,683.9,739.5,693,739.5,704.3z"/>
	<path class="st0" d="M263.3,471.8c4.1,0,7.3-6.5,7.3-14.4v-43c0-8-3.3-14.4-7.3-14.4s-7.3,6.5-7.3,14.4v43
		C256,465.3,259.3,471.8,263.3,471.8z"/>
	<path class="st0" d="M263.3,366.7c4.1,0,7.3-6.5,7.3-14.4v-43c0-8-3.3-14.4-7.3-14.4s-7.3,6.5-7.3,14.4v43
		C256,360.2,259.3,366.7,263.3,366.7z"/>
	<path class="st0" d="M376,266.8c0,17.6,16,31.8,35.8,31.8h106.5c19.7,0,35.8-14.2,35.8-31.8S538,235,518.3,235H411.8
		C392,235,376,249.3,376,266.8z"/>
	<path class="st0" d="M170,451.8c14.9,0,27-12.1,27-27v-80.4c0-14.9-12.1-27-27-27s-27,12.1-27,27v80.4
		C143,439.7,155,451.8,170,451.8z"/>
	<path class="st0" d="M750.9,539.5c14.9,0,27-12.1,27-27v-80.4c0-14.9-12.1-27-27-27s-27,12.1-27,27v80.4
		C723.9,527.4,736,539.5,750.9,539.5z"/>
	<circle class="st0" cx="770.8" cy="191.9" r="16.9"/>
	<path class="st0" d="M305.7,803.5v44.2V892v12.3h16h292h16V892v-44.2v-44.2c0-6.8-7.2-12.3-16-12.3h-292
		C312.9,791.2,305.7,796.8,305.7,803.5z"/>
	<path class="st0" d="M305.7,52.6v26.3V141c0,6.8,7.2,12.3,16,12.3h292c8.8,0,16-5.5,16-12.3V78.9V52.6V40.3h-16h-292h-16V52.6z"/>
	<g>
		<g>
			<g>
				<circle class="st0" cx="721.6" cy="691.5" r="5"/>
				<circle class="st0" cx="721.6" cy="252.3" r="5"/>
			</g>
			<circle class="st0" cx="275.2" cy="252.3" r="5"/>
		</g>
		<circle class="st0" cx="275.2" cy="626.7" r="5"/>
	</g>
	<line class="st0" x1="71.7" y1="904.3" x2="71.7" y2="40.3"/>
	<line class="st0" x1="71.7" y1="40.3" x2="863.7" y2="40.3"/>
	<line class="st0" x1="863.7" y1="40.3" x2="863.7" y2="904.3"/>
	<line class="st0" x1="863.7" y1="904.3" x2="71.7" y2="904.3"/>
	<circle class="st0" cx="677.7" cy="746" r="8.9"/>
	<g>
		<g>
			<g>
				<circle class="st0" cx="619.9" cy="553.6" r="5"/>
				<circle class="st0" cx="619.9" cy="222" r="5"/>
				<circle class="st0" cx="288.2" cy="222" r="5"/>
				<circle class="st0" cx="288.2" cy="553.6" r="5"/>
			</g>
		</g>
		<path class="st0" d="M647.7,404.7c-8.6,0-15.6,9.9-15.6,22.1l0,65.7c0,12.2,7,22.1,15.6,22.1c8.6,0,15.6-9.9,15.6-22.1l0-65.7
			C663.4,414.6,656.4,404.7,647.7,404.7z"/>
	</g>
	<circle class="st0" cx="677.7" cy="198.8" r="8.9"/>
	<path class="st0" d="M71.7,883.4c0,19.8,17.7,21.5,23.7,21.5"/>
	<path class="st0" d="M93.2,39.2c-19.8,0-21.5,17.7-21.5,23.7"/>
	<path class="st0" d="M863.7,61.8c0-19.8-17.7-21.5-23.7-21.5"/>
	<path class="st0" d="M842.1,904.3c19.8,0,21.5-17.7,21.5-23.7"/>
	<path class="st0" d="M672.1,676c15.1-6.9,29.7,8.1,22.1,23.2c-1.3,2.6-3.6,4.9-6.7,6.3c-15.1,6.9-29.7-8.1-22.1-23.2
		C666.7,679.8,669,677.5,672.1,676z"/>
	<path class="st0" d="M827.7,241.4c6.4,0,11.5-3.9,11.5-8.6v-25.6c0-4.8-5.1-8.6-11.5-8.6c-6.4,0-11.5,3.9-11.5,8.6v25.6
		C816.2,237.5,821.3,241.4,827.7,241.4z"/>
	<path class="st0" d="M863.7,292.3c-2.5,0-4.5,3.3-4.5,7.3V357c0,4,2,7.3,4.5,7.3"/>
	<path class="st0" d="M863.7,580.3c-2.5,0-4.5,3.3-4.5,7.3V645c0,4,2,7.3,4.5,7.3"/>
	<path class="st0" d="M863.7,436.3c-2.5,0-4.5,3.3-4.5,7.3V501c0,4,2,7.3,4.5,7.3"/>
	<circle class="st0" cx="145.2" cy="181.3" r="5"/>
	<circle class="st0" cx="145.2" cy="224.5" r="5"/>
	<path class="st0" d="M357.5,461.4c5.7,7.7-2.8,16.4-10.2,10.5C341.6,464.2,350,455.5,357.5,461.4z"/>
	<path class="st0" d="M460.9,461.4c5.7,7.7-2.8,16.4-10.2,10.5C445,464.2,453.4,455.5,460.9,461.4z"/>
	<path class="st0" d="M357.7,556.7c3.7,6.9-3.1,14-9.8,10.1c-0.7-0.4-1.6-1.4-2-2.1c-3.7-6.9,3.1-14,9.8-10.1
		C356.4,555,357.3,555.9,357.7,556.7z"/>
	<path class="st0" d="M461.6,556.7c3.7,6.9-3.1,14-9.8,10.1c-0.7-0.4-1.6-1.4-2-2.1c-3.7-6.9,3.1-14,9.8-10.1
		C460.3,555,461.3,555.9,461.6,556.7z"/>
	<path class="st0" d="M409.3,462.2c5.7,7.7-2.8,16.4-10.2,10.5C393.4,465.1,401.8,456.3,409.3,462.2z"/>
	<path class="st0" d="M512.7,462.2c5.7,7.7-2.8,16.4-10.2,10.5C496.8,465.1,505.2,456.3,512.7,462.2z"/>
	<path class="st0" d="M409.5,557.5c3.7,6.9-3.1,14-9.8,10.1c-0.7-0.4-1.6-1.4-2-2.1c-3.7-6.9,3.1-14,9.8-10.1
		C408.2,555.8,409.1,556.8,409.5,557.5z"/>
	<path class="st0" d="M513.5,557.5c3.7,6.9-3.1,14-9.8,10.1c-0.7-0.4-1.6-1.4-2-2.1c-3.7-6.9,3.1-14,9.8-10.1
		C512.2,555.8,513.1,556.8,513.5,557.5z"/>
	<path class="st0" d="M563.1,461.4c5.7,7.7-2.8,16.4-10.2,10.5C547.2,464.2,555.7,455.5,563.1,461.4z"/>
	<path class="st0" d="M563.9,556.7c3.7,6.9-3.1,14-9.8,10.1c-0.7-0.4-1.6-1.4-2-2.1c-3.7-6.9,3.1-14,9.8-10.1
		C562.6,555,563.5,555.9,563.9,556.7z"/>
	<path class="st0" d="M137.7,796.2c12.5,0,22.7-9.5,22.7-21.2v-63.2c0-11.7-10.2-21.2-22.7-21.2S115,700,115,711.7v63.2
		C115,786.7,125.2,796.2,137.7,796.2z"/>
	<path class="st0" d="M137.5,647.5c12.5,0,22.7-8.6,22.7-19.3V571c0-10.6-10.2-19.3-22.7-19.3s-22.7,8.6-22.7,19.3v57.3
		C114.9,638.9,125,647.5,137.5,647.5z"/>
	<path class="st0" d="M340.7,730.2c0,17.3,14,31.3,31.3,31.3v0h175c17.3,0,31.3-14,31.3-31.3s-14-31.3-31.3-31.3H372
		C354.7,698.9,340.7,712.9,340.7,730.2z"/>
	<path class="st0" d="M798,587.6V645c0,4,2,7.3,4.5,7.3s4.5-3.3,4.5-7.3v-57.4c0-4-2-7.3-4.5-7.3S798,583.5,798,587.6z"/>
	<path class="st0" d="M798,443.6V501c0,4,2,7.3,4.5,7.3c2.5,0,4.5-3.3,4.5-7.3v-57.4c0-4-2-7.3-4.5-7.3
		C800,436.3,798,439.5,798,443.6z"/>
	<path class="st0" d="M798,299.6V357c0,4,2,7.3,4.5,7.3s4.5-3.3,4.5-7.3v-57.4c0-4-2-7.3-4.5-7.3S798,295.5,798,299.6z"/>
</g>
</svg>
