<?xml version="1.0" encoding="utf-8"?>
<!-- Generator: Adobe Illustrator 20.0.0, SVG Export Plug-In . SVG Version: 6.00 Build 0)  -->
<svg version="1.1" id="Layer_1" xmlns="http://www.w3.org/2000/svg" xmlns:xlink="http://www.w3.org/1999/xlink" x="0px" y="0px"
	 viewBox="0 0 864 288" style="enable-background:new 0 0 864 288;" xml:space="preserve">
<style type="text/css">
	.st0{fill:none;stroke:#231F20;stroke-width:7.086615e-02;stroke-miterlimit:10;}
</style>
<g>
	<g>
		<circle class="st0" cx="40.4" cy="205.2" r="22.9"/>
		<line class="st0" x1="7.4" y1="230.9" x2="7.4" y2="179.3"/>
		<line class="st0" x1="16.4" y1="170.3" x2="32.4" y2="170.1"/>
		<line class="st0" x1="77" y1="239.4" x2="16.4" y2="239.4"/>
		<line class="st0" x1="40.4" y1="161.1" x2="40.4" y2="122.1"/>
		<line class="st0" x1="49.4" y1="113.1" x2="77" y2="113.1"/>
		<path class="st0" d="M16.4,170.3c-5,0-9,4-9,9"/>
		<path class="st0" d="M31.4,170.1c5,0,9-4,9-9"/>
		<path class="st0" d="M49.4,113.1c-5,0-9,4-9,9"/>
		<path class="st0" d="M16.4,239.5c-5,0-9-4-9-9"/>
	</g>
	<path class="st0" d="M87,179.5h-20c-2.4,0-4.4,2-4.4,4.4v2.4c0,2.4,2,4.4,4.4,4.4h20c2.4,0,4.4-2,4.4-4.4v-2.4
		C91.4,181.5,89.5,179.5,87,179.5z"/>
	<g>
		<circle class="st0" cx="113.7" cy="205.2" r="22.9"/>
		<line class="st0" x1="146.7" y1="231" x2="146.7" y2="179.3"/>
		<line class="st0" x1="137.7" y1="170.3" x2="121.7" y2="170.1"/>
		<line class="st0" x1="77" y1="239.4" x2="137.7" y2="239.4"/>
		<line class="st0" x1="113.7" y1="161.1" x2="113.7" y2="122.1"/>
		<line class="st0" x1="104.7" y1="113.1" x2="77" y2="113.1"/>
		<path class="st0" d="M137.7,170.3c5,0,9,4,9,9"/>
		<path class="st0" d="M122.7,170.1c-5,0-9-4-9-9"/>
		<path class="st0" d="M104.7,113.1c5,0,9,4,9,9"/>
		<path class="st0" d="M137.7,239.5c5,0,9-4,9-9"/>
	</g>
	<circle class="st0" cx="77" cy="153.6" r="5.2"/>
	<circle class="st0" cx="77" cy="133.3" r="5.2"/>
	<path class="st0" d="M87,221.6h-20c-2.4,0-4.4,2-4.4,4.4v1.4c0,2.4,2,4.4,4.4,4.4h20c2.4,0,4.4-2,4.4-4.4V226
		C91.4,223.6,89.5,221.6,87,221.6z"/>
</g>
<g>
	<g>
		<circle class="st0" cx="119" cy="72.5" r="22.9"/>
		<line class="st0" x1="86" y1="46.7" x2="86" y2="98.4"/>
		<line class="st0" x1="95" y1="107.4" x2="111" y2="107.6"/>
		<line class="st0" x1="155.7" y1="38.2" x2="95" y2="38.2"/>
		<line class="st0" x1="119" y1="116.6" x2="119" y2="155.6"/>
		<line class="st0" x1="128" y1="164.6" x2="155.7" y2="164.6"/>
		<path class="st0" d="M95,107.4c-5,0-9-4-9-9"/>
		<path class="st0" d="M110,107.6c5,0,9,4,9,9"/>
		<path class="st0" d="M128,164.6c-5,0-9-4-9-9"/>
		<path class="st0" d="M95,38.2c-5,0-9,4-9,9"/>
	</g>
	<path class="st0" d="M165.7,98.2h-20c-2.4,0-4.4-2-4.4-4.4v-2.4c0-2.4,2-4.4,4.4-4.4h20c2.4,0,4.4,2,4.4,4.4v2.4
		C170.1,96.2,168.1,98.2,165.7,98.2z"/>
	<g>
		<circle class="st0" cx="192.4" cy="72.4" r="22.9"/>
		<line class="st0" x1="225.4" y1="46.7" x2="225.4" y2="98.4"/>
		<line class="st0" x1="216.4" y1="107.4" x2="200.4" y2="107.6"/>
		<line class="st0" x1="155.7" y1="38.2" x2="216.4" y2="38.2"/>
		<line class="st0" x1="192.4" y1="116.6" x2="192.4" y2="155.6"/>
		<line class="st0" x1="183.4" y1="164.6" x2="155.7" y2="164.6"/>
		<path class="st0" d="M216.4,107.4c5,0,9-4,9-9"/>
		<path class="st0" d="M201.4,107.6c-5,0-9,4-9,9"/>
		<path class="st0" d="M183.4,164.6c5,0,9-4,9-9"/>
		<path class="st0" d="M216.4,38.2c5,0,9,4,9,9"/>
	</g>
	<circle class="st0" cx="155.7" cy="124" r="5.2"/>
	<circle class="st0" cx="155.7" cy="144.4" r="5.2"/>
	<path class="st0" d="M165.7,56.1h-20c-2.4,0-4.4-2-4.4-4.4v-1.4c0-2.4,2-4.4,4.4-4.4h20c2.4,0,4.4,2,4.4,4.4v1.4
		C170.1,54.1,168.1,56.1,165.7,56.1z"/>
</g>
<g>
	<g>
		<circle class="st0" cx="197.2" cy="204.7" r="22.9"/>
		<line class="st0" x1="164.2" y1="230.5" x2="164.2" y2="178.8"/>
		<line class="st0" x1="173.2" y1="169.8" x2="189.2" y2="169.6"/>
		<line class="st0" x1="233.9" y1="238.9" x2="173.2" y2="238.9"/>
		<line class="st0" x1="197.2" y1="160.6" x2="197.2" y2="121.6"/>
		<line class="st0" x1="206.2" y1="112.6" x2="233.9" y2="112.6"/>
		<path class="st0" d="M173.2,169.8c-5,0-9,4-9,9"/>
		<path class="st0" d="M188.2,169.6c5,0,9-4,9-9"/>
		<path class="st0" d="M206.2,112.6c-5,0-9,4-9,9"/>
		<path class="st0" d="M173.2,239c-5,0-9-4-9-9"/>
	</g>
	<path class="st0" d="M243.9,179h-20c-2.4,0-4.4,2-4.4,4.4v2.4c0,2.4,2,4.4,4.4,4.4h20c2.4,0,4.4-2,4.4-4.4v-2.4
		C248.3,181,246.3,179,243.9,179z"/>
	<g>
		<circle class="st0" cx="270.6" cy="204.7" r="22.9"/>
		<line class="st0" x1="303.6" y1="230.5" x2="303.6" y2="178.8"/>
		<line class="st0" x1="294.6" y1="169.8" x2="278.6" y2="169.6"/>
		<line class="st0" x1="233.9" y1="239" x2="294.6" y2="239"/>
		<line class="st0" x1="270.6" y1="160.6" x2="270.6" y2="121.6"/>
		<line class="st0" x1="261.6" y1="112.6" x2="233.9" y2="112.6"/>
		<path class="st0" d="M294.6,169.8c5,0,9,4,9,9"/>
		<path class="st0" d="M279.6,169.6c-5,0-9-4-9-9"/>
		<path class="st0" d="M261.6,112.6c5,0,9,4,9,9"/>
		<path class="st0" d="M294.6,239c5,0,9-4,9-9"/>
	</g>
	<circle class="st0" cx="233.9" cy="153.1" r="5.2"/>
	<circle class="st0" cx="233.9" cy="132.8" r="5.2"/>
	<path class="st0" d="M243.9,221.1h-20c-2.4,0-4.4,2-4.4,4.4v1.4c0,2.4,2,4.4,4.4,4.4h20c2.4,0,4.4-2,4.4-4.4v-1.4
		C248.3,223.1,246.3,221.1,243.9,221.1z"/>
</g>
<g>
	<g>
		<circle class="st0" cx="275.9" cy="72" r="22.9"/>
		<line class="st0" x1="242.9" y1="46.2" x2="242.9" y2="97.9"/>
		<line class="st0" x1="251.9" y1="106.9" x2="267.9" y2="107.1"/>
		<line class="st0" x1="312.6" y1="37.7" x2="251.9" y2="37.7"/>
		<line class="st0" x1="275.9" y1="116.1" x2="275.9" y2="155.1"/>
		<line class="st0" x1="284.9" y1="164.1" x2="312.6" y2="164.1"/>
		<path class="st0" d="M251.9,106.9c-5,0-9-4-9-9"/>
		<path class="st0" d="M266.9,107.1c5,0,9,4,9,9"/>
		<path class="st0" d="M284.9,164.1c-5,0-9-4-9-9"/>
		<path class="st0" d="M251.9,37.7c-5,0-9,4-9,9"/>
	</g>
	<path class="st0" d="M322.6,97.7h-20c-2.4,0-4.4-2-4.4-4.4v-2.4c0-2.4,2-4.4,4.4-4.4h20c2.4,0,4.4,2,4.4,4.4v2.4
		C327,95.7,325,97.7,322.6,97.7z"/>
	<g>
		<circle class="st0" cx="349.2" cy="72" r="22.9"/>
		<line class="st0" x1="382.3" y1="46.2" x2="382.2" y2="97.9"/>
		<line class="st0" x1="373.2" y1="106.9" x2="357.2" y2="107.1"/>
		<line class="st0" x1="312.6" y1="37.7" x2="373.2" y2="37.7"/>
		<line class="st0" x1="349.2" y1="116.1" x2="349.2" y2="155.1"/>
		<line class="st0" x1="340.2" y1="164.1" x2="312.6" y2="164.1"/>
		<path class="st0" d="M373.2,106.9c5,0,9-4,9-9"/>
		<path class="st0" d="M358.2,107.1c-5,0-9,4-9,9"/>
		<path class="st0" d="M340.2,164.1c5,0,9-4,9-9"/>
		<path class="st0" d="M373.3,37.7c5,0,9,4,9,9"/>
	</g>
	<circle class="st0" cx="312.6" cy="123.6" r="5.2"/>
	<circle class="st0" cx="312.6" cy="143.9" r="5.2"/>
	<path class="st0" d="M322.6,55.6h-20c-2.4,0-4.4-2-4.4-4.4v-1.4c0-2.4,2-4.4,4.4-4.4h20c2.4,0,4.4,2,4.4,4.4v1.4
		C327,53.6,325,55.6,322.6,55.6z"/>
</g>
<g>
	<g>
		<circle class="st0" cx="356.9" cy="204.2" r="22.9"/>
		<line class="st0" x1="323.9" y1="230" x2="323.9" y2="178.3"/>
		<line class="st0" x1="332.9" y1="169.3" x2="348.9" y2="169.1"/>
		<line class="st0" x1="393.6" y1="238.5" x2="332.9" y2="238.5"/>
		<line class="st0" x1="356.9" y1="160.1" x2="356.9" y2="121.1"/>
		<line class="st0" x1="365.9" y1="112.1" x2="393.6" y2="112.1"/>
		<path class="st0" d="M332.9,169.3c-5,0-9,4-9,9"/>
		<path class="st0" d="M347.9,169.1c5,0,9-4,9-9"/>
		<path class="st0" d="M365.9,112.1c-5,0-9,4-9,9"/>
		<path class="st0" d="M332.9,238.5c-5,0-9-4-9-9"/>
	</g>
	<path class="st0" d="M403.6,178.5h-20c-2.4,0-4.4,2-4.4,4.4v2.4c0,2.4,2,4.4,4.4,4.4h20c2.4,0,4.4-2,4.4-4.4v-2.4
		C408,180.5,406,178.5,403.6,178.5z"/>
	<g>
		<circle class="st0" cx="430.2" cy="204.2" r="22.9"/>
		<line class="st0" x1="463.2" y1="230" x2="463.2" y2="178.3"/>
		<line class="st0" x1="454.2" y1="169.3" x2="438.2" y2="169.1"/>
		<line class="st0" x1="393.6" y1="238.5" x2="454.2" y2="238.5"/>
		<line class="st0" x1="430.2" y1="160.1" x2="430.2" y2="121.1"/>
		<line class="st0" x1="421.2" y1="112.1" x2="393.6" y2="112.1"/>
		<path class="st0" d="M454.2,169.3c5,0,9,4,9,9"/>
		<path class="st0" d="M439.2,169.1c-5,0-9-4-9-9"/>
		<path class="st0" d="M421.2,112.1c5,0,9,4,9,9"/>
		<path class="st0" d="M454.3,238.5c5,0,9-4,9-9"/>
	</g>
	<circle class="st0" cx="393.6" cy="152.6" r="5.2"/>
	<circle class="st0" cx="393.6" cy="132.3" r="5.2"/>
	<path class="st0" d="M403.6,220.6h-20c-2.4,0-4.4,2-4.4,4.4v1.4c0,2.4,2,4.4,4.4,4.4h20c2.4,0,4.4-2,4.4-4.4V225
		C408,222.6,406,220.6,403.6,220.6z"/>
</g>
<g>
	<g>
		<circle class="st0" cx="436.2" cy="71" r="22.9"/>
		<line class="st0" x1="403.2" y1="45.2" x2="403.2" y2="96.9"/>
		<line class="st0" x1="412.2" y1="105.9" x2="428.2" y2="106.1"/>
		<line class="st0" x1="472.8" y1="36.7" x2="412.2" y2="36.7"/>
		<line class="st0" x1="436.2" y1="115.1" x2="436.2" y2="154.1"/>
		<line class="st0" x1="445.2" y1="163.1" x2="472.8" y2="163.1"/>
		<path class="st0" d="M412.2,105.9c-5,0-9-4-9-9"/>
		<path class="st0" d="M427.2,106.1c5,0,9,4,9,9"/>
		<path class="st0" d="M445.2,163.1c-5,0-9-4-9-9"/>
		<path class="st0" d="M412.2,36.7c-5,0-9,4-9,9"/>
	</g>
	<path class="st0" d="M482.8,96.7h-20c-2.4,0-4.4-2-4.4-4.4v-2.4c0-2.4,2-4.4,4.4-4.4h20c2.4,0,4.4,2,4.4,4.4v2.4
		C487.2,94.7,485.3,96.7,482.8,96.7z"/>
	<g>
		<circle class="st0" cx="509.5" cy="71" r="22.9"/>
		<line class="st0" x1="542.5" y1="45.2" x2="542.5" y2="96.9"/>
		<line class="st0" x1="533.5" y1="105.9" x2="517.5" y2="106.1"/>
		<line class="st0" x1="472.8" y1="36.7" x2="533.5" y2="36.7"/>
		<line class="st0" x1="509.5" y1="115.1" x2="509.5" y2="154.1"/>
		<line class="st0" x1="500.5" y1="163.1" x2="472.8" y2="163.1"/>
		<path class="st0" d="M533.5,105.9c5,0,9-4,9-9"/>
		<path class="st0" d="M518.5,106.1c-5,0-9,4-9,9"/>
		<path class="st0" d="M500.5,163.1c5,0,9-4,9-9"/>
		<path class="st0" d="M533.5,36.7c5,0,9,4,9,9"/>
	</g>
	<circle class="st0" cx="472.8" cy="122.5" r="5.2"/>
	<circle class="st0" cx="472.8" cy="142.9" r="5.2"/>
	<path class="st0" d="M482.8,54.6h-20c-2.4,0-4.4-2-4.4-4.4v-1.4c0-2.4,2-4.4,4.4-4.4h20c2.4,0,4.4,2,4.4,4.4v1.4
		C487.2,52.6,485.3,54.6,482.8,54.6z"/>
</g>
<g>
	<g>
		<circle class="st0" cx="514.8" cy="203.7" r="22.9"/>
		<line class="st0" x1="481.8" y1="229.5" x2="481.8" y2="177.8"/>
		<line class="st0" x1="490.8" y1="168.8" x2="506.8" y2="168.6"/>
		<line class="st0" x1="551.5" y1="237.9" x2="490.8" y2="237.9"/>
		<line class="st0" x1="514.8" y1="159.6" x2="514.8" y2="120.6"/>
		<line class="st0" x1="523.8" y1="111.6" x2="551.5" y2="111.6"/>
		<path class="st0" d="M490.8,168.8c-5,0-9,4-9,9"/>
		<path class="st0" d="M505.8,168.6c5,0,9-4,9-9"/>
		<path class="st0" d="M523.8,111.6c-5,0-9,4-9,9"/>
		<path class="st0" d="M490.8,238c-5,0-9-4-9-9"/>
	</g>
	<path class="st0" d="M561.5,178h-20c-2.4,0-4.4,2-4.4,4.4v2.4c0,2.4,2,4.4,4.4,4.4h20c2.4,0,4.4-2,4.4-4.4v-2.4
		C565.9,180,563.9,178,561.5,178z"/>
	<g>
		<circle class="st0" cx="588.2" cy="203.7" r="22.9"/>
		<line class="st0" x1="621.2" y1="229.5" x2="621.2" y2="177.8"/>
		<line class="st0" x1="612.2" y1="168.8" x2="596.2" y2="168.6"/>
		<line class="st0" x1="551.5" y1="238" x2="612.2" y2="238"/>
		<line class="st0" x1="588.2" y1="159.6" x2="588.2" y2="120.6"/>
		<line class="st0" x1="579.2" y1="111.6" x2="551.5" y2="111.6"/>
		<path class="st0" d="M612.2,168.8c5,0,9,4,9,9"/>
		<path class="st0" d="M597.2,168.6c-5,0-9-4-9-9"/>
		<path class="st0" d="M579.2,111.6c5,0,9,4,9,9"/>
		<path class="st0" d="M612.2,238c5,0,9-4,9-9"/>
	</g>
	<circle class="st0" cx="551.5" cy="152.1" r="5.2"/>
	<circle class="st0" cx="551.5" cy="131.8" r="5.2"/>
	<path class="st0" d="M561.5,220.1h-20c-2.4,0-4.4,2-4.4,4.4v1.4c0,2.4,2,4.4,4.4,4.4h20c2.4,0,4.4-2,4.4-4.4v-1.4
		C565.9,222.1,563.9,220.1,561.5,220.1z"/>
</g>
<g>
	<g>
		<circle class="st0" cx="593" cy="71.5" r="22.9"/>
		<line class="st0" x1="560" y1="45.7" x2="560" y2="97.4"/>
		<line class="st0" x1="569" y1="106.4" x2="585" y2="106.6"/>
		<line class="st0" x1="629.7" y1="37.2" x2="569" y2="37.2"/>
		<line class="st0" x1="593" y1="115.6" x2="593" y2="154.6"/>
		<line class="st0" x1="602" y1="163.6" x2="629.7" y2="163.6"/>
		<path class="st0" d="M569,106.4c-5,0-9-4-9-9"/>
		<path class="st0" d="M584,106.6c5,0,9,4,9,9"/>
		<path class="st0" d="M602,163.6c-5,0-9-4-9-9"/>
		<path class="st0" d="M569,37.2c-5,0-9,4-9,9"/>
	</g>
	<path class="st0" d="M639.7,97.2h-20c-2.4,0-4.4-2-4.4-4.4v-2.4c0-2.4,2-4.4,4.4-4.4h20c2.4,0,4.4,2,4.4,4.4v2.4
		C644.1,95.2,642.1,97.2,639.7,97.2z"/>
	<g>
		<circle class="st0" cx="666.4" cy="71.4" r="22.9"/>
		<line class="st0" x1="699.4" y1="45.7" x2="699.4" y2="97.4"/>
		<line class="st0" x1="690.4" y1="106.4" x2="674.4" y2="106.6"/>
		<line class="st0" x1="629.7" y1="37.2" x2="690.4" y2="37.2"/>
		<line class="st0" x1="666.4" y1="115.6" x2="666.4" y2="154.6"/>
		<line class="st0" x1="657.4" y1="163.6" x2="629.7" y2="163.6"/>
		<path class="st0" d="M690.4,106.4c5,0,9-4,9-9"/>
		<path class="st0" d="M675.4,106.6c-5,0-9,4-9,9"/>
		<path class="st0" d="M657.4,163.6c5,0,9-4,9-9"/>
		<path class="st0" d="M690.4,37.2c5,0,9,4,9,9"/>
	</g>
	<circle class="st0" cx="629.7" cy="123" r="5.2"/>
	<circle class="st0" cx="629.7" cy="143.4" r="5.2"/>
	<path class="st0" d="M639.7,55.1h-20c-2.4,0-4.4-2-4.4-4.4v-1.4c0-2.4,2-4.4,4.4-4.4h20c2.4,0,4.4,2,4.4,4.4v1.4
		C644.1,53.1,642.1,55.1,639.7,55.1z"/>
</g>
<g>
	<g>
		<circle class="st0" cx="671.7" cy="204.2" r="22.9"/>
		<line class="st0" x1="638.7" y1="229.9" x2="638.7" y2="178.3"/>
		<line class="st0" x1="647.7" y1="169.3" x2="663.7" y2="169.1"/>
		<line class="st0" x1="708.4" y1="238.4" x2="647.7" y2="238.4"/>
		<line class="st0" x1="671.7" y1="160.1" x2="671.7" y2="121.1"/>
		<line class="st0" x1="680.7" y1="112.1" x2="708.4" y2="112.1"/>
		<path class="st0" d="M647.7,169.3c-5,0-9,4-9,9"/>
		<path class="st0" d="M662.7,169.1c5,0,9-4,9-9"/>
		<path class="st0" d="M680.7,112.1c-5,0-9,4-9,9"/>
		<path class="st0" d="M647.7,238.4c-5,0-9-4-9-9"/>
	</g>
	<path class="st0" d="M718.4,178.5h-20c-2.4,0-4.4,2-4.4,4.4v2.4c0,2.4,2,4.4,4.4,4.4h20c2.4,0,4.4-2,4.4-4.4v-2.4
		C722.8,180.5,720.8,178.5,718.4,178.5z"/>
	<g>
		<circle class="st0" cx="745" cy="204.2" r="22.9"/>
		<line class="st0" x1="778" y1="230" x2="778" y2="178.3"/>
		<line class="st0" x1="769" y1="169.3" x2="753" y2="169.1"/>
		<line class="st0" x1="708.4" y1="238.4" x2="769" y2="238.4"/>
		<line class="st0" x1="745" y1="160.1" x2="745" y2="121.1"/>
		<line class="st0" x1="736" y1="112.1" x2="708.4" y2="112.1"/>
		<path class="st0" d="M769,169.3c5,0,9,4,9,9"/>
		<path class="st0" d="M754,169.1c-5,0-9-4-9-9"/>
		<path class="st0" d="M736,112.1c5,0,9,4,9,9"/>
		<path class="st0" d="M769.1,238.5c5,0,9-4,9-9"/>
	</g>
	<circle class="st0" cx="708.4" cy="152.6" r="5.2"/>
	<circle class="st0" cx="708.4" cy="132.3" r="5.2"/>
	<path class="st0" d="M718.4,220.6h-20c-2.4,0-4.4,2-4.4,4.4v1.4c0,2.4,2,4.4,4.4,4.4h20c2.4,0,4.4-2,4.4-4.4V225
		C722.8,222.6,720.8,220.6,718.4,220.6z"/>
</g>
<g>
	<g>
		<circle class="st0" cx="752.7" cy="71.9" r="22.9"/>
		<line class="st0" x1="719.7" y1="46.2" x2="719.7" y2="97.9"/>
		<line class="st0" x1="728.7" y1="106.9" x2="744.7" y2="107.1"/>
		<line class="st0" x1="789.4" y1="37.7" x2="728.7" y2="37.7"/>
		<line class="st0" x1="752.7" y1="116.1" x2="752.7" y2="155.1"/>
		<line class="st0" x1="761.7" y1="164.1" x2="789.4" y2="164.1"/>
		<path class="st0" d="M728.7,106.9c-5,0-9-4-9-9"/>
		<path class="st0" d="M743.7,107.1c5,0,9,4,9,9"/>
		<path class="st0" d="M761.7,164.1c-5,0-9-4-9-9"/>
		<path class="st0" d="M728.7,37.7c-5,0-9,4-9,9"/>
	</g>
	<path class="st0" d="M799.4,97.6h-20c-2.4,0-4.4-2-4.4-4.4v-2.4c0-2.4,2-4.4,4.4-4.4h20c2.4,0,4.4,2,4.4,4.4v2.4
		C803.8,95.7,801.8,97.6,799.4,97.6z"/>
	<g>
		<circle class="st0" cx="826" cy="71.9" r="22.9"/>
		<line class="st0" x1="859" y1="46.2" x2="859" y2="97.8"/>
		<line class="st0" x1="850" y1="106.8" x2="834" y2="107"/>
		<line class="st0" x1="789.4" y1="37.7" x2="850" y2="37.7"/>
		<line class="st0" x1="826" y1="116" x2="826" y2="155"/>
		<line class="st0" x1="817" y1="164" x2="789.4" y2="164"/>
		<path class="st0" d="M850,106.8c5,0,9-4,9-9"/>
		<path class="st0" d="M835,107c-5,0-9,4-9,9"/>
		<path class="st0" d="M817,164c5,0,9-4,9-9"/>
		<path class="st0" d="M850.1,37.7c5,0,9,4,9,9"/>
	</g>
	<circle class="st0" cx="789.4" cy="123.5" r="5.2"/>
	<circle class="st0" cx="789.4" cy="143.8" r="5.2"/>
	<path class="st0" d="M799.4,55.6h-20c-2.4,0-4.4-2-4.4-4.4v-1.4c0-2.4,2-4.4,4.4-4.4h20c2.4,0,4.4,2,4.4,4.4v1.4
		C803.8,53.6,801.8,55.6,799.4,55.6z"/>
</g>
</svg>
